<svg width="481" height="367" viewBox="0 0 481 367" fill="none" xmlns="http://www.w3.org/2000/svg">
<path d="M246.36 349.58H243.3V361H241.26V349.58H238.2V347.66H246.36V349.58ZM247.795 352.58H249.755V361H247.795V352.58ZM247.875 350C247.635 349.76 247.515 349.46 247.515 349.1C247.515 348.74 247.635 348.44 247.875 348.2C248.115 347.96 248.415 347.84 248.775 347.84C249.135 347.84 249.435 347.96 249.675 348.2C249.915 348.44 250.035 348.74 250.035 349.1C250.035 349.46 249.915 349.76 249.675 350C249.435 350.24 249.135 350.36 248.775 350.36C248.415 350.36 248.115 350.24 247.875 350ZM252.228 361V352.58H254.188V353.36C254.735 352.693 255.428 352.36 256.268 352.36C257.242 352.36 257.968 352.773 258.448 353.6C259.022 352.773 259.855 352.36 260.948 352.36C262.042 352.36 262.842 352.8 263.348 353.68C263.642 354.2 263.788 354.907 263.788 355.8V361H261.828V356.36C261.828 355.627 261.768 355.127 261.648 354.86C261.462 354.367 261.088 354.12 260.528 354.12C260.048 354.12 259.662 354.327 259.368 354.74C259.115 355.1 258.988 355.74 258.988 356.66V361H257.028V356.36C257.028 355.627 256.968 355.127 256.848 354.86C256.662 354.367 256.288 354.12 255.728 354.12C255.248 354.12 254.862 354.327 254.568 354.74C254.315 355.1 254.188 355.74 254.188 356.66V361H252.228ZM272.171 358.16L273.811 359.08C273.438 359.747 272.965 360.26 272.391 360.62C271.738 361.047 270.911 361.26 269.911 361.26C268.738 361.26 267.791 360.9 267.071 360.18C266.245 359.353 265.831 358.28 265.831 356.96C265.831 355.573 266.278 354.42 267.171 353.5C267.931 352.74 268.871 352.36 269.991 352.36C271.085 352.36 271.985 352.727 272.691 353.46C273.478 354.273 273.871 355.46 273.871 357.02V357.26H267.831C267.885 357.967 268.125 358.533 268.551 358.96C268.911 359.32 269.411 359.5 270.051 359.5C270.571 359.5 271.018 359.36 271.391 359.08C271.698 358.84 271.958 358.533 272.171 358.16ZM267.971 355.66H271.871C271.791 355.193 271.591 354.813 271.271 354.52C270.925 354.2 270.485 354.04 269.951 354.04C269.391 354.04 268.931 354.22 268.571 354.58C268.278 354.847 268.078 355.207 267.971 355.66Z" fill="#2A354F"/>
<line x1="58" y1="337.5" x2="472" y2="337.5" stroke="#5F6E91"/>
<line y1="-0.5" x2="6.36758" y2="-0.5" transform="matrix(0.61921 -0.785225 0.776456 0.630172 468.057 343)" stroke="#5F6E91"/>
<line y1="-0.5" x2="6.36758" y2="-0.5" transform="matrix(-0.619208 -0.785227 0.776458 -0.630169 472 337)" stroke="#5F6E91"/>
<path d="M202.36 312.58H199.3V324H197.26V312.58H194.2V310.66H202.36V312.58ZM203.795 315.58H205.755V324H203.795V315.58ZM203.875 313C203.635 312.76 203.515 312.46 203.515 312.1C203.515 311.74 203.635 311.44 203.875 311.2C204.115 310.96 204.415 310.84 204.775 310.84C205.135 310.84 205.435 310.96 205.675 311.2C205.915 311.44 206.035 311.74 206.035 312.1C206.035 312.46 205.915 312.76 205.675 313C205.435 313.24 205.135 313.36 204.775 313.36C204.415 313.36 204.115 313.24 203.875 313ZM208.228 324V315.58H210.188V316.36C210.735 315.693 211.428 315.36 212.268 315.36C213.242 315.36 213.968 315.773 214.448 316.6C215.022 315.773 215.855 315.36 216.948 315.36C218.042 315.36 218.842 315.8 219.348 316.68C219.642 317.2 219.788 317.907 219.788 318.8V324H217.828V319.36C217.828 318.627 217.768 318.127 217.648 317.86C217.462 317.367 217.088 317.12 216.528 317.12C216.048 317.12 215.662 317.327 215.368 317.74C215.115 318.1 214.988 318.74 214.988 319.66V324H213.028V319.36C213.028 318.627 212.968 318.127 212.848 317.86C212.662 317.367 212.288 317.12 211.728 317.12C211.248 317.12 210.862 317.327 210.568 317.74C210.315 318.1 210.188 318.74 210.188 319.66V324H208.228ZM228.171 321.16L229.811 322.08C229.438 322.747 228.965 323.26 228.391 323.62C227.738 324.047 226.911 324.26 225.911 324.26C224.738 324.26 223.791 323.9 223.071 323.18C222.245 322.353 221.831 321.28 221.831 319.96C221.831 318.573 222.278 317.42 223.171 316.5C223.931 315.74 224.871 315.36 225.991 315.36C227.085 315.36 227.985 315.727 228.691 316.46C229.478 317.273 229.871 318.46 229.871 320.02V320.26H223.831C223.885 320.967 224.125 321.533 224.551 321.96C224.911 322.32 225.411 322.5 226.051 322.5C226.571 322.5 227.018 322.36 227.391 322.08C227.698 321.84 227.958 321.533 228.171 321.16ZM223.971 318.66H227.871C227.791 318.193 227.591 317.813 227.271 317.52C226.925 317.2 226.485 317.04 225.951 317.04C225.391 317.04 224.931 317.22 224.571 317.58C224.278 317.847 224.078 318.207 223.971 318.66ZM246.088 317.74L247.388 319.1L245.808 320.92L248.268 324H245.788L244.468 322.36C244.121 322.72 243.748 323.047 243.348 323.34C242.481 323.953 241.508 324.26 240.428 324.26C239.201 324.26 238.228 323.9 237.508 323.18C236.788 322.46 236.428 321.547 236.428 320.44C236.428 319.64 236.594 318.98 236.928 318.46C237.261 317.94 237.734 317.453 238.348 317C238.748 316.707 239.101 316.46 239.408 316.26C238.528 315.38 238.088 314.46 238.088 313.5C238.088 312.66 238.354 311.94 238.888 311.34C239.434 310.727 240.221 310.42 241.248 310.42C242.248 310.42 243.028 310.707 243.588 311.28C244.161 311.853 244.448 312.527 244.448 313.3C244.448 313.94 244.254 314.52 243.868 315.04C243.521 315.493 242.968 316.007 242.208 316.58L244.568 319.46L246.088 317.74ZM243.248 320.92L240.608 317.72C239.994 318.053 239.508 318.42 239.148 318.82C238.668 319.34 238.428 319.907 238.428 320.52C238.428 321.08 238.621 321.56 239.008 321.96C239.394 322.347 239.894 322.54 240.508 322.54C240.988 322.54 241.488 322.367 242.008 322.02C242.328 321.78 242.741 321.413 243.248 320.92ZM241.028 315.16L241.768 314.62C242.301 314.247 242.568 313.807 242.568 313.3C242.568 312.98 242.454 312.7 242.228 312.46C242.014 312.22 241.688 312.1 241.248 312.1C240.848 312.1 240.534 312.213 240.308 312.44C240.081 312.653 239.968 312.933 239.968 313.28C239.968 313.693 240.121 314.08 240.428 314.44L241.028 315.16ZM256.225 324H254.145L256.945 309.66L261.585 320.02L266.265 309.66L268.785 324H266.705L265.345 315.96L261.465 324.62L257.625 315.94L256.225 324ZM277.377 316.56V315.58H279.337V324H277.377V323.12C276.723 323.88 275.883 324.26 274.857 324.26C273.617 324.26 272.623 323.82 271.877 322.94C271.143 322.06 270.777 321.007 270.777 319.78C270.777 318.447 271.17 317.38 271.957 316.58C272.757 315.767 273.73 315.36 274.877 315.36C275.93 315.36 276.763 315.76 277.377 316.56ZM275.117 317.12C274.423 317.12 273.857 317.38 273.417 317.9C272.99 318.42 272.777 319.06 272.777 319.82C272.777 320.567 272.99 321.2 273.417 321.72C273.857 322.24 274.423 322.5 275.117 322.5C275.783 322.5 276.343 322.267 276.797 321.8C277.263 321.333 277.497 320.68 277.497 319.84C277.497 318.973 277.263 318.307 276.797 317.84C276.343 317.36 275.783 317.12 275.117 317.12ZM285.342 317.38H283.842V324H281.882V317.38H281.062V315.58H281.882V312.5H283.842V315.58H285.342V317.38ZM292.566 321.16L294.206 322.08C293.832 322.747 293.359 323.26 292.786 323.62C292.132 324.047 291.306 324.26 290.306 324.26C289.132 324.26 288.186 323.9 287.466 323.18C286.639 322.353 286.226 321.28 286.226 319.96C286.226 318.573 286.672 317.42 287.566 316.5C288.326 315.74 289.266 315.36 290.386 315.36C291.479 315.36 292.379 315.727 293.086 316.46C293.872 317.273 294.266 318.46 294.266 320.02V320.26H288.226C288.279 320.967 288.519 321.533 288.946 321.96C289.306 322.32 289.806 322.5 290.446 322.5C290.966 322.5 291.412 322.36 291.786 322.08C292.092 321.84 292.352 321.533 292.566 321.16ZM288.366 318.66H292.266C292.186 318.193 291.986 317.813 291.666 317.52C291.319 317.2 290.879 317.04 290.346 317.04C289.786 317.04 289.326 317.22 288.966 317.58C288.672 317.847 288.472 318.207 288.366 318.66ZM296.314 324V315.58H298.274V316.34C298.528 316.047 298.801 315.813 299.094 315.64C299.414 315.453 299.814 315.36 300.294 315.36C300.868 315.36 301.381 315.493 301.834 315.76L301.034 317.54C300.714 317.34 300.381 317.24 300.034 317.24C299.514 317.24 299.108 317.393 298.814 317.7C298.454 318.087 298.274 318.733 298.274 319.64V324H296.314ZM302.955 315.58H304.915V324H302.955V315.58ZM303.035 313C302.795 312.76 302.675 312.46 302.675 312.1C302.675 311.74 302.795 311.44 303.035 311.2C303.275 310.96 303.575 310.84 303.935 310.84C304.295 310.84 304.595 310.96 304.835 311.2C305.075 311.44 305.195 311.74 305.195 312.1C305.195 312.46 305.075 312.76 304.835 313C304.595 313.24 304.295 313.36 303.935 313.36C303.575 313.36 303.275 313.24 303.035 313ZM313.548 316.56V315.58H315.508V324H313.548V323.12C312.895 323.88 312.055 324.26 311.028 324.26C309.788 324.26 308.795 323.82 308.048 322.94C307.315 322.06 306.948 321.007 306.948 319.78C306.948 318.447 307.342 317.38 308.128 316.58C308.928 315.767 309.902 315.36 311.048 315.36C312.102 315.36 312.935 315.76 313.548 316.56ZM311.288 317.12C310.595 317.12 310.028 317.38 309.588 317.9C309.162 318.42 308.948 319.06 308.948 319.82C308.948 320.567 309.162 321.2 309.588 321.72C310.028 322.24 310.595 322.5 311.288 322.5C311.955 322.5 312.515 322.267 312.968 321.8C313.435 321.333 313.668 320.68 313.668 319.84C313.668 318.973 313.435 318.307 312.968 317.84C312.515 317.36 311.955 317.12 311.288 317.12ZM317.994 309.42H319.954V324H317.994V309.42Z" fill="#2A354F"/>
<path d="M19 171.62L13.24 171.62L5.66 176L5.66 173.68L11 170.6L5.66 167.52L5.66 165.2L13.24 169.58L19 169.58L19 171.62ZM11.62 164.115C10.78 163.249 10.36 162.175 10.36 160.895C10.36 159.615 10.78 158.549 11.62 157.695C12.4467 156.829 13.5067 156.395 14.8 156.395C16.08 156.395 17.1467 156.829 18 157.695C18.84 158.549 19.26 159.615 19.26 160.895C19.26 162.175 18.84 163.249 18 164.115C17.1467 164.969 16.08 165.395 14.8 165.395C13.5067 165.395 12.4467 164.969 11.62 164.115ZM16.78 162.715C17.26 162.262 17.5 161.655 17.5 160.895C17.5 160.135 17.26 159.529 16.78 159.075C16.2867 158.622 15.6333 158.395 14.82 158.395C13.9267 158.395 13.2533 158.642 12.8 159.135C12.3467 159.615 12.12 160.202 12.12 160.895C12.12 161.589 12.3467 162.182 12.8 162.675C13.2533 163.155 13.9267 163.395 14.82 163.395C15.6333 163.395 16.2867 163.169 16.78 162.715ZM10.58 154.35L10.58 152.39L15.4 152.39C16.1067 152.39 16.6133 152.27 16.92 152.03C17.3067 151.737 17.5 151.31 17.5 150.75C17.5 150.19 17.3067 149.763 16.92 149.47C16.6133 149.23 16.1067 149.11 15.4 149.11L10.58 149.11L10.58 147.15L15.46 147.15C16.7 147.15 17.62 147.45 18.22 148.05C18.9133 148.743 19.26 149.657 19.26 150.79C19.26 151.883 18.9133 152.77 18.22 153.45C17.62 154.05 16.7 154.35 15.46 154.35L10.58 154.35ZM19 144.662L10.58 144.662L10.58 142.702L11.34 142.702C11.0467 142.449 10.8133 142.176 10.64 141.882C10.4533 141.562 10.36 141.162 10.36 140.682C10.36 140.109 10.4933 139.596 10.76 139.142L12.54 139.942C12.34 140.262 12.24 140.596 12.24 140.942C12.24 141.462 12.3933 141.869 12.7 142.162C13.0867 142.522 13.7333 142.702 14.64 142.702L19 142.702L19 144.662ZM19 133.354L10.58 133.354L10.58 131.394L11.34 131.394C11.0467 131.14 10.8133 130.867 10.64 130.574C10.4533 130.254 10.36 129.854 10.36 129.374C10.36 128.8 10.4933 128.287 10.76 127.834L12.54 128.634C12.34 128.954 12.24 129.287 12.24 129.634C12.24 130.154 12.3933 130.56 12.7 130.854C13.0867 131.214 13.7333 131.394 14.64 131.394L19 131.394L19 133.354ZM10.58 126.713L10.58 124.753L19 124.753L19 126.713L10.58 126.713ZM8 126.633C7.76 126.873 7.46 126.993 7.1 126.993C6.74 126.993 6.44 126.873 6.2 126.633C5.96 126.393 5.84 126.093 5.84 125.733C5.84 125.373 5.96 125.073 6.2 124.833C6.44 124.593 6.74 124.473 7.1 124.473C7.46 124.473 7.76 124.593 8 124.833C8.24 125.073 8.36 125.373 8.36 125.733C8.36 126.093 8.24 126.393 8 126.633ZM11.84 117.14L12.8 118.6C12.32 118.893 12.08 119.293 12.08 119.8C12.08 120.053 12.1533 120.253 12.3 120.4C12.42 120.52 12.5667 120.58 12.74 120.58C12.94 120.58 13.1 120.486 13.22 120.3C13.2467 120.26 13.2733 120.22 13.3 120.18C13.3133 120.14 13.3467 120.066 13.4 119.96C13.4533 119.853 13.5067 119.746 13.56 119.64L14.06 118.64C14.34 118.08 14.6 117.686 14.84 117.46C15.2533 117.046 15.7733 116.84 16.4 116.84C17.1467 116.84 17.7867 117.086 18.32 117.58C18.9467 118.153 19.26 118.94 19.26 119.94C19.26 120.686 19.08 121.293 18.72 121.76C18.3467 122.266 17.8333 122.626 17.18 122.84L16.42 121.24C16.8067 121.106 17.0733 120.953 17.22 120.78C17.4333 120.566 17.54 120.28 17.54 119.92C17.54 119.573 17.4467 119.306 17.26 119.12C17.0733 118.933 16.8533 118.84 16.6 118.84C16.36 118.84 16.1467 118.926 15.96 119.1C15.7733 119.286 15.6 119.566 15.44 119.94L15.1 120.66C14.8333 121.22 14.5933 121.606 14.38 121.82C13.9933 122.22 13.52 122.42 12.96 122.42C12.2533 122.42 11.6533 122.186 11.16 121.72C10.6267 121.213 10.36 120.526 10.36 119.66C10.36 119.06 10.5067 118.54 10.8 118.1C11.0533 117.7 11.4 117.38 11.84 117.14ZM4.42 115.072L4.42 113.112L13.4 113.112L10.58 110.372L10.58 107.772L14.08 111.392L19 107.512L19 109.992L15.4 112.752L15.76 113.112L19 113.112L19 115.072L4.42 115.072Z" fill="#2A354F"/>
<path d="M318.28 64.66V66.58H313.64V69.96H318.12V71.88H313.64V78H311.6V64.66H318.28ZM320.244 69.58H322.204V78H320.244V69.58ZM320.324 67C320.084 66.76 319.964 66.46 319.964 66.1C319.964 65.74 320.084 65.44 320.324 65.2C320.564 64.96 320.864 64.84 321.224 64.84C321.584 64.84 321.884 64.96 322.124 65.2C322.364 65.44 322.484 65.74 322.484 66.1C322.484 66.46 322.364 66.76 322.124 67C321.884 67.24 321.584 67.36 321.224 67.36C320.864 67.36 320.564 67.24 320.324 67ZM323.558 78L327.278 73.44L324.278 69.58H326.598L328.458 72.04L330.338 69.58H332.738L329.638 73.44L333.238 78H330.878L328.458 74.86L325.958 78H323.558ZM341.227 77.02V82.58H339.267V69.58H341.227V70.5C341.867 69.74 342.701 69.36 343.727 69.36C344.874 69.36 345.841 69.7667 346.627 70.58C347.427 71.38 347.827 72.4333 347.827 73.74C347.827 75.0867 347.414 76.18 346.587 77.02C345.761 77.8467 344.814 78.26 343.747 78.26C342.747 78.26 341.907 77.8467 341.227 77.02ZM343.487 71.12C342.821 71.12 342.254 71.36 341.787 71.84C341.334 72.3067 341.107 72.9733 341.107 73.84C341.107 74.68 341.334 75.3333 341.787 75.8C342.254 76.2667 342.821 76.5 343.487 76.5C344.181 76.5 344.741 76.24 345.167 75.72C345.607 75.2 345.827 74.5667 345.827 73.82C345.827 73.06 345.607 72.42 345.167 71.9C344.741 71.38 344.181 71.12 343.487 71.12ZM349.873 78V69.58H351.833V70.34C352.086 70.0467 352.359 69.8133 352.653 69.64C352.973 69.4533 353.373 69.36 353.853 69.36C354.426 69.36 354.939 69.4933 355.393 69.76L354.593 71.54C354.273 71.34 353.939 71.24 353.593 71.24C353.073 71.24 352.666 71.3933 352.373 71.7C352.013 72.0867 351.833 72.7333 351.833 73.64V78H349.873ZM356.513 69.58H358.473V78H356.513V69.58ZM356.593 67C356.353 66.76 356.233 66.46 356.233 66.1C356.233 65.74 356.353 65.44 356.593 65.2C356.833 64.96 357.133 64.84 357.493 64.84C357.853 64.84 358.153 64.96 358.393 65.2C358.633 65.44 358.753 65.74 358.753 66.1C358.753 66.46 358.633 66.76 358.393 67C358.153 67.24 357.853 67.36 357.493 67.36C357.133 67.36 356.833 67.24 356.593 67ZM366.087 70.84L364.627 71.8C364.334 71.32 363.934 71.08 363.427 71.08C363.174 71.08 362.974 71.1533 362.827 71.3C362.707 71.42 362.647 71.5667 362.647 71.74C362.647 71.94 362.74 72.1 362.927 72.22C362.967 72.2467 363.007 72.2733 363.047 72.3C363.087 72.3133 363.16 72.3467 363.267 72.4C363.374 72.4533 363.48 72.5067 363.587 72.56L364.587 73.06C365.147 73.34 365.54 73.6 365.767 73.84C366.18 74.2533 366.387 74.7733 366.387 75.4C366.387 76.1467 366.14 76.7867 365.647 77.32C365.074 77.9467 364.287 78.26 363.287 78.26C362.54 78.26 361.934 78.08 361.467 77.72C360.96 77.3467 360.6 76.8333 360.387 76.18L361.987 75.42C362.12 75.8067 362.274 76.0733 362.447 76.22C362.66 76.4333 362.947 76.54 363.307 76.54C363.654 76.54 363.92 76.4467 364.107 76.26C364.294 76.0733 364.387 75.8533 364.387 75.6C364.387 75.36 364.3 75.1467 364.127 74.96C363.94 74.7733 363.66 74.6 363.287 74.44L362.567 74.1C362.007 73.8333 361.62 73.5933 361.407 73.38C361.007 72.9933 360.807 72.52 360.807 71.96C360.807 71.2533 361.04 70.6533 361.507 70.16C362.014 69.6267 362.7 69.36 363.567 69.36C364.167 69.36 364.687 69.5067 365.127 69.8C365.527 70.0533 365.847 70.4 366.087 70.84ZM374.054 75.16L375.694 76.08C375.321 76.7467 374.847 77.26 374.274 77.62C373.621 78.0467 372.794 78.26 371.794 78.26C370.621 78.26 369.674 77.9 368.954 77.18C368.127 76.3533 367.714 75.28 367.714 73.96C367.714 72.5733 368.161 71.42 369.054 70.5C369.814 69.74 370.754 69.36 371.874 69.36C372.967 69.36 373.867 69.7267 374.574 70.46C375.361 71.2733 375.754 72.46 375.754 74.02V74.26H369.714C369.767 74.9667 370.007 75.5333 370.434 75.96C370.794 76.32 371.294 76.5 371.934 76.5C372.454 76.5 372.901 76.36 373.274 76.08C373.581 75.84 373.841 75.5333 374.054 75.16ZM369.854 72.66H373.754C373.674 72.1933 373.474 71.8133 373.154 71.52C372.807 71.2 372.367 71.04 371.834 71.04C371.274 71.04 370.814 71.22 370.454 71.58C370.161 71.8467 369.961 72.2067 369.854 72.66Z" fill="#2A354F"/>
<g filter="url(#filter0_ii_85_1046)">
<path d="M451.143 284.5H67C268.664 256.697 397.232 117.954 446.063 37.4189C448.782 32.9347 456.143 34.8884 456.143 40.1324V279.5C456.143 282.261 453.904 284.5 451.143 284.5Z" fill="#F6F6F6"/>
</g>
<path d="M451.143 284.5H67C268.664 256.697 397.232 117.954 446.063 37.4189C448.782 32.9347 456.143 34.8884 456.143 40.1324V279.5C456.143 282.261 453.904 284.5 451.143 284.5Z" stroke="#E0E0E0"/>
<g filter="url(#filter1_dd_85_1046)">
<path d="M104.632 251.113C90.8633 247.553 75.3649 263.903 64.62 276.846C61.9308 280.085 64.2938 284.992 68.5038 284.987L450.137 284.517C455.194 284.511 457.361 277.374 453.285 274.381C439.55 264.295 425.271 253.31 409.251 251.113C388.207 248.227 365.647 275.029 350.507 275.029C329.917 275.029 334.098 236.508 294.186 233.177C252.945 229.735 248.867 277.736 231.302 275.158C230.842 275.09 230.401 274.926 229.998 274.694C212.492 264.601 188.793 223.05 164.586 251.113C151.263 266.559 150.052 276.025 140.362 279.014C125.828 283.499 121.589 255.498 104.632 251.113Z" fill="#F6F6F6"/>
<path d="M104.632 251.113C90.8633 247.553 75.3649 263.903 64.62 276.846C61.9308 280.085 64.2938 284.992 68.5038 284.987L450.137 284.517C455.194 284.511 457.361 277.374 453.285 274.381C439.55 264.295 425.271 253.31 409.251 251.113C388.207 248.227 365.647 275.029 350.507 275.029C329.917 275.029 334.098 236.508 294.186 233.177C252.945 229.735 248.867 277.736 231.302 275.158C230.842 275.09 230.401 274.926 229.998 274.694C212.492 264.601 188.793 223.05 164.586 251.113C151.263 266.559 150.052 276.025 140.362 279.014C125.828 283.499 121.589 255.498 104.632 251.113Z" stroke="#E0E0E0"/>
</g>
<line x1="32.5" y1="-2.18557e-08" x2="32.5" y2="285" stroke="#5F6E91"/>
<line x1="37.6877" y1="4.39043" x2="32.6877" y2="0.390416" stroke="#5F6E91"/>
<line x1="32.3123" y1="0.390434" x2="27.3123" y2="4.39043" stroke="#5F6E91"/>
<defs>
<filter id="filter0_ii_85_1046" x="60.9316" y="28.4236" width="401.711" height="262.576" filterUnits="userSpaceOnUse" color-interpolation-filters="sRGB">
<feFlood flood-opacity="0" result="BackgroundImageFix"/>
<feBlend mode="normal" in="SourceGraphic" in2="BackgroundImageFix" result="shape"/>
<feColorMatrix in="SourceAlpha" type="matrix" values="0 0 0 0 0 0 0 0 0 0 0 0 0 0 0 0 0 0 127 0" result="hardAlpha"/>
<feOffset dx="-6" dy="-6"/>
<feGaussianBlur stdDeviation="4"/>
<feComposite in2="hardAlpha" operator="arithmetic" k2="-1" k3="1"/>
<feColorMatrix type="matrix" values="0 0 0 0 1 0 0 0 0 1 0 0 0 0 1 0 0 0 1 0"/>
<feBlend mode="normal" in2="shape" result="effect1_innerShadow_85_1046"/>
<feColorMatrix in="SourceAlpha" type="matrix" values="0 0 0 0 0 0 0 0 0 0 0 0 0 0 0 0 0 0 127 0" result="hardAlpha"/>
<feOffset dx="6" dy="6"/>
<feGaussianBlur stdDeviation="4"/>
<feComposite in2="hardAlpha" operator="arithmetic" k2="-1" k3="1"/>
<feColorMatrix type="matrix" values="0 0 0 0 0 0 0 0 0 0 0 0 0 0 0 0 0 0 0.1 0"/>
<feBlend mode="normal" in2="effect1_innerShadow_85_1046" result="effect2_innerShadow_85_1046"/>
</filter>
<filter id="filter1_dd_85_1046" x="37.9746" y="207.5" width="442.941" height="102.987" filterUnits="userSpaceOnUse" color-interpolation-filters="sRGB">
<feFlood flood-opacity="0" result="BackgroundImageFix"/>
<feColorMatrix in="SourceAlpha" type="matrix" values="0 0 0 0 0 0 0 0 0 0 0 0 0 0 0 0 0 0 127 0" result="hardAlpha"/>
<feOffset dx="-10" dy="-10"/>
<feGaussianBlur stdDeviation="7.5"/>
<feComposite in2="hardAlpha" operator="out"/>
<feColorMatrix type="matrix" values="0 0 0 0 1 0 0 0 0 1 0 0 0 0 1 0 0 0 0.9 0"/>
<feBlend mode="normal" in2="BackgroundImageFix" result="effect1_dropShadow_85_1046"/>
<feColorMatrix in="SourceAlpha" type="matrix" values="0 0 0 0 0 0 0 0 0 0 0 0 0 0 0 0 0 0 127 0" result="hardAlpha"/>
<feOffset dx="10" dy="10"/>
<feGaussianBlur stdDeviation="7.5"/>
<feComposite in2="hardAlpha" operator="out"/>
<feColorMatrix type="matrix" values="0 0 0 0 0 0 0 0 0 0 0 0 0 0 0 0 0 0 0.15 0"/>
<feBlend mode="normal" in2="effect1_dropShadow_85_1046" result="effect2_dropShadow_85_1046"/>
<feBlend mode="normal" in="SourceGraphic" in2="effect2_dropShadow_85_1046" result="shape"/>
</filter>
</defs>
</svg>
