<svg width="30" height="30" viewBox="0 0 30 30" fill="none" xmlns="http://www.w3.org/2000/svg">
<g id="icons / general / business-center">
<path id="Vector" d="M5 26.25C4.3125 26.25 3.72417 26.0054 3.235 25.5163C2.745 25.0263 2.5 24.4375 2.5 23.75V10C2.5 9.3125 2.745 8.72417 3.235 8.235C3.72417 7.745 4.3125 7.5 5 7.5H10V5C10 4.3125 10.245 3.72375 10.735 3.23375C11.2242 2.74458 11.8125 2.5 12.5 2.5H17.5C18.1875 2.5 18.7763 2.74458 19.2663 3.23375C19.7554 3.72375 20 4.3125 20 5V7.5H25C25.6875 7.5 26.2763 7.745 26.7663 8.235C27.2554 8.72417 27.5 9.3125 27.5 10V23.75C27.5 24.4375 27.2554 25.0263 26.7663 25.5163C26.2763 26.0054 25.6875 26.25 25 26.25H5ZM12.5 7.5H17.5V5H12.5V7.5ZM25 18.75H18.75V21.25H11.25V18.75H5V23.75H25V18.75ZM13.75 18.75H16.25V16.25H13.75V18.75ZM5 16.25H11.25V13.75H18.75V16.25H25V10H5V16.25Z" fill="#44516F"/>
</g>
</svg>
