<svg width="17" height="17" viewBox="0 0 17 17" fill="none" xmlns="http://www.w3.org/2000/svg">
<g id="icons / form / envelope">
<path id="Vector" d="M0.53125 2.8333C0.53125 2.38243 0.699162 1.95003 0.998049 1.63122C1.29693 1.31241 1.70231 1.1333 2.125 1.1333H14.875C15.2977 1.1333 15.7031 1.31241 16.002 1.63122C16.3008 1.95003 16.4688 2.38243 16.4688 2.8333V4.20237L8.5 8.98277L0.53125 4.20237V2.8333Z" fill="#44516F"/>
<path id="Vector_2" d="M0.53125 5.50244V14.1668C0.53125 14.6176 0.699162 15.05 0.998049 15.3689C1.29693 15.6877 1.70231 15.8668 2.125 15.8668H14.875C15.2977 15.8668 15.7031 15.6877 16.002 15.3689C16.3008 15.05 16.4688 14.6176 16.4688 14.1668V5.50244L8.5 10.284L0.53125 5.50244Z" fill="#44516F"/>
</g>
</svg>
