<svg width="45" height="45" viewBox="0 0 45 45" fill="none" xmlns="http://www.w3.org/2000/svg">
<g id="icons / general / suitcase">
<path id="Vector" fill-rule="evenodd" clip-rule="evenodd" d="M20.625 5.625C19.1332 5.625 17.7024 6.21763 16.6475 7.27252C15.5926 8.32742 15 9.75816 15 11.25V13.125H9.375C7.88316 13.125 6.45242 13.7176 5.39752 14.7725C4.34263 15.8274 3.75 17.2582 3.75 18.75V33.75C3.75 35.2418 4.34263 36.6726 5.39752 37.7275C6.45242 38.7824 7.88316 39.375 9.375 39.375H35.625C37.1168 39.375 38.5476 38.7824 39.6025 37.7275C40.6574 36.6726 41.25 35.2418 41.25 33.75V18.75C41.25 17.2582 40.6574 15.8274 39.6025 14.7725C38.5476 13.7176 37.1168 13.125 35.625 13.125H30V11.25C30 9.75816 29.4074 8.32742 28.3525 7.27252C27.2976 6.21763 25.8668 5.625 24.375 5.625H20.625ZM26.25 13.125H18.75V11.25C18.75 10.7527 18.9475 10.2758 19.2992 9.92418C19.6508 9.57254 20.1277 9.375 20.625 9.375H24.375C24.8723 9.375 25.3492 9.57254 25.7008 9.92418C26.0525 10.2758 26.25 10.7527 26.25 11.25V13.125Z" fill="#44516F"/>
</g>
</svg>
