<svg width="45" height="45" viewBox="0 0 45 45" fill="none" xmlns="http://www.w3.org/2000/svg">
<g id="icons / general / puzzle">
<path id="Vector" d="M38.4375 20.625H35.625V13.125C35.625 12.1304 35.2299 11.1766 34.5266 10.4733C33.8234 9.77009 32.8696 9.375 31.875 9.375H24.375V6.5625C24.375 5.3193 23.8811 4.12701 23.0021 3.24794C22.123 2.36886 20.9307 1.875 19.6875 1.875C18.4443 1.875 17.252 2.36886 16.3729 3.24794C15.4939 4.12701 15 5.3193 15 6.5625V9.375H7.5C6.50544 9.375 5.55161 9.77009 4.84835 10.4733C4.14509 11.1766 3.75 12.1304 3.75 13.125V20.25H6.5625C9.375 20.25 11.625 22.5 11.625 25.3125C11.625 28.125 9.375 30.375 6.5625 30.375H3.75V37.5C3.75 38.4946 4.14509 39.4484 4.84835 40.1516C5.55161 40.8549 6.50544 41.25 7.5 41.25H14.625V38.4375C14.625 35.625 16.875 33.375 19.6875 33.375C22.5 33.375 24.75 35.625 24.75 38.4375V41.25H31.875C32.8696 41.25 33.8234 40.8549 34.5266 40.1516C35.2299 39.4484 35.625 38.4946 35.625 37.5V30H38.4375C39.6807 30 40.873 29.5061 41.7521 28.6271C42.6311 27.748 43.125 26.5557 43.125 25.3125C43.125 24.0693 42.6311 22.877 41.7521 21.9979C40.873 21.1189 39.6807 20.625 38.4375 20.625Z" fill="#44516F"/>
</g>
</svg>
