<svg width="25" height="25" viewBox="0 0 25 25" fill="none" xmlns="http://www.w3.org/2000/svg">
<g id="icons / general / bookmark">
<path id="Vector" d="M20.3125 2.34375H7.03125C6.20324 2.34633 5.40988 2.67639 4.82439 3.26189C4.23889 3.84738 3.90883 4.64074 3.90625 5.46875V21.875C3.90625 22.0822 3.98856 22.2809 4.13507 22.4274C4.28159 22.5739 4.4803 22.6562 4.6875 22.6562H18.75C18.9572 22.6562 19.1559 22.5739 19.3024 22.4274C19.4489 22.2809 19.5312 22.0822 19.5312 21.875C19.5312 21.6678 19.4489 21.4691 19.3024 21.3226C19.1559 21.1761 18.9572 21.0938 18.75 21.0938H5.46875C5.46875 20.6793 5.63337 20.2819 5.9264 19.9889C6.21942 19.6959 6.61685 19.5312 7.03125 19.5312H20.3125C20.5197 19.5312 20.7184 19.4489 20.8649 19.3024C21.0114 19.1559 21.0938 18.9572 21.0938 18.75V3.125C21.0938 2.9178 21.0114 2.71909 20.8649 2.57257C20.7184 2.42606 20.5197 2.34375 20.3125 2.34375ZM11.7188 3.90625H16.4062V10.9375L14.5312 9.53125C14.3954 9.43131 14.2312 9.3774 14.0625 9.3774C13.8938 9.3774 13.7296 9.43131 13.5938 9.53125L11.7188 10.9375V3.90625ZM19.5312 17.9688H7.03125C6.48271 17.97 5.94404 18.1148 5.46875 18.3887V5.46875C5.46875 5.05435 5.63337 4.65692 5.9264 4.3639C6.21942 4.07087 6.61685 3.90625 7.03125 3.90625H10.1562V12.5C10.1562 12.6451 10.1967 12.7873 10.2729 12.9107C10.3492 13.0341 10.4583 13.1339 10.5881 13.1988C10.7179 13.2637 10.8632 13.2911 11.0077 13.2781C11.1522 13.2651 11.2902 13.2121 11.4063 13.125L14.0625 11.1328L16.7188 13.125C16.8529 13.2284 17.0181 13.2835 17.1875 13.2812C17.3087 13.2787 17.4282 13.2521 17.5391 13.2031C17.6677 13.1359 17.7756 13.0349 17.8513 12.9111C17.927 12.7872 17.9676 12.6451 17.9688 12.5V3.90625H19.5312V17.9688Z" fill="#2A354F"/>
</g>
</svg>
