<svg width="30" height="30" viewBox="0 0 30 30" fill="none" xmlns="http://www.w3.org/2000/svg">
<g id="icons / general / wallet">
<path id="Vector" d="M14.9137 2.5726C15.0685 2.3789 15.2602 2.21783 15.4777 2.09871C15.6952 1.97959 15.9341 1.90478 16.1807 1.87863C16.4272 1.85247 16.6766 1.87548 16.9142 1.94632C17.1518 2.01717 17.373 2.13444 17.565 2.29135L23.6812 7.28635C24.0176 7.56098 24.2482 7.94385 24.3337 8.36959C24.4192 8.79532 24.3543 9.23753 24.15 9.62072C23.6153 9.4573 23.0592 9.37451 22.5 9.3751H21.9375L22.4963 8.7376L19.275 6.10697L16.6181 9.37697H14.2013L17.8219 4.92197L16.3781 3.7426L11.8819 9.3751H9.48188L14.9137 2.5726ZM19.6875 18.7501C19.4389 18.7501 19.2004 18.8489 19.0246 19.0247C18.8488 19.2005 18.75 19.439 18.75 19.6876C18.75 19.9362 18.8488 20.1747 19.0246 20.3505C19.2004 20.5263 19.4389 20.6251 19.6875 20.6251H21.5625C21.8111 20.6251 22.0496 20.5263 22.2254 20.3505C22.4012 20.1747 22.5 19.9362 22.5 19.6876C22.5 19.439 22.4012 19.2005 22.2254 19.0247C22.0496 18.8489 21.8111 18.7501 21.5625 18.7501H19.6875ZM5.625 10.3126C5.625 10.064 5.72377 9.8255 5.89959 9.64969C6.0754 9.47387 6.31386 9.3751 6.5625 9.3751H7.60875L9.09938 7.5001H6.5625C5.81658 7.5001 5.10121 7.79641 4.57376 8.32386C4.04632 8.85131 3.75 9.56668 3.75 10.3126V21.5626C3.75 22.8058 4.24386 23.9981 5.12294 24.8772C6.00201 25.7562 7.1943 26.2501 8.4375 26.2501H22.5C23.4946 26.2501 24.4484 25.855 25.1516 25.1518C25.8549 24.4485 26.25 23.4947 26.25 22.5001V15.0001C26.25 14.0055 25.8549 13.0517 25.1516 12.3484C24.4484 11.6452 23.4946 11.2501 22.5 11.2501H6.5625C6.31386 11.2501 6.0754 11.1513 5.89959 10.9755C5.72377 10.7997 5.625 10.5612 5.625 10.3126ZM5.625 21.5626V12.9657C5.9175 13.0688 6.23438 13.1251 6.5625 13.1251H22.5C22.9973 13.1251 23.4742 13.3226 23.8258 13.6743C24.1775 14.0259 24.375 14.5028 24.375 15.0001V22.5001C24.375 22.9974 24.1775 23.4743 23.8258 23.8259C23.4742 24.1776 22.9973 24.3751 22.5 24.3751H8.4375C7.69158 24.3751 6.97621 24.0788 6.44876 23.5513C5.92132 23.0239 5.625 22.3085 5.625 21.5626Z" fill="#44516F"/>
</g>
</svg>
