<svg width="40" height="40" viewBox="0 0 40 40" fill="none" xmlns="http://www.w3.org/2000/svg">
<g id="icons / general / security">
<path id="Vector" d="M10.0002 13.3334C10.0002 9.65008 12.9835 6.66675 16.6668 6.66675C20.3502 6.66675 23.3335 9.65008 23.3335 13.3334C23.3335 17.0167 20.3502 20.0001 16.6668 20.0001C12.9835 20.0001 10.0002 17.0167 10.0002 13.3334ZM20.0002 30.3334C20.0002 28.7334 20.8335 27.2334 22.0002 26.2334V25.8334C22.0002 25.1834 22.1168 24.5667 22.3002 23.9667C20.5835 23.5667 18.6835 23.3334 16.6668 23.3334C9.30016 23.3334 3.3335 26.3167 3.3335 30.0001V33.3334H20.0002V30.3334ZM36.6668 30.5001V36.3334C36.6668 37.3334 35.6668 38.3334 34.5002 38.3334H25.3335C24.3335 38.3334 23.3335 37.3334 23.3335 36.1667V30.3334C23.3335 29.3334 24.3335 28.3334 25.3335 28.3334V25.8334C25.3335 23.5001 27.6668 21.6667 30.0002 21.6667C32.3335 21.6667 34.6668 23.5001 34.6668 25.8334V28.3334C35.6668 28.3334 36.6668 29.3334 36.6668 30.5001ZM32.5002 25.8334C32.5002 24.5001 31.3335 23.6667 30.0002 23.6667C28.6668 23.6667 27.5002 24.5001 27.5002 25.8334V28.3334H32.5002V25.8334Z" fill="#44516F"/>
</g>
</svg>
