<svg width="20" height="20" viewBox="0 0 20 20" fill="none" xmlns="http://www.w3.org/2000/svg">
<path d="M10.8533 1.10033C11.0768 1.32383 11.1938 1.6083 11.2044 1.95372C11.2142 2.29915 11.1073 2.58362 10.8838 2.80713L4.90996 8.78094H18.5339C18.8793 8.78094 19.1691 8.89798 19.4032 9.13205C19.6364 9.36532 19.7531 9.65466 19.7531 10.0001C19.7531 10.3455 19.6364 10.6353 19.4032 10.8693C19.1691 11.1026 18.8793 11.2192 18.5339 11.2192H4.90996L10.8838 17.193C11.1073 17.4165 11.2142 17.701 11.2044 18.0464C11.1938 18.3919 11.0768 18.6763 10.8533 18.8998C10.6298 19.1234 10.3453 19.2351 9.99989 19.2351C9.65447 19.2351 9.37 19.1234 9.14649 18.8998L1.10013 10.8535C0.978217 10.7519 0.891658 10.6251 0.840453 10.4731C0.790061 10.3203 0.764865 10.1626 0.764865 10.0001C0.764865 9.83753 0.790061 9.68514 0.840453 9.5429C0.891658 9.40067 0.978217 9.2686 1.10013 9.14668L9.14649 1.10033C9.37 0.876815 9.65447 0.765058 9.99989 0.765058C10.3453 0.765058 10.6298 0.876815 10.8533 1.10033Z" fill="#2A354F"/>
</svg>
