<svg width="40" height="40" viewBox="0 0 40 40" fill="none" xmlns="http://www.w3.org/2000/svg">
<g id="icons / general / eye">
<path id="Vector" d="M19.9998 7.5C11.6665 7.5 4.54984 12.6833 1.6665 20C4.54984 27.3167 11.6665 32.5 19.9998 32.5C28.3332 32.5 35.4498 27.3167 38.3332 20C35.4498 12.6833 28.3332 7.5 19.9998 7.5ZM19.9998 28.3333C15.3998 28.3333 11.6665 24.6 11.6665 20C11.6665 15.4 15.3998 11.6667 19.9998 11.6667C24.5998 11.6667 28.3332 15.4 28.3332 20C28.3332 24.6 24.5998 28.3333 19.9998 28.3333ZM19.9998 15C17.2332 15 14.9998 17.2333 14.9998 20C14.9998 22.7667 17.2332 25 19.9998 25C22.7665 25 24.9998 22.7667 24.9998 20C24.9998 17.2333 22.7665 15 19.9998 15Z" fill="#44516F"/>
</g>
</svg>
