<svg width="30" height="30" viewBox="0 0 30 30" fill="none" xmlns="http://www.w3.org/2000/svg">
<g id="icons / general / file-medical">
<path id="Vector" d="M22.5 22.5C22.1685 22.5 21.8505 22.6317 21.6161 22.8661C21.3817 23.1005 21.25 23.4185 21.25 23.75C21.25 24.0815 21.1183 24.3995 20.8839 24.6339C20.6495 24.8683 20.3315 25 20 25H7.5C7.16848 25 6.85054 24.8683 6.61612 24.6339C6.3817 24.3995 6.25 24.0815 6.25 23.75V6.25C6.25 5.91848 6.3817 5.60054 6.61612 5.36612C6.85054 5.1317 7.16848 5 7.5 5H13.75V8.75C13.75 9.74456 14.1451 10.6984 14.8483 11.4017C15.5516 12.1049 16.5054 12.5 17.5 12.5H21.25V13.75C21.25 14.0815 21.3817 14.3995 21.6161 14.6339C21.8505 14.8683 22.1685 15 22.5 15C22.8315 15 23.1495 14.8683 23.3839 14.6339C23.6183 14.3995 23.75 14.0815 23.75 13.75V11.175C23.737 11.0602 23.7118 10.947 23.675 10.8375C23.6803 10.8002 23.6803 10.7623 23.675 10.725C23.6149 10.5965 23.5347 10.4783 23.4375 10.375L15.9375 2.875C15.8342 2.77777 15.716 2.6976 15.5875 2.6375H15.4625C15.3446 2.57429 15.2183 2.528 15.0875 2.5H7.5C6.50544 2.5 5.55161 2.89509 4.84835 3.59835C4.14509 4.30161 3.75 5.25544 3.75 6.25V23.75C3.75 24.7446 4.14509 25.6984 4.84835 26.4017C5.55161 27.1049 6.50544 27.5 7.5 27.5H20C20.9946 27.5 21.9484 27.1049 22.6517 26.4017C23.3549 25.6984 23.75 24.7446 23.75 23.75C23.75 23.4185 23.6183 23.1005 23.3839 22.8661C23.1495 22.6317 22.8315 22.5 22.5 22.5ZM16.25 6.7625L19.4875 10H17.5C17.1685 10 16.8505 9.8683 16.6161 9.63388C16.3817 9.39946 16.25 9.08152 16.25 8.75V6.7625ZM25 17.5H21.875C21.7105 17.499 21.5474 17.5306 21.3951 17.5928C21.2428 17.655 21.1043 17.7466 20.9875 17.8625L19.4375 19.425L15.9375 15.425C15.8249 15.296 15.687 15.1915 15.5324 15.118C15.3778 15.0445 15.2097 15.0036 15.0386 14.9977C14.8675 14.9919 14.697 15.0212 14.5377 15.084C14.3784 15.1467 14.2336 15.2415 14.1125 15.3625L11.9875 17.5H10C9.66848 17.5 9.35054 17.6317 9.11612 17.8661C8.8817 18.1005 8.75 18.4185 8.75 18.75C8.75 19.0815 8.8817 19.3995 9.11612 19.6339C9.35054 19.8683 9.66848 20 10 20H12.5C12.6645 20.001 12.8276 19.9694 12.9799 19.9072C13.1322 19.845 13.2707 19.7534 13.3875 19.6375L15 18.075L18.5 22.075C18.6129 22.2037 18.7511 22.3078 18.9059 22.3809C19.0607 22.454 19.2289 22.4946 19.4 22.5C19.5645 22.501 19.7276 22.4694 19.8799 22.4072C20.0322 22.345 20.1707 22.2534 20.2875 22.1375L22.3875 20H25C25.3315 20 25.6495 19.8683 25.8839 19.6339C26.1183 19.3995 26.25 19.0815 26.25 18.75C26.25 18.4185 26.1183 18.1005 25.8839 17.8661C25.6495 17.6317 25.3315 17.5 25 17.5Z" fill="#44516F"/>
</g>
</svg>
