<svg width="30" height="30" viewBox="0 0 30 30" fill="none" xmlns="http://www.w3.org/2000/svg">
<g id="icons / general / shop">
<path id="Vector" d="M22.4997 2.5C22.7161 2.49979 22.9259 2.57443 23.0935 2.71125L23.1872 2.79875L27.2785 7.21125L27.316 7.25875C27.4435 7.42875 27.501 7.62125 27.501 7.80875L27.4985 10.2088C27.4985 11.4513 27.026 12.5838 26.2485 13.4338V26.5625C26.2485 26.789 26.1664 27.0079 26.0175 27.1787C25.8686 27.3494 25.6629 27.4604 25.4385 27.4913L25.311 27.5H4.68974C4.46297 27.5003 4.24379 27.4184 4.07279 27.2695C3.9018 27.1205 3.79057 26.9147 3.75973 26.69L3.75224 26.5625L3.74973 13.435C3.01062 12.6261 2.57233 11.5876 2.50848 10.4938L2.49974 10.2088V7.8625C2.48887 7.68441 2.5306 7.50706 2.61973 7.3525L2.70099 7.23375L2.75098 7.17625L6.81223 2.8C6.95898 2.64161 7.15591 2.53874 7.36973 2.50875L7.49973 2.5H22.4997ZM18.8522 13.0525L18.8372 13.075C18.3918 13.6727 17.8128 14.158 17.1466 14.4922C16.4803 14.8264 15.7451 15.0003 14.9997 15C14.2497 15.0007 13.51 14.8251 12.8403 14.4872C12.1707 14.1493 11.5898 13.6587 11.1447 13.055C10.7 13.6585 10.1196 14.149 9.45042 14.4869C8.7812 14.8248 8.04191 15.0005 7.29223 15C6.70598 15 6.14473 14.895 5.62473 14.7025L5.62598 25.625H7.49973V17.19C7.49979 16.9633 7.58201 16.7442 7.73116 16.5735C7.88032 16.4027 8.08632 16.2918 8.31099 16.2613L8.43723 16.25H14.0572C14.2838 16.25 14.5027 16.3321 14.6734 16.481C14.8441 16.6299 14.9552 16.8356 14.986 17.06L14.9947 17.1875V25.6225H24.3722V14.7013C23.3978 15.0633 22.332 15.0981 21.336 14.8004C20.34 14.5027 19.4681 13.8887 18.8522 13.0513V13.0525ZM13.1185 18.1263H9.37473V25.6238H13.1185V18.1263ZM21.5685 16.2513C21.795 16.2513 22.0139 16.3333 22.1846 16.4822C22.3554 16.6311 22.4664 16.8368 22.4972 17.0613L22.506 17.1888V21.5663C22.506 21.7928 22.4239 22.0117 22.275 22.1824C22.1261 22.3531 21.9204 22.4642 21.696 22.495L21.5685 22.5038H17.1922C16.9657 22.5037 16.7468 22.4217 16.5761 22.2728C16.4053 22.1239 16.2943 21.9182 16.2635 21.6938L16.2547 21.5663V17.1888C16.2547 16.9622 16.3368 16.7433 16.4857 16.5726C16.6346 16.4019 16.8403 16.2908 17.0647 16.26L17.1922 16.2513H21.5685ZM20.631 18.1263H18.1285V20.6288H20.6297V18.1263H20.631ZM10.206 8.7525H4.37598V10.2088L4.38473 10.4213L4.41974 10.7113L4.46099 10.9063L4.52348 11.1213L4.59099 11.3063L4.64099 11.4238C4.67974 11.5088 4.72349 11.5913 4.76974 11.6713L4.89848 11.8738L4.96599 11.9663L5.12724 12.1613L5.30473 12.3413L5.42474 12.4475L5.47723 12.49C5.87098 12.8025 6.34598 13.0175 6.86723 13.0938L7.09223 13.1175L7.29223 13.1238C8.03103 13.1239 8.74231 12.8435 9.28228 12.3393C9.82225 11.835 10.1506 11.1446 10.201 10.4075L10.2085 10.2075V8.75375L10.206 8.7525ZM17.9122 8.7525H12.0822V10.2088C12.0822 11.6838 13.1797 12.905 14.6035 13.0975L14.7985 13.1175L14.9985 13.1238C15.7373 13.1239 16.4486 12.8435 16.9885 12.3393C17.5285 11.835 17.8569 11.1446 17.9072 10.4075L17.9147 10.2075V8.75375L17.9122 8.7525ZM25.621 8.7525H19.7897L19.791 10.2088C19.791 11.6838 20.8885 12.905 22.311 13.0975L22.5072 13.1175L22.7072 13.1238C23.4122 13.1238 24.0585 12.8738 24.5635 12.4563L24.676 12.3588L24.821 12.2175L25.0035 12.005C25.071 11.9188 25.1335 11.83 25.191 11.735L25.321 11.5025L25.3997 11.33L25.4722 11.1363L25.5097 11.0163L25.5572 10.8263L25.5922 10.63L25.6147 10.4213L25.6222 10.2088V8.7525H25.621ZM11.3272 4.37375H7.90848L5.58723 6.8775H10.5585L11.3285 4.37375H11.3272ZM16.711 4.37375H13.2885L12.5185 6.8775H17.481L16.711 4.37375V4.37375ZM22.0897 4.37375H18.6722L19.4422 6.8775H24.4122L22.0897 4.37375V4.37375Z" fill="#44516F"/>
</g>
</svg>
