<svg width="10" height="10" viewBox="0 0 10 10" fill="none" xmlns="http://www.w3.org/2000/svg">
<g id="icons / footer / on">
<path id="Vector" d="M5 5.0026C4.88194 5.0026 4.78306 4.9626 4.70333 4.8826C4.62333 4.80288 4.58333 4.70399 4.58333 4.58594V1.2526C4.58333 1.13455 4.62333 1.03552 4.70333 0.955521C4.78306 0.875799 4.88194 0.835938 5 0.835938C5.11806 0.835938 5.21708 0.875799 5.29708 0.955521C5.37681 1.03552 5.41667 1.13455 5.41667 1.2526V4.58594C5.41667 4.70399 5.37681 4.80288 5.29708 4.8826C5.21708 4.9626 5.11806 5.0026 5 5.0026ZM5 8.7526C4.47917 8.7526 3.99139 8.65372 3.53667 8.45594C3.08167 8.25788 2.68583 7.99038 2.34917 7.65344C2.01222 7.31677 1.74472 6.92094 1.54667 6.46594C1.34889 6.01122 1.25 5.52344 1.25 5.0026C1.25 4.5651 1.32125 4.14677 1.46375 3.7476C1.60597 3.34816 1.80556 2.98872 2.0625 2.66927C2.13889 2.57205 2.23611 2.5251 2.35417 2.52844C2.47222 2.53205 2.57639 2.57899 2.66667 2.66927C2.74306 2.74566 2.77778 2.83941 2.77083 2.95052C2.76389 3.06163 2.72569 3.1658 2.65625 3.26302C2.47569 3.50608 2.33514 3.7751 2.23458 4.0701C2.13375 4.36538 2.08333 4.67622 2.08333 5.0026C2.08333 5.8151 2.36639 6.50427 2.9325 7.07011C3.49833 7.63622 4.1875 7.91927 5 7.91927C5.8125 7.91927 6.50167 7.63622 7.0675 7.07011C7.63361 6.50427 7.91667 5.8151 7.91667 5.0026C7.91667 4.67622 7.86639 4.36191 7.76583 4.05969C7.665 3.75774 7.52083 3.48524 7.33333 3.24219C7.26389 3.15191 7.22569 3.05288 7.21875 2.9451C7.21181 2.8376 7.24653 2.74566 7.32292 2.66927C7.40625 2.58594 7.50694 2.54247 7.625 2.53885C7.74305 2.53552 7.84028 2.57899 7.91667 2.66927C8.18056 2.98872 8.38542 3.34816 8.53125 3.7476C8.67708 4.14677 8.75 4.5651 8.75 5.0026C8.75 5.52344 8.65111 6.01122 8.45333 6.46594C8.25528 6.92094 7.98792 7.31677 7.65125 7.65344C7.31431 7.99038 6.91847 8.25788 6.46375 8.45594C6.00875 8.65372 5.52083 8.7526 5 8.7526Z" fill="#2A354F"/>
</g>
</svg>
