<svg width="40" height="40" viewBox="0 0 40 40" fill="none" xmlns="http://www.w3.org/2000/svg">
<g id="icons / general / computer">
<path id="Vector" d="M3.33317 35C2.86095 35 2.46539 34.84 2.1465 34.52C1.8265 34.2011 1.6665 33.8056 1.6665 33.3333C1.6665 32.8611 1.8265 32.4656 2.1465 32.1467C2.46539 31.8267 2.86095 31.6667 3.33317 31.6667H36.6665C37.1387 31.6667 37.5343 31.8267 37.8532 32.1467C38.1732 32.4656 38.3332 32.8611 38.3332 33.3333C38.3332 33.8056 38.1732 34.2011 37.8532 34.52C37.5343 34.84 37.1387 35 36.6665 35H3.33317ZM6.6665 30C5.74984 30 4.96539 29.6739 4.31317 29.0217C3.65984 28.3683 3.33317 27.5833 3.33317 26.6667V8.33333C3.33317 7.41667 3.65984 6.63167 4.31317 5.97833C4.96539 5.32611 5.74984 5 6.6665 5H33.3332C34.2498 5 35.0348 5.32611 35.6882 5.97833C36.3404 6.63167 36.6665 7.41667 36.6665 8.33333V26.6667C36.6665 27.5833 36.3404 28.3683 35.6882 29.0217C35.0348 29.6739 34.2498 30 33.3332 30H6.6665Z" fill="#44516F"/>
</g>
</svg>
