<svg width="25" height="25" viewBox="0 0 25 25" fill="none" xmlns="http://www.w3.org/2000/svg">
<g id="icons / general / checkbox">
<path id="Vector" d="M12.4997 22.9168C6.74655 22.9168 2.08301 18.2533 2.08301 12.5002C2.08301 6.74704 6.74655 2.0835 12.4997 2.0835C18.2528 2.0835 22.9163 6.74704 22.9163 12.5002C22.9163 18.2533 18.2528 22.9168 12.4997 22.9168ZM12.4997 20.8335C14.7098 20.8335 16.8294 19.9555 18.3922 18.3927C19.955 16.8299 20.833 14.7103 20.833 12.5002C20.833 10.29 19.955 8.17041 18.3922 6.60761C16.8294 5.0448 14.7098 4.16683 12.4997 4.16683C10.2895 4.16683 8.16992 5.0448 6.60712 6.60761C5.04431 8.17041 4.16634 10.29 4.16634 12.5002C4.16634 14.7103 5.04431 16.8299 6.60712 18.3927C8.16992 19.9555 10.2895 20.8335 12.4997 20.8335ZM11.4611 16.6668L7.04134 12.247L8.51426 10.7741L11.4611 13.721L17.3528 7.82829L18.8268 9.3012L11.4611 16.6668Z" fill="#2A354F"/>
</g>
</svg>
