<svg width="30" height="30" viewBox="0 0 30 30" fill="none" xmlns="http://www.w3.org/2000/svg">
<g id="icons / general / plus">
<path id="Vector" d="M22.5 16.2476H16.25V22.4976C16.25 22.8291 16.1183 23.147 15.8839 23.3814C15.6495 23.6159 15.3315 23.7476 15 23.7476C14.6685 23.7476 14.3505 23.6159 14.1161 23.3814C13.8817 23.147 13.75 22.8291 13.75 22.4976V16.2476H7.5C7.16848 16.2476 6.85054 16.1159 6.61612 15.8814C6.3817 15.647 6.25 15.3291 6.25 14.9976C6.25 14.666 6.3817 14.3481 6.61612 14.1137C6.85054 13.8793 7.16848 13.7476 7.5 13.7476H13.75V7.49756C13.75 7.16604 13.8817 6.8481 14.1161 6.61367C14.3505 6.37925 14.6685 6.24756 15 6.24756C15.3315 6.24756 15.6495 6.37925 15.8839 6.61367C16.1183 6.8481 16.25 7.16604 16.25 7.49756V13.7476H22.5C22.8315 13.7476 23.1495 13.8793 23.3839 14.1137C23.6183 14.3481 23.75 14.666 23.75 14.9976C23.75 15.3291 23.6183 15.647 23.3839 15.8814C23.1495 16.1159 22.8315 16.2476 22.5 16.2476Z" fill="#2A354F"/>
</g>
</svg>
