<svg width="22" height="22" viewBox="0 0 22 22" fill="none" xmlns="http://www.w3.org/2000/svg">
<path d="M14.5882 14.2581L6.59417 6.24151C6.41403 6.06137 6.19995 5.97129 5.95195 5.97129C5.70455 5.97129 5.49077 6.06137 5.31063 6.24151C5.13048 6.42166 5.04041 6.63573 5.04041 6.88374C5.04041 7.13114 5.13048 7.34491 5.31063 7.52506L13.3272 15.5191H6.48158C6.22637 15.5191 6.0123 15.6053 5.83936 15.7776C5.66702 15.9505 5.58085 16.1646 5.58085 16.4198C5.58085 16.675 5.66702 16.8891 5.83936 17.062C6.0123 17.2344 6.22637 17.3206 6.48158 17.3206H15.4889C15.7441 17.3206 15.9579 17.2344 16.1303 17.062C16.3032 16.8891 16.3897 16.675 16.3897 16.4198V7.41247C16.3897 7.15726 16.3032 6.94349 16.1303 6.77115C15.9579 6.5982 15.7441 6.51173 15.4889 6.51173C15.2337 6.51173 15.02 6.5982 14.8476 6.77115C14.6747 6.94349 14.5882 7.15726 14.5882 7.41247V14.2581Z" fill="#2A354F"/>
</svg>
