<svg width="23" height="22" viewBox="0 0 23 22" fill="none" xmlns="http://www.w3.org/2000/svg">
<path d="M7.66935 7.77124L15.9818 15.7878C16.1691 15.9679 16.3917 16.058 16.6496 16.058C16.9068 16.058 17.1291 15.9679 17.3164 15.7878C17.5038 15.6076 17.5974 15.3936 17.5974 15.1456C17.5974 14.8982 17.5038 14.6844 17.3164 14.5042L8.9806 6.51021L16.0988 6.51021C16.3642 6.51021 16.5868 6.42404 16.7666 6.2517C16.9458 6.07876 17.0354 5.86468 17.0354 5.60948C17.0354 5.35427 16.9458 5.14019 16.7666 4.96725C16.5868 4.79491 16.3642 4.70874 16.0988 4.70874L6.73274 4.70874C6.46737 4.70874 6.24508 4.79491 6.06588 4.96725C5.88605 5.14019 5.79613 5.35427 5.79613 5.60948L5.79613 14.6168C5.79613 14.872 5.88605 15.0858 6.06588 15.2582C6.24508 15.4311 6.46737 15.5176 6.73274 15.5176C6.99811 15.5176 7.2204 15.4311 7.39961 15.2582C7.57944 15.0858 7.66935 14.872 7.66935 14.6168L7.66935 7.77124Z" fill="#2A354F"/>
</svg>
