<svg width="30" height="30" viewBox="0 0 30 30" fill="none" xmlns="http://www.w3.org/2000/svg">
<g id="icons / general / iot">
<path id="Vector" d="M23.75 5.61384C23.7502 6.07863 23.6467 6.53761 23.4471 6.95734C23.2474 7.37707 22.9567 7.74699 22.596 8.04013C22.2353 8.33328 21.8138 8.54228 21.3621 8.65191C20.9104 8.76153 20.44 8.76902 19.985 8.67384L18.385 11.3201C18.9039 11.7961 19.316 12.3766 19.5944 13.0234C19.8727 13.6702 20.011 14.3685 20 15.0726L21.62 15.3976C21.9726 14.7395 22.5491 14.2295 23.2452 13.9597C23.9413 13.6899 24.711 13.6782 25.415 13.9267C26.1189 14.1753 26.7107 14.6677 27.083 15.3147C27.4554 15.9617 27.5839 16.7207 27.4451 17.4543C27.3064 18.1878 26.9096 18.8474 26.3266 19.3138C25.7436 19.7801 25.013 20.0223 24.2668 19.9966C23.5207 19.9709 22.8085 19.6789 22.259 19.1735C21.7096 18.6681 21.3592 17.9827 21.2713 17.2413L19.6225 16.9088C19.1917 17.9484 18.4239 18.8131 17.4425 19.3638L18.0613 21.2526H18.125C18.8689 21.2523 19.5885 21.5174 20.1545 22.0002C20.7204 22.483 21.0955 23.1519 21.2124 23.8865C21.3293 24.6212 21.1803 25.3734 20.7922 26.008C20.4041 26.6426 19.8023 27.118 19.0951 27.3486C18.3878 27.5792 17.6215 27.55 16.9339 27.2662C16.2463 26.9823 15.6825 26.4625 15.3438 25.8002C15.0052 25.1378 14.9139 24.3764 15.0864 23.6528C15.259 22.9292 15.684 22.2909 16.285 21.8526L15.6638 19.9563C14.7753 20.0761 13.8709 19.9544 13.0456 19.6041C12.2204 19.2537 11.5047 18.6875 10.9738 17.9651L8.73129 19.0251C8.81496 19.767 8.63027 20.5143 8.21064 21.1318C7.79101 21.7493 7.16418 22.1961 6.44361 22.3914C5.72304 22.5868 4.95635 22.5177 4.28231 22.1967C3.60826 21.8757 3.07142 21.324 2.76894 20.6414C2.46647 19.9588 2.41835 19.1905 2.6333 18.4756C2.84825 17.7606 3.31206 17.1462 3.94079 16.7436C4.56951 16.341 5.32159 16.1768 6.0609 16.2807C6.80022 16.3846 7.4779 16.7498 7.97129 17.3101L10.1638 16.2738C9.96228 15.5063 9.94605 14.7019 10.1164 13.9269C10.2868 13.1519 10.6389 12.4285 11.1438 11.8163L9.90504 10.4038C9.21134 10.6797 8.44179 10.6982 7.73568 10.4558C7.02956 10.2135 6.43354 9.72632 6.05549 9.08257C5.67743 8.43883 5.54233 7.681 5.67463 6.94627C5.80693 6.21154 6.19788 5.54844 6.77674 5.077C7.3556 4.60556 8.08411 4.35692 8.83041 4.37609C9.57672 4.39527 10.2915 4.68098 10.8454 5.18152C11.3993 5.68206 11.7557 6.36435 11.8501 7.10491C11.9445 7.84546 11.7706 8.59535 11.36 9.21884L12.5875 10.6188C13.3263 10.2115 14.1564 9.99856 15 10.0001C15.6313 10.0001 16.2363 10.1163 16.7925 10.3313L18.3488 7.75634C17.9995 7.38499 17.7464 6.93383 17.6114 6.4422C17.4765 5.95056 17.464 5.43339 17.5748 4.93578C17.6856 4.43817 17.9166 3.97523 18.2474 3.58734C18.5782 3.19945 18.9989 2.89839 19.4728 2.71042C19.9467 2.52244 20.4594 2.45326 20.9661 2.5089C21.4729 2.56455 21.9583 2.74333 22.3801 3.02965C22.802 3.31598 23.1473 3.70115 23.3861 4.15159C23.6249 4.60202 23.7498 5.10403 23.75 5.61384V5.61384ZM21.875 5.61384C21.875 5.28231 21.7433 4.96437 21.5089 4.72995C21.2745 4.49553 20.9566 4.36384 20.625 4.36384C20.2935 4.36384 19.9756 4.49553 19.7412 4.72995C19.5067 4.96437 19.375 5.28231 19.375 5.61384C19.375 5.94536 19.5067 6.2633 19.7412 6.49772C19.9756 6.73214 20.2935 6.86384 20.625 6.86384C20.9566 6.86384 21.2745 6.73214 21.5089 6.49772C21.7433 6.2633 21.875 5.94536 21.875 5.61384ZM8.75004 8.75009C9.08156 8.75009 9.3995 8.61839 9.63392 8.38397C9.86834 8.14955 10 7.83161 10 7.50009C10 7.16856 9.86834 6.85062 9.63392 6.6162C9.3995 6.38178 9.08156 6.25009 8.75004 6.25009C8.41852 6.25009 8.10058 6.38178 7.86616 6.6162C7.63174 6.85062 7.50004 7.16856 7.50004 7.50009C7.50004 7.83161 7.63174 8.14955 7.86616 8.38397C8.10058 8.61839 8.41852 8.75009 8.75004 8.75009ZM15 18.1251C15.8288 18.1251 16.6237 17.7958 17.2098 17.2098C17.7958 16.6237 18.125 15.8289 18.125 15.0001C18.125 14.1713 17.7958 13.3764 17.2098 12.7904C16.6237 12.2043 15.8288 11.8751 15 11.8751C14.1712 11.8751 13.3764 12.2043 12.7903 12.7904C12.2043 13.3764 11.875 14.1713 11.875 15.0001C11.875 15.8289 12.2043 16.6237 12.7903 17.2098C13.3764 17.7958 14.1712 18.1251 15 18.1251ZM6.87504 19.3751C6.87504 19.0436 6.74335 18.7256 6.50892 18.4912C6.2745 18.2568 5.95656 18.1251 5.62504 18.1251C5.29352 18.1251 4.97558 18.2568 4.74116 18.4912C4.50674 18.7256 4.37504 19.0436 4.37504 19.3751C4.37504 19.7066 4.50674 20.0245 4.74116 20.259C4.97558 20.4934 5.29352 20.6251 5.62504 20.6251C5.95656 20.6251 6.2745 20.4934 6.50892 20.259C6.74335 20.0245 6.87504 19.7066 6.87504 19.3751ZM19.375 24.3776C19.375 24.0461 19.2433 23.7281 19.0089 23.4937C18.7745 23.2593 18.4566 23.1276 18.125 23.1276C17.7935 23.1276 17.4756 23.2593 17.2412 23.4937C17.0067 23.7281 16.875 24.0461 16.875 24.3776C16.875 24.7091 17.0067 25.027 17.2412 25.2615C17.4756 25.4959 17.7935 25.6276 18.125 25.6276C18.4566 25.6276 18.7745 25.4959 19.0089 25.2615C19.2433 25.027 19.375 24.7091 19.375 24.3776ZM24.375 18.1251C24.7066 18.1251 25.0245 17.9934 25.2589 17.759C25.4933 17.5245 25.625 17.2066 25.625 16.8751C25.625 16.5436 25.4933 16.2256 25.2589 15.9912C25.0245 15.7568 24.7066 15.6251 24.375 15.6251C24.0435 15.6251 23.7256 15.7568 23.4912 15.9912C23.2567 16.2256 23.125 16.5436 23.125 16.8751C23.125 17.2066 23.2567 17.5245 23.4912 17.759C23.7256 17.9934 24.0435 18.1251 24.375 18.1251Z" fill="#44516F"/>
</g>
</svg>
