<svg width="17" height="17" viewBox="0 0 17 17" fill="none" xmlns="http://www.w3.org/2000/svg">
<g id="icons / form / telephone" clip-path="url(#clip0_1393_1465)">
<path id="Vector" fill-rule="evenodd" clip-rule="evenodd" d="M2.00331 0.543032C2.18922 0.357402 2.41246 0.213401 2.65823 0.120572C2.90401 0.0277431 3.1667 -0.0117936 3.42891 0.00458185C3.69112 0.0209573 3.94685 0.092871 4.17917 0.215557C4.41148 0.338244 4.61507 0.508901 4.77644 0.71622L6.68363 3.16635C7.03319 3.61578 7.15644 4.20122 7.01831 4.75372L6.43713 7.0806C6.40708 7.20111 6.4087 7.32735 6.44184 7.44706C6.47498 7.56677 6.5385 7.67587 6.62625 7.76378L9.23681 10.3743C9.32483 10.4623 9.43411 10.5259 9.55402 10.559C9.67394 10.5922 9.80039 10.5937 9.92106 10.5635L12.2469 9.98228C12.5195 9.91411 12.8041 9.90882 13.0791 9.9668C13.3541 10.0248 13.6123 10.1445 13.8343 10.317L16.2844 12.2231C17.1652 12.9084 17.2459 14.21 16.4576 14.9973L15.3589 16.0959C14.5727 16.8822 13.3976 17.2275 12.3021 16.8418C9.49838 15.8553 6.95273 14.2502 4.854 12.1455C2.74949 10.0471 1.1444 7.50183 0.15775 4.69847C-0.226875 3.60409 0.118438 2.42791 0.904688 1.64166L2.00331 0.543032Z" fill="#44516F"/>
</g>
<defs>
<clipPath id="clip0_1393_1465">
<rect width="17" height="17" fill="white"/>
</clipPath>
</defs>
</svg>
