<svg width="25" height="25" viewBox="0 0 25 25" fill="none" xmlns="http://www.w3.org/2000/svg">
<g id="icons / general / people">
<path id="Vector" d="M23.4375 21.875C23.4375 21.875 25 21.875 25 20.3125C25 18.75 23.4375 14.0625 17.1875 14.0625C10.9375 14.0625 9.375 18.75 9.375 20.3125C9.375 21.875 10.9375 21.875 10.9375 21.875H23.4375ZM10.9719 20.3125C10.9603 20.3109 10.9489 20.3088 10.9375 20.3062C10.9391 19.8937 11.1984 18.6969 12.125 17.6187C12.9875 16.6078 14.5031 15.625 17.1875 15.625C19.8703 15.625 21.3859 16.6094 22.25 17.6187C23.1766 18.6969 23.4344 19.8953 23.4375 20.3062L23.425 20.3094C23.4177 20.3106 23.4104 20.3116 23.4031 20.3125H10.9719ZM17.1875 10.9375C18.0163 10.9375 18.8112 10.6083 19.3972 10.0222C19.9833 9.43616 20.3125 8.6413 20.3125 7.8125C20.3125 6.9837 19.9833 6.18884 19.3972 5.60279C18.8112 5.01674 18.0163 4.6875 17.1875 4.6875C16.3587 4.6875 15.5638 5.01674 14.9778 5.60279C14.3917 6.18884 14.0625 6.9837 14.0625 7.8125C14.0625 8.6413 14.3917 9.43616 14.9778 10.0222C15.5638 10.6083 16.3587 10.9375 17.1875 10.9375ZM21.875 7.8125C21.875 8.42807 21.7538 9.03761 21.5182 9.60633C21.2826 10.175 20.9373 10.6918 20.5021 11.1271C20.0668 11.5623 19.55 11.9076 18.9813 12.1432C18.4126 12.3788 17.8031 12.5 17.1875 12.5C16.5719 12.5 15.9624 12.3788 15.3937 12.1432C14.825 11.9076 14.3082 11.5623 13.8729 11.1271C13.4377 10.6918 13.0924 10.175 12.8568 9.60633C12.6212 9.03761 12.5 8.42807 12.5 7.8125C12.5 6.5693 12.9939 5.37701 13.8729 4.49794C14.752 3.61886 15.9443 3.125 17.1875 3.125C18.4307 3.125 19.623 3.61886 20.5021 4.49794C21.3811 5.37701 21.875 6.5693 21.875 7.8125ZM10.8375 14.5C10.2125 14.3032 9.56818 14.1738 8.91562 14.1141C8.54896 14.0792 8.18082 14.062 7.8125 14.0625C1.5625 14.0625 0 18.75 0 20.3125C0 21.3547 0.520313 21.875 1.5625 21.875H8.15C7.91837 21.3872 7.80285 20.8524 7.8125 20.3125C7.8125 18.7344 8.40156 17.1219 9.51562 15.775C9.89531 15.3156 10.3375 14.8859 10.8375 14.5ZM7.6875 15.625C6.76274 17.0145 6.26319 18.6435 6.25 20.3125H1.5625C1.5625 19.9062 1.81875 18.7031 2.75 17.6187C3.60156 16.625 5.08125 15.6563 7.6875 15.6266V15.625ZM2.34375 8.59375C2.34375 7.35055 2.83761 6.15826 3.71669 5.27919C4.59576 4.40011 5.78805 3.90625 7.03125 3.90625C8.27445 3.90625 9.46674 4.40011 10.3458 5.27919C11.2249 6.15826 11.7188 7.35055 11.7188 8.59375C11.7188 9.83695 11.2249 11.0292 10.3458 11.9083C9.46674 12.7874 8.27445 13.2812 7.03125 13.2812C5.78805 13.2812 4.59576 12.7874 3.71669 11.9083C2.83761 11.0292 2.34375 9.83695 2.34375 8.59375ZM7.03125 5.46875C6.20245 5.46875 5.40759 5.79799 4.82154 6.38404C4.23549 6.97009 3.90625 7.76495 3.90625 8.59375C3.90625 9.42255 4.23549 10.2174 4.82154 10.8035C5.40759 11.3895 6.20245 11.7188 7.03125 11.7188C7.86005 11.7188 8.65491 11.3895 9.24096 10.8035C9.82701 10.2174 10.1562 9.42255 10.1562 8.59375C10.1562 7.76495 9.82701 6.97009 9.24096 6.38404C8.65491 5.79799 7.86005 5.46875 7.03125 5.46875Z" fill="#2A354F"/>
</g>
</svg>
