<svg width="30" height="30" viewBox="0 0 30 30" fill="none" xmlns="http://www.w3.org/2000/svg">
<g id="icons / general / shopping">
<path id="Vector" d="M8.75 27.5C8.0625 27.5 7.47417 27.2554 6.985 26.7663C6.495 26.2763 6.25 25.6875 6.25 25C6.25 24.3125 6.495 23.7237 6.985 23.2337C7.47417 22.7446 8.0625 22.5 8.75 22.5C9.4375 22.5 10.0258 22.7446 10.515 23.2337C11.005 23.7237 11.25 24.3125 11.25 25C11.25 25.6875 11.005 26.2763 10.515 26.7663C10.0258 27.2554 9.4375 27.5 8.75 27.5ZM21.25 27.5C20.5625 27.5 19.9742 27.2554 19.485 26.7663C18.995 26.2763 18.75 25.6875 18.75 25C18.75 24.3125 18.995 23.7237 19.485 23.2337C19.9742 22.7446 20.5625 22.5 21.25 22.5C21.9375 22.5 22.5263 22.7446 23.0163 23.2337C23.5054 23.7237 23.75 24.3125 23.75 25C23.75 25.6875 23.5054 26.2763 23.0163 26.7663C22.5263 27.2554 21.9375 27.5 21.25 27.5ZM7.6875 7.5L10.6875 13.75H19.4375L22.875 7.5H7.6875ZM6.5 5H24.9375C25.4167 5 25.7812 5.21333 26.0312 5.64C26.2812 6.0675 26.2917 6.5 26.0625 6.9375L21.625 14.9375C21.3958 15.3542 21.0883 15.6771 20.7025 15.9062C20.3175 16.1354 19.8958 16.25 19.4375 16.25H10.125L8.75 18.75H23.75V21.25H8.75C7.8125 21.25 7.10417 20.8383 6.625 20.015C6.14583 19.1925 6.125 18.375 6.5625 17.5625L8.25 14.5L3.75 5H1.25V2.5H5.3125L6.5 5ZM10.6875 13.75H19.4375H10.6875Z" fill="#44516F"/>
</g>
</svg>
