<svg width="20" height="20" viewBox="0 0 20 20" fill="none" xmlns="http://www.w3.org/2000/svg">
<g id="icons / form / briefcase-eye">
<path id="Vector" d="M14.167 14.9998C14.667 14.9998 15.0003 15.3332 15.0003 15.8332C15.0003 16.3332 14.667 16.6665 14.167 16.6665C13.667 16.6665 13.3337 16.3332 13.3337 15.8332C13.3337 15.3332 13.667 14.9998 14.167 14.9998ZM7.58366 16.4165L7.33366 15.8332L7.58366 15.2498C8.66699 12.5832 11.2503 10.8332 14.167 10.8332C15.7503 10.8332 17.167 11.3332 18.3337 12.1665V6.6665C18.3337 5.74984 17.5837 4.99984 16.667 4.99984H13.3337V3.33317C13.3337 2.4165 12.5837 1.6665 11.667 1.6665H8.33366C7.41699 1.6665 6.66699 2.4165 6.66699 3.33317V4.99984H3.33366C2.41699 4.99984 1.66699 5.74984 1.66699 6.6665V15.8332C1.66699 16.7498 2.41699 17.4998 3.33366 17.4998H8.16699C7.91699 17.1665 7.75033 16.8332 7.58366 16.4165ZM8.33366 3.33317H11.667V4.99984H8.33366V3.33317ZM14.167 12.4998C11.917 12.4998 9.91699 13.9165 9.16699 15.8332C9.91699 17.7498 11.917 19.1665 14.167 19.1665C16.417 19.1665 18.417 17.7498 19.167 15.8332C18.417 13.9165 16.417 12.4998 14.167 12.4998ZM14.167 17.9165C13.0003 17.9165 12.0837 16.9998 12.0837 15.8332C12.0837 14.6665 13.0003 13.7498 14.167 13.7498C15.3337 13.7498 16.2503 14.6665 16.2503 15.8332C16.2503 16.9998 15.3337 17.9165 14.167 17.9165Z" fill="#44516F"/>
</g>
</svg>
