<svg width="19" height="25" viewBox="0 0 19 25" fill="none" xmlns="http://www.w3.org/2000/svg">
<g id="Group">
<path id="Vector" d="M15.75 1.5625C16.1644 1.5625 16.5618 1.72712 16.8549 2.02015C17.1479 2.31317 17.3125 2.7106 17.3125 3.125V21.875C17.3125 22.2894 17.1479 22.6868 16.8549 22.9799C16.5618 23.2729 16.1644 23.4375 15.75 23.4375H3.25C2.8356 23.4375 2.43817 23.2729 2.14515 22.9799C1.85212 22.6868 1.6875 22.2894 1.6875 21.875V3.125C1.6875 2.7106 1.85212 2.31317 2.14515 2.02015C2.43817 1.72712 2.8356 1.5625 3.25 1.5625H15.75ZM3.25 0C2.4212 0 1.62634 0.32924 1.04029 0.915291C0.45424 1.50134 0.125 2.2962 0.125 3.125V21.875C0.125 22.7038 0.45424 23.4987 1.04029 24.0847C1.62634 24.6708 2.4212 25 3.25 25H15.75C16.5788 25 17.3737 24.6708 17.9597 24.0847C18.5458 23.4987 18.875 22.7038 18.875 21.875V3.125C18.875 2.2962 18.5458 1.50134 17.9597 0.915291C17.3737 0.32924 16.5788 0 15.75 0L3.25 0Z" fill="#2A354F"/>
<path id="Vector_2" d="M3.25 3.90625C3.25 3.69905 3.33231 3.50034 3.47882 3.35382C3.62534 3.20731 3.82405 3.125 4.03125 3.125H14.9688C15.176 3.125 15.3747 3.20731 15.5212 3.35382C15.6677 3.50034 15.75 3.69905 15.75 3.90625V7.03125C15.75 7.23845 15.6677 7.43716 15.5212 7.58368C15.3747 7.73019 15.176 7.8125 14.9688 7.8125H4.03125C3.82405 7.8125 3.62534 7.73019 3.47882 7.58368C3.33231 7.43716 3.25 7.23845 3.25 7.03125V3.90625ZM3.25 10.1562C3.25 9.94905 3.33231 9.75034 3.47882 9.60382C3.62534 9.45731 3.82405 9.375 4.03125 9.375H5.59375C5.80095 9.375 5.99966 9.45731 6.14618 9.60382C6.29269 9.75034 6.375 9.94905 6.375 10.1562V11.7188C6.375 11.926 6.29269 12.1247 6.14618 12.2712C5.99966 12.4177 5.80095 12.5 5.59375 12.5H4.03125C3.82405 12.5 3.62534 12.4177 3.47882 12.2712C3.33231 12.1247 3.25 11.926 3.25 11.7188V10.1562ZM3.25 14.8438C3.25 14.6365 3.33231 14.4378 3.47882 14.2913C3.62534 14.1448 3.82405 14.0625 4.03125 14.0625H5.59375C5.80095 14.0625 5.99966 14.1448 6.14618 14.2913C6.29269 14.4378 6.375 14.6365 6.375 14.8438V16.4062C6.375 16.6135 6.29269 16.8122 6.14618 16.9587C5.99966 17.1052 5.80095 17.1875 5.59375 17.1875H4.03125C3.82405 17.1875 3.62534 17.1052 3.47882 16.9587C3.33231 16.8122 3.25 16.6135 3.25 16.4062V14.8438ZM3.25 19.5312C3.25 19.324 3.33231 19.1253 3.47882 18.9788C3.62534 18.8323 3.82405 18.75 4.03125 18.75H5.59375C5.80095 18.75 5.99966 18.8323 6.14618 18.9788C6.29269 19.1253 6.375 19.324 6.375 19.5312V21.0938C6.375 21.301 6.29269 21.4997 6.14618 21.6462C5.99966 21.7927 5.80095 21.875 5.59375 21.875H4.03125C3.82405 21.875 3.62534 21.7927 3.47882 21.6462C3.33231 21.4997 3.25 21.301 3.25 21.0938V19.5312ZM7.9375 10.1562C7.9375 9.94905 8.01981 9.75034 8.16632 9.60382C8.31284 9.45731 8.51155 9.375 8.71875 9.375H10.2812C10.4885 9.375 10.6872 9.45731 10.8337 9.60382C10.9802 9.75034 11.0625 9.94905 11.0625 10.1562V11.7188C11.0625 11.926 10.9802 12.1247 10.8337 12.2712C10.6872 12.4177 10.4885 12.5 10.2812 12.5H8.71875C8.51155 12.5 8.31284 12.4177 8.16632 12.2712C8.01981 12.1247 7.9375 11.926 7.9375 11.7188V10.1562ZM7.9375 14.8438C7.9375 14.6365 8.01981 14.4378 8.16632 14.2913C8.31284 14.1448 8.51155 14.0625 8.71875 14.0625H10.2812C10.4885 14.0625 10.6872 14.1448 10.8337 14.2913C10.9802 14.4378 11.0625 14.6365 11.0625 14.8438V16.4062C11.0625 16.6135 10.9802 16.8122 10.8337 16.9587C10.6872 17.1052 10.4885 17.1875 10.2812 17.1875H8.71875C8.51155 17.1875 8.31284 17.1052 8.16632 16.9587C8.01981 16.8122 7.9375 16.6135 7.9375 16.4062V14.8438ZM7.9375 19.5312C7.9375 19.324 8.01981 19.1253 8.16632 18.9788C8.31284 18.8323 8.51155 18.75 8.71875 18.75H10.2812C10.4885 18.75 10.6872 18.8323 10.8337 18.9788C10.9802 19.1253 11.0625 19.324 11.0625 19.5312V21.0938C11.0625 21.301 10.9802 21.4997 10.8337 21.6462C10.6872 21.7927 10.4885 21.875 10.2812 21.875H8.71875C8.51155 21.875 8.31284 21.7927 8.16632 21.6462C8.01981 21.4997 7.9375 21.301 7.9375 21.0938V19.5312ZM12.625 10.1562C12.625 9.94905 12.7073 9.75034 12.8538 9.60382C13.0003 9.45731 13.199 9.375 13.4062 9.375H14.9688C15.176 9.375 15.3747 9.45731 15.5212 9.60382C15.6677 9.75034 15.75 9.94905 15.75 10.1562V11.7188C15.75 11.926 15.6677 12.1247 15.5212 12.2712C15.3747 12.4177 15.176 12.5 14.9688 12.5H13.4062C13.199 12.5 13.0003 12.4177 12.8538 12.2712C12.7073 12.1247 12.625 11.926 12.625 11.7188V10.1562ZM12.625 14.8438C12.625 14.6365 12.7073 14.4378 12.8538 14.2913C13.0003 14.1448 13.199 14.0625 13.4062 14.0625H14.9688C15.176 14.0625 15.3747 14.1448 15.5212 14.2913C15.6677 14.4378 15.75 14.6365 15.75 14.8438V21.0938C15.75 21.301 15.6677 21.4997 15.5212 21.6462C15.3747 21.7927 15.176 21.875 14.9688 21.875H13.4062C13.199 21.875 13.0003 21.7927 12.8538 21.6462C12.7073 21.4997 12.625 21.301 12.625 21.0938V14.8438Z" fill="#2A354F"/>
</g>
</svg>
