<svg width="20" height="20" viewBox="0 0 20 20" fill="none" xmlns="http://www.w3.org/2000/svg">
<path d="M9.1456 18.8994C8.92209 18.6759 8.80505 18.3914 8.79449 18.046C8.78473 17.7006 8.89161 17.4161 9.11512 17.1926L15.0889 11.2188H1.46499C1.11957 11.2188 0.82982 11.1018 0.595744 10.8677C0.362481 10.6344 0.24585 10.3451 0.24585 9.99966C0.24585 9.65424 0.362481 9.36449 0.595744 9.13041C0.82982 8.89715 1.11957 8.78052 1.46499 8.78052H15.0889L9.11512 2.80671C8.89161 2.5832 8.78473 2.29874 8.79449 1.95331C8.80505 1.60789 8.92209 1.32342 9.1456 1.09991C9.36911 0.876403 9.65358 0.764648 9.999 0.764648C10.3444 0.764648 10.6289 0.876403 10.8524 1.09991L18.8988 9.14626C19.0207 9.24786 19.1072 9.37465 19.1584 9.52664C19.2088 9.67944 19.234 9.83711 19.234 9.99966C19.234 10.1622 19.2088 10.3146 19.1584 10.4568C19.1072 10.5991 19.0207 10.7312 18.8988 10.8531L10.8524 18.8994C10.6289 19.1229 10.3444 19.2347 9.999 19.2347C9.65358 19.2347 9.36911 19.1229 9.1456 18.8994Z" fill="#2A354F"/>
</svg>
