<svg width="67" height="67" viewBox="0 0 67 67" fill="none" xmlns="http://www.w3.org/2000/svg">
<path id="pngwing 1 (Traced)" fill-rule="evenodd" clip-rule="evenodd" d="M29.8665 0.0251319C29.6459 0.0549083 28.8034 0.14437 27.9944 0.223774C23.8291 0.632704 20.6287 1.66098 19.1781 3.05624C18.3944 3.80992 17.9469 4.61441 17.6309 5.8371C17.3916 6.76281 17.3633 7.30501 17.3633 10.9539V15.0352H25.3867H33.4102V16.0232V17.0109L21.4084 17.0529C10.2347 17.0919 9.34679 17.1117 8.53749 17.3384C5.1441 18.2889 2.67489 20.5835 1.527 23.853C0.794324 25.9399 0.147099 29.5718 0.0208636 32.3056C-0.160466 36.2285 0.859582 41.6938 2.3256 44.6545C2.95852 45.933 3.2257 46.3131 4.09918 47.1787C4.71632 47.7903 5.45274 48.3658 5.9407 48.6181C7.41728 49.381 7.99738 49.4731 11.7656 49.5418L15.1944 49.6044L15.2579 45.1898C15.316 41.1655 15.3471 40.6897 15.61 39.8065C16.7651 35.9269 19.8622 33.1307 23.782 32.4284C24.5586 32.2892 26.7919 32.2472 33.6776 32.2421C41.1186 32.2366 42.7099 32.2029 43.4257 32.036C46.2183 31.3845 48.6517 28.9582 49.3882 26.0909C49.6915 24.9099 49.69 8.18904 49.3865 7.03557C49.051 5.761 48.2867 4.47717 47.25 3.44638C44.698 0.909029 41.6191 0.107315 34.0788 0.0166621C31.9827 -0.00848243 30.0871 -0.00477693 29.8665 0.0251319ZM25.5948 5.09467C26.6083 5.55032 27.3926 6.76917 27.3926 7.88889C27.3926 9.4906 25.9519 10.9327 24.3517 10.9327C23.7188 10.9327 22.8215 10.5633 22.3287 10.0999C21.0863 8.93173 21.0539 6.91157 22.2585 5.71945C23.1129 4.87393 24.5182 4.61071 25.5948 5.09467ZM51.5967 21.234C51.5967 24.9984 51.5683 25.5594 51.3311 26.4945C50.6087 29.3413 48.6415 31.79 45.9803 33.1549C43.9432 34.1998 44.6402 34.1382 33.8114 34.2294C23.1527 34.3193 23.6102 34.2835 21.7822 35.1674C20.5927 35.7425 18.9308 37.3946 18.271 38.6579C17.3468 40.4274 17.3632 40.2244 17.3649 49.992C17.3666 59.6016 17.3541 59.4302 18.168 60.9415C18.6779 61.8884 20.2684 63.4446 21.4084 64.1121C24.8469 66.1257 30.6951 67.3103 35.3158 66.929C41.4339 66.4242 46.517 64.3592 48.3581 61.6306C49.4852 59.9604 49.5162 59.8009 49.5637 55.432L49.6057 51.561H41.508H33.4102V50.5685V49.5759L45.6794 49.5733C52.842 49.5718 58.3199 49.5176 58.8408 49.4429C61.9366 48.9999 63.776 47.0563 65.4159 42.4958C66.1151 40.5513 66.403 39.4914 66.7123 37.7249C67.0952 35.5372 67.096 32.3347 66.7142 29.7608C65.5285 21.7671 63.3505 18.0458 59.369 17.2106C58.742 17.0792 57.4781 17.0243 55.0401 17.0226L51.5967 17.0203V21.234ZM43.6778 55.8688C45.261 56.5223 46.003 58.3649 45.3004 59.8984C44.7544 61.0902 43.8578 61.6731 42.5703 61.6731C40.7541 61.6731 39.4702 60.3052 39.5866 58.4946C39.7193 56.4319 41.8027 55.0948 43.6778 55.8688Z" fill="#2A354F"/>
</svg>
