<svg width="180" height="90" viewBox="0 0 180 90" fill="none" xmlns="http://www.w3.org/2000/svg">
<g id="bloomberg-ar21 3">
<path id="Vector" d="M149.43 53.5446H154.825C155.02 54.2226 155.73 54.9021 157.087 54.9021C158.896 54.9021 159.51 53.7711 159.51 52.1241V50.9615H159.381C158.476 52.0115 157.314 52.7706 155.536 52.7706C152.079 52.7706 149.107 50.2206 149.107 45.2436C149.107 40.6566 151.563 37.1016 155.278 37.1016C157.408 37.1016 158.736 37.9746 159.576 39.3306H159.673V37.5861H165V51.4131C165 53.9631 164.095 55.9686 162.771 57.1311C161.382 58.3911 159.381 58.8755 157.116 58.8755C152.916 58.8755 149.946 57.1311 149.427 53.5446H149.43ZM159.735 44.9496C159.735 42.9471 158.797 41.3496 157.15 41.3496C155.568 41.3496 154.566 42.7716 154.566 44.9496C154.566 47.0796 155.568 48.6321 157.15 48.6321C158.797 48.6321 159.735 47.0496 159.735 44.9496Z" fill="#44516F"/>
<path id="Vector_2" d="M59.001 45.5661C59.001 40.5261 62.2635 37.1016 67.3035 37.1016C72.3435 37.1016 75.5415 40.5261 75.5415 45.5661C75.5415 50.6361 72.3435 54.0306 67.3035 54.0306C62.2635 54.0306 59.001 50.6406 59.001 45.5661ZM69.8565 45.5661C69.8565 42.7881 68.952 41.0106 67.239 41.0106C65.526 41.0106 64.689 42.7551 64.689 45.5661C64.689 48.3771 65.529 50.1216 67.239 50.1216C68.952 50.1546 69.8565 48.4086 69.8565 45.5661Z" fill="#44516F"/>
<path id="Vector_3" d="M41.749 45.5661C41.749 40.5261 45.0115 37.1016 50.0515 37.1016C55.0915 37.1016 58.2895 40.5261 58.2895 45.5661C58.2895 50.6361 55.0915 54.0306 50.0515 54.0306C45.0115 54.0306 41.749 50.6406 41.749 45.5661ZM52.6045 45.5661C52.6045 42.7881 51.7 41.0106 49.987 41.0106C48.274 41.0106 47.437 42.7551 47.437 45.5661C47.437 48.3771 48.277 50.1216 49.987 50.1216C51.7 50.1546 52.6045 48.4086 52.6045 45.5661Z" fill="#44516F"/>
<path id="Vector_4" d="M15 31.1543H25.9845C28.0515 31.1543 29.667 31.6718 30.7845 32.5763C32.0445 33.6263 32.7555 35.1608 32.7555 37.0013C32.7555 39.1313 31.8825 40.4903 30.1065 41.2988V41.3963C32.4315 42.1718 33.7575 44.2388 33.7575 46.7588C33.7575 49.1498 32.853 51.0233 31.335 52.1543C30.075 53.0588 28.395 53.5118 26.1975 53.5118H15.0195V31.1543H15ZM24.9 39.9098C26.0955 39.9098 26.9355 39.2648 26.9355 37.9388C26.9355 36.6788 26.031 36.0338 24.8685 36.0338H21.0885V39.8783H24.8985L24.9 39.9098ZM25.449 48.5678C26.7735 48.5678 27.774 47.7608 27.774 46.2728C27.774 44.7218 26.724 43.9778 25.416 43.9778H21.087V48.5648L25.449 48.5678ZM34.851 31.1678H40.602V53.5568H34.851V31.1678Z" fill="#44516F"/>
<path id="Vector_5" d="M76.7051 37.554H82.0496V39.945H82.1471C83.1971 38.07 84.6671 37.0695 86.9471 37.0695C88.9496 37.0695 90.4691 38.0715 91.2446 39.8145H91.3421C92.6351 37.7145 94.3466 37.0695 96.2846 37.0695C100 37.0695 101.583 39.8145 101.583 43.4655V53.5455H95.9606V44.5005C95.9606 42.8535 95.4431 41.8005 94.0226 41.8005C92.6336 41.8005 91.9226 43.0935 91.9226 44.838V53.5605H86.3651V44.5155C86.3651 42.8685 85.8476 41.8155 84.4271 41.8155C83.0381 41.8155 82.3271 43.1085 82.3271 44.853V53.5755H76.7051V37.5855V37.554ZM108.69 51.444H108.625V53.511H103.294V31.125H108.9V39.201H108.997C110.047 37.812 111.484 37.071 113.553 37.071C117.558 37.071 119.883 40.689 119.883 45.501C119.883 50.928 117.363 54.063 113.196 54.063C111.418 54.063 109.641 53.223 108.673 51.4455L108.69 51.444ZM114.15 45.468C114.15 42.8835 113.212 41.238 111.501 41.238C109.789 41.238 108.69 42.885 108.69 45.468C108.69 48.018 109.788 49.698 111.501 49.698C113.214 49.698 114.15 48.051 114.15 45.468ZM120.513 45.501C120.513 40.5255 123.808 37.0365 128.589 37.0365C130.98 37.0365 132.789 37.779 134.211 39.1035C136.053 40.881 136.893 43.6905 136.828 46.9545H126.103C126.328 48.957 127.299 49.959 128.979 49.959C129.948 49.959 130.821 49.506 131.176 48.441H136.572C135.634 52.092 132.792 53.931 128.772 53.931C123.829 53.964 120.501 50.6355 120.501 45.501H120.513ZM126.102 43.854H131.206C131.109 41.916 130.044 40.914 128.719 40.914C127.168 40.914 126.328 42.012 126.102 43.854ZM143.193 40.299H143.29C144.453 38.07 145.972 37.23 147.877 37.23C148.33 37.23 148.62 37.2945 148.782 37.392V42.303H148.653C145.357 41.721 143.403 43.272 143.403 46.89V53.5455H137.781V37.5855H143.112V40.2855L143.193 40.299Z" fill="#44516F"/>
</g>
</svg>
