<svg width="157" height="107" viewBox="0 0 157 107" fill="none" xmlns="http://www.w3.org/2000/svg">
<g id="Yahoo Finance 3">
<path id="Vector" fill-rule="evenodd" clip-rule="evenodd" d="M61.3 44.5V57.5H64.5H67.7V52.5C67.7 49.2 67.7 47.4 67.7 47.2C67.8 46.7 67.9 46.2 68.2 45.8C68.6 45.1 69.3 44.8 70.1 44.9C71.2 45 71.9 45.6 72.1 46.9C72.1 47.1 72.1 49.1 72.1 52.3V57.4H75.3H78.5V51.4C78.5 46.3 78.5 45.3 78.4 44.8C78.2 43 77.6 41.6 76.5 40.6C75.6 39.7 74.5 39.2 73.2 39C72.7 38.9 71.3 39 70.9 39.1C69.7 39.4 68.8 39.8 68 40.7L67.5 41.1V36.3V31.5H64.3H61.1V44.5H61.3ZM129.3 31.7C129.1 32.1 122.6 47.8 122.6 47.8C122.6 47.8 124.3 47.8 126.4 47.8H130.2L133.6 39.7C135.5 35.2 137 31.5 137 31.5C137 31.5 135.3 31.5 133.2 31.5H129.4L129.3 31.7ZM47.3 39.1C45.9 39.3 44.8 39.7 43.7 40.4C41.5 41.8 40.1 44.2 39.7 47C39.5 48.3 39.6 49.9 39.9 51.1C40.7 54.2 42.8 56.6 45.5 57.5C46.5 57.8 46.9 57.9 48.1 57.9C49 57.9 49.3 57.9 49.6 57.8C50.9 57.5 51.8 57 52.6 56.2L53 55.8V56.6V57.4H56.1H59.2V48.4V39.4H56.1H53V40.2V41L52.7 40.7C52 39.9 51 39.4 49.7 39.1C49.3 39 49.1 39 48.3 39C47.8 39.1 47.4 39.1 47.3 39.1ZM88.1 39.1C86.4 39.3 84.6 40.1 83.3 41.1C80.8 43.2 79.5 46.5 80 49.9C80.5 53.7 83.2 56.6 87 57.6C87.8 57.8 88.6 57.9 89.6 57.9C91.4 57.9 92.7 57.6 94.1 56.9C96.9 55.5 98.7 53 99.1 49.9C99.2 49.1 99.2 47.8 99.1 47.1C98.9 45.6 98.3 44.1 97.4 42.9C97 42.4 96.2 41.5 95.7 41.1C94.3 40 92.7 39.3 90.9 39.1C90.2 39 88.8 39 88.1 39.1ZM108.5 39.1C106.8 39.3 105.1 40 103.8 41.1C103.3 41.5 102.4 42.4 102.1 42.9C101.2 44.1 100.7 45.6 100.4 47.1C100.3 47.8 100.3 49.2 100.4 49.9C101 53.9 103.9 57 107.9 57.8C108.7 58 109.1 58 110 58C111.7 58 113.2 57.7 114.6 56.9C118.3 55 120.3 50.8 119.4 46.5C118.6 42.5 115.4 39.6 111.3 39.1C110.6 39 109.2 39 108.5 39.1ZM19 39.5C19 39.5 20.7 43.6 22.8 48.6C24.9 53.6 26.6 57.7 26.6 57.7C26.6 57.7 26 59.2 25.2 61C24.4 62.8 23.8 64.2 23.8 64.3C23.8 64.4 25.3 64.3 27.2 64.3H30.6L35.7 52C38.5 45.2 40.8 39.7 40.8 39.6C40.8 39.6 40.1 39.5 37.4 39.6H34L31.9 44.8C31 47.6 30.1 50 30.1 50C30.1 50 29.2 47.6 28 44.8L26 39.6H22.5C20.6 39.5 19 39.5 19 39.5ZM50.4 44.9C51.7 45.2 52.7 46.2 53.1 47.5C53.2 48 53.2 48.9 53.1 49.4C52.8 50.7 51.8 51.7 50.5 52C50 52.1 49.1 52.1 48.6 52C47.5 51.7 46.5 50.9 46.1 49.9C45.6 48.8 45.8 47.4 46.4 46.4C47.3 45.1 48.8 44.6 50.4 44.9ZM90.3 45C91.7 45.2 92.8 46.3 93.1 47.7C93.2 48.2 93.2 49 93.1 49.5C92.8 50.8 91.8 51.7 90.6 52.1C90.2 52.2 89.1 52.2 88.7 52.1C87.7 51.8 86.9 51.1 86.4 50.2C86.1 49.6 86.1 49.3 86.1 48.6C86.1 48 86.2 47.7 86.4 47.2C86.7 46.6 87.1 46 87.7 45.6C88.3 45 89.3 44.8 90.3 45ZM110.6 45C111.8 45.2 112.8 46 113.2 47.1C113.4 47.6 113.5 47.9 113.5 48.5C113.5 49.2 113.4 49.5 113.2 50.1C112.8 51 111.9 51.7 110.9 52C110.5 52.1 109.4 52.1 109 52C107.8 51.7 106.8 50.7 106.5 49.4C106.4 48.9 106.4 48 106.5 47.5C106.9 45.9 108.3 44.8 109.9 44.8C110.1 44.9 110.4 44.9 110.6 45ZM124.2 49.4C122.3 49.6 120.9 51 120.5 52.8C120.4 53.3 120.4 54.2 120.5 54.7C120.9 56.3 122.1 57.4 123.7 57.8C123.9 57.8 124.3 57.9 124.6 57.9C125.8 57.9 126.8 57.5 127.6 56.7C128.5 55.8 128.8 54.9 128.8 53.7C128.8 52.2 128.1 50.9 126.9 50.2C126.1 49.5 125 49.3 124.2 49.4ZM71.5 59.2C70.2 59.6 69.6 61.1 70.3 62.2C70.5 62.5 70.9 62.9 71.2 63C71.5 63.1 71.5 63.1 72.1 63.1C72.6 63.1 72.7 63.1 73 63C73.4 62.8 73.8 62.4 74 62C74.5 61 74 59.8 73 59.3C72.7 59.1 72.6 59.1 72.2 59.1C71.8 59.1 71.7 59.1 71.5 59.2ZM66.1 59.3C64.4 59.6 63.3 60.7 62.8 62.5C62.7 62.8 62.7 63.1 62.7 63.5V64.2H62H61.3V65.7V67.2H62H62.7V70.8V74.4H64.6H66.5V70.8V67.2H67.8H69.1V65.7V64.2H67.8H66.5V63.9C66.6 63.2 66.9 62.7 67.5 62.6C67.9 62.5 68.5 62.5 68.9 62.7C69.1 62.8 69.2 62.8 69.2 62.8C69.2 62.8 69.2 62.1 69.2 61.2V59.6L68.9 59.5C68.5 59.3 68 59.3 67.3 59.3C66.8 59.2 66.4 59.3 66.1 59.3ZM81.3 64C80.5 64.2 79.9 64.6 79.5 65.1L79.3 65.4V64.8V64.2H77.4H75.5V69.3V74.4H77.4H79.3V71.6C79.3 70 79.3 68.7 79.3 68.5C79.4 68.1 79.6 67.7 79.8 67.5C80.3 67.1 81.2 67.2 81.6 67.7C81.9 68.1 81.9 68.1 81.9 71.3V74.3H83.8H85.7V70.9C85.7 67.3 85.7 66.9 85.5 66.2C85.3 65.6 85.1 65.1 84.6 64.7C84.2 64.3 83.8 64 83.2 63.9C82.7 63.9 81.7 63.9 81.3 64ZM90.8 63.9C90.2 64 89.3 64.3 88.8 64.7C87.7 65.5 87 66.7 86.7 68.2C86.6 68.8 86.6 69.9 86.7 70.5C86.9 71.4 87.2 72.3 87.7 72.9C88.4 73.8 89.3 74.4 90.4 74.6C91 74.7 92 74.7 92.5 74.5C93.1 74.3 93.5 74.1 94 73.7L94.4 73.3V73.8V74.3H96.3H98.2V69.2V64.1H96.3H94.4V64.6V65.1L94.1 65C93.6 64.5 92.9 64.1 92.1 64C91.8 63.9 91.1 63.9 90.8 63.9ZM105.3 64C104.6 64.1 103.9 64.6 103.5 65.1L103.3 65.3V64.7V64.1H101.4H99.5V69.2V74.3H101.4H103.3V71.4C103.3 68.3 103.3 68.3 103.5 67.8C103.7 67.4 104.1 67.2 104.5 67.2C104.9 67.2 105.1 67.3 105.4 67.5C105.8 67.9 105.8 67.8 105.8 71.2V74.2H107.7H109.6V70.5C109.6 66.8 109.6 66.8 109.5 66.4C109.4 66.2 109.3 65.8 109.2 65.5C109 65.1 108.9 65 108.6 64.7C108.2 64.3 107.9 64.1 107.5 63.9C106.8 63.9 106 63.8 105.3 64ZM115.2 64C113.5 64.3 112.2 65.1 111.4 66.5C111.2 66.9 111 67.4 110.8 67.9C110.7 68.4 110.7 68.5 110.7 69.3C110.7 70.2 110.7 70.5 111 71.2C111.6 72.9 113 74.2 114.9 74.6C115.2 74.7 115.5 74.7 116.2 74.7C117.2 74.7 117.6 74.6 118.3 74.3L118.7 74.1V72.4V70.7L118.4 70.9C117.9 71.2 117.6 71.3 117 71.3C116.4 71.3 116.1 71.3 115.7 71.1C115.3 70.9 115 70.6 114.8 70.2C114.7 69.9 114.7 69.9 114.7 69.4C114.7 69 114.7 68.9 114.8 68.6C115.1 67.8 115.8 67.4 116.8 67.3C117.5 67.3 117.8 67.3 118.8 67.8C118.8 67.8 118.8 67 118.8 66.1V64.4L118.5 64.3C117.4 63.9 116.2 63.8 115.2 64ZM123.8 64C120.9 64.5 119.1 67 119.3 69.9C119.4 70.9 119.7 71.8 120.2 72.5C120.9 73.6 122 74.3 123.4 74.6C124 74.7 125.6 74.7 126.3 74.6C127.3 74.4 128.2 73.9 128.9 73.2C129.2 72.9 129.7 72.2 129.7 72.2C129.7 72.2 129 71.9 128.1 71.6L126.5 71L126.3 71.2C126 71.5 125.8 71.6 125.4 71.7C124.3 72 123.2 71.4 123 70.4V70.2H126.5H130V69.3C130 68.7 130 68.3 129.9 68.1C129.7 66.9 129.2 66.1 128.5 65.3C127.8 64.6 127 64.2 125.9 64C125.5 63.9 124.3 63.9 123.8 64ZM70.2 69.3V74.4H72.1H74V69.3V64.2H72.1H70.2V69.3ZM125.3 66.8C125.6 66.9 125.7 67 126 67.2C126.2 67.4 126.4 67.6 126.4 67.9V68.1H124.7C122.8 68.1 122.9 68.1 123.1 67.7C123.4 67 124.3 66.6 125.3 66.8ZM93 67.3C93.5 67.4 94.1 67.9 94.3 68.4C94.8 69.5 94.3 70.8 93.1 71.2C92.7 71.3 92.1 71.3 91.7 71.2C91.1 71 90.5 70.5 90.4 69.9C90.3 69.6 90.3 69.5 90.3 69.2C90.3 68.8 90.3 68.7 90.5 68.4C90.9 67.5 91.9 67.1 93 67.3Z" fill="#44516F"/>
</g>
</svg>
