<svg width="163" height="39" viewBox="0 0 163 39" fill="none" xmlns="http://www.w3.org/2000/svg">
<g id="the-next-web-tnw 3" clip-path="url(#clip0_29_285)">
<path id="Vector" d="M71.6226 4.29C68.8568 1.56 65.1032 0 61.1521 0H39.5197V39H54.3364V14.625H59.0778C60.3619 14.625 61.646 15.1125 62.535 16.0875L67.6715 21.1575C68.5605 22.035 69.1531 23.3025 69.1531 24.57V39H83.9698V22.5225C83.9698 18.6225 82.3894 14.9175 79.6236 12.1875L71.6226 4.29ZM148.176 0V14.43C148.176 15.6975 147.682 16.965 146.694 17.8425L141.557 22.9125C140.668 23.79 139.384 24.375 138.1 24.375H130.988C132.47 22.035 133.359 19.305 133.359 16.4775V0H118.542V14.43C118.542 15.6975 118.048 16.965 117.06 17.8425L111.924 22.9125C111.035 23.79 109.751 24.375 108.467 24.375H103.725V0H88.9087V39H110.541C114.492 39 118.246 37.44 121.012 34.71L125.95 29.835V39H140.175C144.126 39 147.879 37.44 150.645 34.71L158.646 26.8125C161.412 24.0825 162.992 20.3775 162.992 16.4775V0H148.176ZM0.00854492 14.625H9.88634V39H24.703V14.625H34.5808V0H0.00854492V14.625Z" fill="#44516F"/>
</g>
<defs>
<clipPath id="clip0_29_285">
<rect width="163" height="39" fill="white"/>
</clipPath>
</defs>
</svg>
