<svg width="136" height="55" viewBox="0 0 136 55" fill="none" xmlns="http://www.w3.org/2000/svg">
<g id="business-insider-1 3" clip-path="url(#clip0_29_287)">
<path id="Vector" d="M10.5217 11.5986C9.89617 11.149 9.21083 10.939 8.04901 10.879C7.5127 10.8491 7.21498 10.8491 6.76806 10.8491C6.64894 10.8491 6.58946 10.9091 6.58946 11.0589V18.1616C6.58946 20.1396 6.67885 20.6492 7.63199 21.0387C8.43628 21.3684 9.12145 21.3983 9.80661 21.3983C11.1474 21.3983 13.4114 20.6788 13.4114 17.562C13.4114 15.7039 12.7859 13.1867 10.5217 11.5986ZM6.58946 9.20096C6.58946 9.44081 6.67885 9.50064 6.79797 9.53055C7.06612 9.59073 7.51287 9.62047 8.19821 9.62047C9.18127 9.62047 9.8367 9.50081 10.3429 9.05121C11.1175 8.42176 11.5644 7.34306 11.5644 5.87459C11.5644 3.86642 10.4026 1.22915 7.8405 1.22915C7.42349 1.22915 7.15534 1.22915 6.85744 1.28915C6.64877 1.34916 6.58929 1.469 6.58929 1.79859V9.20096H6.58946ZM3.01443 8.69135C3.01443 4.13601 3.01443 3.2968 2.95478 2.33776C2.89514 1.31907 2.65689 0.839376 1.67384 0.629619C1.43559 0.569788 0.929024 0.539698 0.512012 0.539698C0.184384 0.539698 0.00561523 0.479693 0.00561523 0.269936C0.00561523 0.0601791 0.214121 0.000347856 0.661044 0C2.23988 0 4.11678 0.0900947 4.71256 0.0900947C6.17228 0.0900947 7.33428 0 8.34707 0.000347856C13.7392 0.000347856 14.6925 2.9072 14.6925 4.49569C14.6925 6.95312 13.2923 8.42142 11.6538 9.74031C14.0967 10.5792 17.0756 12.7073 17.0756 16.2137C17.0756 19.4206 14.6029 22.747 9.12145 22.747C8.76408 22.747 7.90015 22.687 7.03604 22.6569C6.14237 22.5971 5.2487 22.567 4.80177 22.567C4.47397 22.567 3.81855 22.567 3.10364 22.5971C2.41848 22.5971 1.6441 22.6569 1.04815 22.6569C0.660871 22.6569 0.452192 22.567 0.452192 22.3572C0.452192 22.2075 0.571486 22.1174 0.929024 22.1174C1.37577 22.1174 1.73331 22.0575 2.00146 21.9977C2.59725 21.8777 2.74628 21.2185 2.8654 20.3492C3.01426 19.0907 3.01426 16.7228 3.01426 13.9657V8.69135M21.0962 10.7594C21.0962 6.89328 21.1261 6.17392 21.0665 5.36463C21.0068 4.4656 20.7686 4.22593 19.9344 3.98608C19.7259 3.9259 19.2789 3.89616 18.9216 3.89616C18.6235 3.89616 18.4748 3.80606 18.4748 3.6264C18.4748 3.44656 18.6534 3.38655 19.0407 3.38655C20.4409 3.38655 22.1986 3.44656 22.9729 3.44656C23.6285 3.44656 25.3861 3.38655 26.3395 3.38655C26.7267 3.38655 26.9053 3.44656 26.9053 3.6264C26.9053 3.80606 26.7565 3.89616 26.4885 3.89616C26.1904 3.89616 26.0416 3.92607 25.7141 3.98608C25.0288 4.10592 24.8203 4.4656 24.7604 5.36463C24.701 6.17374 24.701 6.89328 24.701 10.7594V14.3257C24.701 18.0419 25.4159 19.4804 26.6968 20.4993C27.8586 21.4286 29.11 21.5182 30.0039 21.5182C31.1356 21.5182 32.4764 21.1886 33.5189 20.1695C34.9786 18.791 35.0383 16.5732 35.0383 13.9659V10.7594C35.0383 6.89328 35.0085 6.17392 34.9786 5.36463C34.919 4.49569 34.7105 4.22593 33.8764 3.98608C33.6679 3.9259 33.221 3.89616 32.923 3.89616C32.6251 3.89616 32.4762 3.80606 32.4762 3.6264C32.4762 3.44656 32.655 3.38655 33.0125 3.38655C34.3531 3.38655 36.1107 3.44656 36.1405 3.44656C36.4387 3.44656 38.1963 3.38655 39.2089 3.38655C39.5665 3.38655 39.7454 3.44656 39.7454 3.6264C39.7454 3.80606 39.5964 3.89616 39.2985 3.89616C39.0006 3.89616 38.8516 3.92607 38.5239 3.98608C37.8088 4.10592 37.6304 4.4656 37.5706 5.36463C37.5409 6.17374 37.511 6.89328 37.511 10.7594V13.4865C37.511 16.3336 37.2131 19.3307 35.0085 21.1587C33.1614 22.7171 31.1655 22.9867 29.4674 22.9867C28.0969 22.9867 25.3861 22.9268 23.4795 21.2486C22.1389 20.0796 21.096 18.1918 21.096 14.5056V10.7594M42.1873 22.3273C41.7701 22.1476 41.6809 22.0274 41.6809 21.4582C41.6809 20.0795 41.7999 18.4913 41.8296 18.0718C41.8296 17.6822 41.9487 17.4123 42.1574 17.4123C42.3958 17.4123 42.4255 17.6521 42.4255 17.832C42.4255 18.1616 42.5149 18.7009 42.664 19.1505C43.23 21.0385 45.1961 21.6681 46.8348 21.6681C49.0988 21.6681 50.4691 20.2296 50.4691 18.4315C50.4691 17.3225 50.2008 16.2137 47.8773 14.835L46.3579 13.9358C43.2597 12.1078 42.247 10.3993 42.247 8.15183C42.247 5.03504 45.226 3.02704 48.8604 3.02704C50.5583 3.02704 51.8993 3.26689 52.5843 3.44656C52.8227 3.50639 52.9416 3.59631 52.9416 3.77632C52.9416 4.10609 52.8524 4.82528 52.8524 6.83328C52.8524 7.37263 52.7331 7.64222 52.5246 7.64222C52.3458 7.64222 52.2566 7.49247 52.2566 7.19279C52.2566 6.95294 52.1373 6.17374 51.5713 5.51438C51.184 5.03504 50.3502 4.31585 48.6517 4.31585C46.7751 4.31585 45.0768 5.30463 45.0768 7.04286C45.0768 8.18192 45.4938 9.08078 47.8472 10.3995L48.9198 10.9987C52.3754 12.9169 53.448 14.8649 53.448 17.1726C53.448 19.0604 52.7328 20.5892 50.8263 21.9377C49.5751 22.8369 47.8472 22.9863 46.4472 22.9863C44.9281 22.9865 43.3192 22.8371 42.1873 22.3273ZM57.8567 10.7594C57.8567 6.89328 57.8567 6.17392 57.8272 5.36463C57.7675 4.49569 57.4994 4.19584 56.9333 4.016C56.6354 3.9259 56.3076 3.89633 55.98 3.89633C55.712 3.89633 55.5628 3.83633 55.5628 3.59648C55.5628 3.44673 55.7713 3.38672 56.1885 3.38672C57.1717 3.38672 58.9589 3.44673 59.7037 3.44673C60.3593 3.44673 62.0573 3.38672 63.0702 3.38672C63.3979 3.38672 63.6066 3.44673 63.6066 3.59648C63.6066 3.83633 63.4577 3.89633 63.1894 3.89633C62.9214 3.89633 62.7129 3.92607 62.415 3.98625C61.6999 4.10609 61.4914 4.46577 61.4318 5.36481C61.3723 6.17392 61.3723 6.89346 61.3723 10.7595V15.2549C61.3723 17.7123 61.3723 19.7504 61.4912 20.8294C61.5806 21.5185 61.7596 21.9081 62.5339 22.028C62.8913 22.0881 63.4873 22.1181 63.8745 22.1181C64.1724 22.1181 64.2915 22.2678 64.2915 22.388C64.2915 22.5677 64.083 22.6576 63.785 22.6576C62.0573 22.6576 60.2698 22.5677 59.5547 22.5677C58.9589 22.5677 57.1716 22.6576 56.1289 22.6576C55.8011 22.6576 55.6225 22.5677 55.6225 22.388C55.6225 22.268 55.7118 22.1181 56.0395 22.1181C56.4268 22.1181 56.7246 22.0881 56.9629 22.028C57.4992 21.9083 57.6482 21.5486 57.7374 20.7995C57.8564 19.7506 57.8564 17.7125 57.8564 15.255V10.7594M70.3687 19.1806C70.4281 21.1585 70.7559 21.7579 71.2623 21.9379C71.7092 22.0876 72.2156 22.1175 72.6327 22.1175C72.9305 22.1175 73.0796 22.2376 73.0796 22.3875C73.0796 22.5972 72.8412 22.6571 72.4838 22.6571C70.7858 22.6571 69.564 22.5671 69.0875 22.5671C68.8493 22.5671 67.5981 22.6571 66.2575 22.6571C65.8999 22.6571 65.6617 22.6273 65.6617 22.3875C65.6617 22.2377 65.8405 22.1175 66.0787 22.1175C66.4362 22.1175 66.9127 22.0876 67.2706 21.9979C67.9556 21.818 68.045 21.1286 68.0747 18.9108L68.3132 3.80624C68.3132 3.2968 68.4918 2.93712 68.7601 2.93712C69.0877 2.93712 69.4452 3.32672 69.892 3.77632C70.2198 4.10609 74.1522 8.15183 77.9651 11.8981C79.7528 13.6662 83.2383 17.2627 83.6256 17.6222H83.7447L83.4762 6.29358C83.4468 4.73519 83.2084 4.28558 82.583 4.04591C82.1958 3.89616 81.5697 3.89616 81.2124 3.89616C80.8847 3.89616 80.7952 3.77632 80.7952 3.6264C80.7952 3.41664 81.0633 3.38655 81.4506 3.38655C82.8211 3.38655 84.2212 3.44656 84.7874 3.44656C85.0853 3.44656 86.0682 3.38655 87.3493 3.38655C87.7068 3.38655 87.9449 3.41647 87.9449 3.6264C87.9449 3.77615 87.796 3.89616 87.4981 3.89616C87.2298 3.89616 87.0215 3.89616 86.6937 3.98608C85.9786 4.19584 85.7703 4.64544 85.7404 6.084L85.4425 22.1476C85.4425 22.7169 85.234 22.9567 85.0253 22.9567C84.5785 22.9567 84.2212 22.687 83.9528 22.417C82.3142 20.8887 79.0372 17.742 76.2969 15.0747C73.4369 12.3174 70.6664 9.23035 70.1596 8.78092H70.0704L70.3687 19.1806ZM92.532 10.7594C92.532 6.89328 92.532 6.17392 92.5019 5.36463C92.4425 4.49569 92.2042 4.22593 91.3699 3.98608C91.1615 3.9259 90.7148 3.89616 90.3275 3.89616C90.0592 3.89616 89.8806 3.80606 89.8806 3.6264C89.8806 3.44656 90.0891 3.38655 90.4764 3.38655C91.8467 3.38655 93.5151 3.44656 94.2597 3.44656C95.0937 3.44656 100.903 3.4763 101.409 3.44656C101.886 3.41647 102.303 3.32672 102.512 3.2968C102.661 3.26689 102.81 3.17697 102.929 3.17697C103.078 3.17697 103.107 3.2968 103.107 3.41664C103.107 3.59648 102.959 3.89633 102.899 5.06513C102.869 5.33489 102.809 6.44385 102.75 6.74336C102.72 6.86302 102.661 7.16287 102.452 7.16287C102.273 7.16287 102.243 7.04304 102.243 6.83328C102.243 6.65344 102.214 6.20383 102.065 5.90398C101.856 5.45455 101.648 5.09504 100.337 4.97503C99.8901 4.91485 96.7621 4.8552 96.2258 4.8552C96.1069 4.8552 96.0471 4.94512 96.0471 5.09504V11.3885C96.0471 11.5384 96.077 11.6584 96.2258 11.6584C96.8216 11.6584 100.218 11.6584 100.814 11.5986C101.439 11.5384 101.826 11.4785 102.065 11.209C102.273 11.0289 102.363 10.8792 102.482 10.8792C102.601 10.8792 102.691 10.999 102.691 11.1491C102.691 11.2989 102.631 11.7184 102.482 13.0072C102.422 13.5168 102.363 14.5357 102.363 14.7153C102.363 14.9251 102.333 15.2848 102.095 15.2848C101.916 15.2848 101.856 15.1947 101.856 15.075C101.826 14.8051 101.826 14.4757 101.767 14.1457C101.618 13.6363 101.29 13.2467 100.307 13.157C99.8304 13.0968 96.8513 13.0369 96.1963 13.0369C96.077 13.0369 96.0471 13.157 96.0471 13.3069V15.3448C96.0471 16.2139 96.0175 18.3717 96.0471 19.1208C96.1069 20.859 96.9108 21.2486 99.5924 21.2486C100.278 21.2486 101.38 21.2187 102.065 20.9188C102.72 20.6192 103.018 20.0798 103.197 19.031C103.257 18.7611 103.316 18.6414 103.495 18.6414C103.704 18.6414 103.733 18.9712 103.733 19.2406C103.733 19.81 103.525 21.5484 103.376 22.0579C103.197 22.7171 102.959 22.7171 101.976 22.7171C100.01 22.7171 98.4305 22.6872 97.1498 22.6273C95.8686 22.5972 94.8854 22.5671 94.111 22.5671C93.8128 22.5671 93.2469 22.5972 92.6216 22.5972C91.9959 22.6273 91.3405 22.6571 90.8042 22.6571C90.4765 22.6571 90.2978 22.5671 90.2978 22.3875C90.2978 22.2675 90.3871 22.1175 90.7149 22.1175C91.1021 22.1175 91.3999 22.0876 91.6384 22.0274C92.1747 21.9078 92.3233 21.4284 92.4127 20.6788C92.532 19.6001 92.532 17.5921 92.532 15.2543V10.7594ZM107.009 22.3273C106.592 22.1476 106.503 22.0274 106.503 21.4582C106.503 20.0795 106.622 18.4913 106.652 18.0718C106.652 17.6822 106.771 17.4123 106.979 17.4123C107.218 17.4123 107.247 17.6521 107.247 17.832C107.247 18.1616 107.337 18.7009 107.486 19.1505C108.052 21.0385 110.018 21.6681 111.656 21.6681C113.921 21.6681 115.291 20.2296 115.291 18.4315C115.291 17.3225 115.023 16.2137 112.699 14.835L111.18 13.9358C108.082 12.1078 107.069 10.3993 107.069 8.15183C107.069 5.03504 110.048 3.02704 113.682 3.02704C115.38 3.02704 116.721 3.26689 117.406 3.44656C117.645 3.50639 117.764 3.59631 117.764 3.77632C117.764 4.10609 117.674 4.82528 117.674 6.83328C117.674 7.37263 117.555 7.64222 117.346 7.64222C117.168 7.64222 117.079 7.49247 117.079 7.19279C117.079 6.95294 116.959 6.17374 116.393 5.51438C116.006 5.03504 115.172 4.31585 113.474 4.31585C111.597 4.31585 109.899 5.30463 109.899 7.04286C109.899 8.18192 110.316 9.08078 112.669 10.3995L113.742 10.9987C117.197 12.9169 118.27 14.8649 118.27 17.1726C118.27 19.0604 117.555 20.5892 115.648 21.9377C114.397 22.8369 112.669 22.9863 111.269 22.9863C109.75 22.9865 108.141 22.8371 107.009 22.3273ZM121.844 22.3273C121.428 22.1476 121.338 22.0274 121.338 21.4582C121.338 20.0795 121.457 18.4913 121.487 18.0718C121.487 17.6822 121.606 17.4123 121.815 17.4123C122.053 17.4123 122.083 17.6521 122.083 17.832C122.083 18.1616 122.172 18.7009 122.321 19.1505C122.887 21.0385 124.853 21.6681 126.492 21.6681C128.756 21.6681 130.126 20.2296 130.126 18.4315C130.126 17.3225 129.858 16.2137 127.535 14.835L126.015 13.9358C122.917 12.1078 121.904 10.3993 121.904 8.15183C121.904 5.03504 124.883 3.02704 128.517 3.02704C130.216 3.02704 131.556 3.26689 132.242 3.44656C132.48 3.50639 132.599 3.59631 132.599 3.77632C132.599 4.10609 132.509 4.82528 132.509 6.83328C132.509 7.37263 132.39 7.64222 132.182 7.64222C132.003 7.64222 131.914 7.49247 131.914 7.19279C131.914 6.95294 131.794 6.17374 131.228 5.51438C130.841 5.03504 130.007 4.31585 128.309 4.31585C126.432 4.31585 124.734 5.30463 124.734 7.04286C124.734 8.18192 125.151 9.08078 127.504 10.3995L128.577 10.9987C132.032 12.9169 133.105 14.8649 133.105 17.1726C133.105 19.0604 132.39 20.5892 130.483 21.9377C129.232 22.8369 127.504 22.9863 126.104 22.9863C124.585 22.9865 122.976 22.8371 121.844 22.3273ZM4.23538 40.7045C4.23538 36.149 4.23538 35.31 4.17574 34.3511C4.11609 33.3319 3.8182 32.8226 3.16294 32.6727C2.83514 32.5826 2.44787 32.5527 2.0905 32.5527C1.79244 32.5527 1.61384 32.4929 1.61384 32.2534C1.61384 32.0733 1.85209 32.0133 2.32875 32.0133C3.46083 32.0133 5.33756 32.1034 6.2015 32.1034C6.94631 32.1034 8.70392 32.0133 9.83583 32.0133C10.2231 32.0133 10.4615 32.0733 10.4615 32.2534C10.4615 32.4929 10.2828 32.5527 9.98486 32.5527C9.6868 32.5527 9.44856 32.5828 9.09102 32.6431C8.28673 32.7925 8.04832 33.3023 7.98884 34.3513C7.92919 35.3103 7.92919 36.1492 7.92919 40.7047V45.9791C7.92919 48.8861 7.92919 51.2539 8.04814 52.5424C8.1377 53.3515 8.34621 53.8909 9.24005 54.0109C9.65706 54.0707 10.3125 54.1305 10.7592 54.1305C11.087 54.1305 11.2359 54.2206 11.2359 54.3704C11.2359 54.5801 10.9977 54.6701 10.67 54.6701C8.70374 54.6701 6.82702 54.5801 6.02256 54.5801C5.33739 54.5801 3.46066 54.6701 2.26893 54.6701C1.88182 54.6701 1.67315 54.5801 1.67315 54.3704C1.67315 54.2206 1.79227 54.1305 2.14981 54.1305C2.59673 54.1305 2.95427 54.0705 3.22242 54.0109C3.81803 53.8909 3.9968 53.3814 4.08635 52.5123C4.23521 51.2539 4.23521 48.8859 4.23521 45.9791V40.7045M19.3984 51.1938C19.4581 53.1717 19.7857 53.771 20.2923 53.951C20.739 54.1008 21.2456 54.1307 21.6626 54.1307C21.9605 54.1307 22.1095 54.2505 22.1095 54.4006C22.1095 54.6104 21.8713 54.6702 21.5137 54.6702C19.8158 54.6702 18.5943 54.5803 18.1175 54.5803C17.8792 54.5803 16.628 54.6702 15.2874 54.6702C14.9299 54.6702 14.6916 54.6401 14.6916 54.4006C14.6916 54.2507 14.8704 54.1307 15.1087 54.1307C15.4662 54.1307 15.9428 54.1008 16.3004 54.011C16.9856 53.8312 17.0749 53.1421 17.1047 50.9242L17.3431 35.8196C17.3431 35.3102 17.5217 34.9506 17.7898 34.9506C18.1176 34.9506 18.475 35.3401 18.9219 35.7895C19.2497 36.1193 23.1821 40.165 26.9952 43.9112C28.7827 45.6794 32.2682 49.2757 32.6555 49.6354H32.7744L32.5065 38.3068C32.4766 36.7484 32.2383 36.2989 31.6126 36.0589C31.2253 35.9095 30.5998 35.9095 30.2421 35.9095C29.9145 35.9095 29.8251 35.7895 29.8251 35.6396C29.8251 35.4298 30.0934 35.3997 30.4805 35.3997C31.851 35.3997 33.2511 35.4599 33.8171 35.4599C34.1152 35.4599 35.0981 35.3997 36.3794 35.3997C36.7368 35.3997 36.975 35.4298 36.975 35.6396C36.975 35.7893 36.826 35.9095 36.5281 35.9095C36.2597 35.9095 36.0514 35.9095 35.7236 35.9992C35.0087 36.2092 34.8002 36.6588 34.7703 38.0972L34.4722 54.1608C34.4722 54.7301 34.2639 54.9699 34.0554 54.9699C33.6085 54.9699 33.2511 54.7003 32.9828 54.4302C31.3445 52.9019 28.0673 49.7552 25.3267 47.0878C22.4669 44.3307 19.6963 41.2437 19.1897 40.7943H19.1003L19.3984 51.1938ZM42.6339 54.3406C42.217 54.1608 42.1275 54.0406 42.1275 53.4713C42.1275 52.0928 42.2466 50.5047 42.2763 50.085C42.2763 49.6955 42.3955 49.4256 42.6041 49.4256C42.8424 49.4256 42.8723 49.6653 42.8723 49.8451C42.8723 50.1749 42.9617 50.7144 43.1105 51.1638C43.6764 53.0518 45.6427 53.6811 47.2814 53.6811C49.5454 53.6811 50.9157 52.2427 50.9157 50.4445C50.9157 49.3359 50.6475 48.2269 48.3241 46.8483L46.8045 45.9493C43.7063 44.1208 42.6935 42.4128 42.6935 40.165C42.6935 37.0482 45.6724 35.0402 49.3069 35.0402C51.0051 35.0402 52.3457 35.2799 53.0308 35.4599C53.2692 35.5199 53.3884 35.6097 53.3884 35.7895C53.3884 36.1193 53.2988 36.8383 53.2988 38.8465C53.2988 39.386 53.1799 39.6554 52.971 39.6554C52.7924 39.6554 52.7029 39.5056 52.7029 39.206C52.7029 38.9663 52.5839 38.1873 52.0177 37.5277C51.6304 37.0482 50.7964 36.329 49.0983 36.329C47.2215 36.329 45.5234 37.318 45.5234 39.0562C45.5234 40.1951 45.9404 41.0943 48.2936 42.4128L49.3662 43.0122C52.822 44.9301 53.8942 46.8783 53.8942 49.1858C53.8942 51.0739 53.1793 52.6024 51.2729 53.9509C50.0217 54.8499 48.2936 54.9998 46.8936 54.9998C45.3751 55 43.7661 54.8501 42.6339 54.3406ZM60.8059 42.7722C60.8059 38.9061 60.8059 38.1873 60.7763 37.3778C60.7167 36.5089 60.4485 36.209 59.8825 36.0292C59.5846 35.9392 59.2568 35.9095 58.9292 35.9095C58.6608 35.9095 58.512 35.8493 58.512 35.6097C58.512 35.4599 58.7205 35.3997 59.1377 35.3997C60.1209 35.3997 61.9081 35.4599 62.6529 35.4599C63.3085 35.4599 65.0063 35.3997 66.0194 35.3997C66.347 35.3997 66.5557 35.4599 66.5557 35.6097C66.5557 35.8493 66.4069 35.9095 66.1385 35.9095C65.8706 35.9095 65.662 35.9394 65.3642 35.9992C64.6491 36.1193 64.4406 36.4789 64.3809 37.378C64.3214 38.1873 64.3215 38.9063 64.3215 42.7724V47.268C64.3215 49.7256 64.3215 51.7635 64.4404 52.8424C64.5298 53.5319 64.7087 53.9213 65.4831 54.041C65.8405 54.1011 66.4364 54.1311 66.8237 54.1311C67.1216 54.1311 67.2405 54.2808 67.2405 54.401C67.2405 54.5807 67.0322 54.6706 66.7341 54.6706C65.0063 54.6706 63.2189 54.5807 62.5039 54.5807C61.9081 54.5807 60.1207 54.6706 59.078 54.6706C58.7502 54.6706 58.5715 54.5807 58.5715 54.401C58.5715 54.281 58.6608 54.1311 58.9886 54.1311C59.3759 54.1311 59.6736 54.1011 59.9121 54.041C60.4484 53.9213 60.5974 53.5616 60.6866 52.8125C60.8055 51.7637 60.8055 49.7258 60.8055 47.2682V42.7722M77.697 45.5893C77.697 48.2867 77.7267 50.2347 77.7566 50.7442C77.7862 51.3736 77.8463 52.2726 78.0545 52.5424C78.3823 53.0219 79.4248 53.5613 81.4803 53.5613C83.8635 53.5613 85.6212 53.1419 87.2002 51.823C88.8982 50.4146 89.4347 48.1368 89.4347 45.4997C89.4347 42.2631 88.1536 40.165 86.9917 39.1463C84.5785 36.9884 81.7188 36.7188 79.6633 36.7188C79.1266 36.7188 78.2628 36.7786 78.0543 36.8985C77.8161 36.9884 77.7265 37.1084 77.7265 37.4079C77.6968 38.2772 77.6968 40.3751 77.6968 42.3828V45.5893H77.697ZM74.1818 42.7722C74.1818 38.9061 74.1818 38.1873 74.1517 37.3778C74.092 36.5089 73.8538 36.2389 73.0198 35.9991C72.8111 35.9392 72.3642 35.9093 71.9771 35.9093C71.7089 35.9093 71.5303 35.8192 71.5303 35.6394C71.5303 35.4597 71.7388 35.3995 72.1261 35.3995C73.4966 35.3995 75.1646 35.4597 75.9096 35.4597C76.7137 35.4597 78.5908 35.3995 80.1698 35.3995C83.4466 35.3995 87.8555 35.3995 90.7155 38.3066C92.0263 39.6255 93.1881 41.7531 93.1881 44.7803C93.1881 47.9872 91.8178 50.4146 90.3282 51.883C89.1366 53.0816 86.3659 54.8798 81.5398 54.8798C80.5865 54.8798 79.4546 54.7899 78.412 54.7299C77.3693 54.6398 76.4158 54.5801 75.7606 54.5801C75.4625 54.5801 74.8965 54.6102 74.2711 54.6102C73.6456 54.64 72.99 54.6701 72.4535 54.6701C72.1261 54.6701 71.9473 54.5801 71.9473 54.4005C71.9473 54.2805 72.0367 54.1305 72.3642 54.1305C72.7514 54.1305 73.0495 54.1006 73.2879 54.0404C73.8242 53.9208 73.9731 53.4414 74.0625 52.692C74.1816 51.6133 74.1816 49.6053 74.1816 47.2675V42.7722M99.8899 42.7722C99.8899 38.9061 99.8899 38.1873 99.8602 37.3778C99.8005 36.5089 99.5624 36.2389 98.7281 35.9991C98.5197 35.9392 98.0726 35.9093 97.6854 35.9093C97.4176 35.9093 97.2386 35.8192 97.2386 35.6394C97.2386 35.4597 97.4473 35.3995 97.8344 35.3995C99.2049 35.3995 100.873 35.4597 101.618 35.4597C102.452 35.4597 108.261 35.4895 108.768 35.4597C109.244 35.4296 109.661 35.3399 109.87 35.31C110.019 35.2797 110.168 35.19 110.287 35.19C110.436 35.19 110.466 35.31 110.466 35.4298C110.466 35.6096 110.317 35.9095 110.257 37.0783C110.228 37.3479 110.168 38.4569 110.108 38.7564C110.079 38.8762 110.019 39.176 109.81 39.176C109.632 39.176 109.602 39.0562 109.602 38.8463C109.602 38.6666 109.572 38.217 109.423 37.9172C109.214 37.4677 109.006 37.1082 107.695 36.988C107.248 36.928 104.12 36.8684 103.584 36.8684C103.465 36.8684 103.405 36.9581 103.405 37.1082V43.4018C103.405 43.5515 103.435 43.6714 103.584 43.6714C104.18 43.6714 107.576 43.6714 108.172 43.6115C108.797 43.5515 109.185 43.4917 109.423 43.2221C109.632 43.0423 109.721 42.8924 109.84 42.8924C109.959 42.8924 110.049 43.0122 110.049 43.1619C110.049 43.3119 109.989 43.7312 109.84 45.0202C109.78 45.5298 109.721 46.5487 109.721 46.7285C109.721 46.9381 109.691 47.298 109.453 47.298C109.274 47.298 109.214 47.208 109.214 47.088C109.185 46.8184 109.185 46.4888 109.125 46.1591C108.976 45.6495 108.648 45.2599 107.665 45.1699C107.189 45.1099 104.21 45.0501 103.555 45.0501C103.435 45.0501 103.405 45.1699 103.405 45.3199V47.3578C103.405 48.2269 103.376 50.3847 103.405 51.1339C103.465 52.872 104.269 53.2616 106.951 53.2616C107.636 53.2616 108.738 53.2317 109.423 52.9318C110.079 52.6325 110.377 52.0928 110.555 51.044C110.615 50.7743 110.674 50.6546 110.853 50.6546C111.062 50.6546 111.092 50.9842 111.092 51.2539C111.092 51.8229 110.883 53.5613 110.734 54.0705C110.555 54.7299 110.317 54.7299 109.334 54.7299C107.368 54.7299 105.789 54.7001 104.508 54.6398C103.227 54.6101 102.244 54.58 101.469 54.58C101.171 54.58 100.605 54.6101 99.98 54.6101C99.3545 54.6398 98.699 54.6699 98.1622 54.6699C97.8349 54.6699 97.6563 54.58 97.6563 54.4003C97.6563 54.2803 97.7455 54.1304 98.073 54.1304C98.4603 54.1304 98.7585 54.1004 98.9966 54.0403C99.5329 53.9206 99.6817 53.4413 99.7711 52.6918C99.8903 51.6133 99.8902 49.6053 99.8902 47.2675L99.8899 42.7722ZM121.041 44.7504C121.041 45.02 121.1 45.1099 121.279 45.1999C121.845 45.3799 122.62 45.4397 123.275 45.4397C124.318 45.4397 124.675 45.3498 125.122 45.02C125.927 44.4508 126.82 43.3418 126.82 41.2439C126.82 37.6476 124.377 36.7186 122.828 36.7186C122.173 36.7186 121.547 36.7484 121.279 36.8085C121.1 36.8685 121.041 36.9581 121.041 37.168V44.7504ZM117.704 42.7722C117.704 38.9061 117.704 38.1873 117.674 37.3778C117.615 36.5089 117.377 36.2389 116.542 35.9991C116.334 35.9392 115.887 35.9093 115.5 35.9093C115.232 35.9093 115.053 35.8192 115.053 35.6394C115.053 35.4597 115.262 35.3995 115.649 35.3995C117.019 35.3995 118.687 35.4597 119.224 35.4597C120.117 35.4597 122.501 35.3995 123.305 35.3995C124.973 35.3995 126.88 35.5496 128.28 36.4786C129.025 36.988 130.127 38.2768 130.127 39.985C130.127 41.8731 129.054 43.5514 126.493 45.6192C128.816 48.4961 130.663 50.8042 132.242 52.3923C133.702 53.8606 134.625 53.9806 135.043 54.0704C135.311 54.1304 135.46 54.1304 135.668 54.1304C135.877 54.1304 135.996 54.2801 135.996 54.4003C135.996 54.6101 135.817 54.6699 135.489 54.6699H132.987C131.527 54.6699 130.812 54.5201 130.127 54.1605C128.995 53.5912 128.012 52.3923 126.552 50.4144C125.509 49.0357 124.407 47.3273 124.079 46.9377C123.931 46.788 123.781 46.7581 123.603 46.7581L121.249 46.6982C121.13 46.6982 121.041 46.7581 121.041 46.908V47.2675C121.041 49.635 121.07 51.6131 121.19 52.692C121.279 53.4414 121.398 53.9208 122.202 54.0404C122.59 54.1006 123.156 54.1305 123.483 54.1305C123.692 54.1305 123.811 54.2803 123.811 54.4005C123.811 54.5801 123.603 54.6701 123.275 54.6701C121.756 54.6701 119.581 54.5801 119.194 54.5801C118.687 54.5801 117.019 54.6701 115.976 54.6701C115.649 54.6701 115.47 54.5801 115.47 54.4005C115.47 54.2805 115.559 54.1305 115.887 54.1305C116.274 54.1305 116.572 54.1006 116.81 54.0404C117.347 53.9208 117.495 53.4414 117.585 52.692C117.704 51.6133 117.704 49.6053 117.704 47.2675V42.7722" fill="#44516F"/>
</g>
<defs>
<clipPath id="clip0_29_287">
<rect width="136" height="55" fill="white"/>
</clipPath>
</defs>
</svg>
