<svg width="251" height="69" viewBox="0 0 251 69" fill="none" xmlns="http://www.w3.org/2000/svg">
<g id="Silicon_Valley_Bank_logo 1">
<g id="Group">
<path id="Vector" d="M234.57 42.85H230.41V44.42L231.86 44.73V60.17H234.57V42.85ZM234.69 53.79L238.71 60.17H241.94V58.72L240.66 58.51L237.26 53.21L240.02 50L241.45 49.81V48.14H236.69V49.76L237.95 49.93L234.69 53.79ZM225.32 51.8C225.32 50.52 224.96 50.04 224.01 50.04C223.2 50.04 222.23 50.49 221.54 51.04V60.17H218.83V50.11L217.38 49.8V48.13H221.09L221.4 49.53C222.49 48.48 223.71 47.82 225.16 47.82C226.94 47.82 228.01 48.82 228.01 50.91V58.55L229.46 58.74V60.17H225.32V51.8ZM216.31 58.69C215.24 58.71 215.03 58.52 215.03 57.57V51.6C215.03 48.86 213.7 47.82 211.13 47.82C209.25 47.82 207.68 48.37 206.4 49.18L207.18 50.87C208.27 50.32 209.35 49.97 210.56 49.97C211.99 49.97 212.32 50.73 212.32 52.06V52.99H211.51C207.61 52.99 206.01 54.11 206.01 56.84C206.01 59.39 207.42 60.48 209.51 60.48C211.01 60.48 211.84 59.84 212.53 59.13C212.77 60.11 213.53 60.48 214.57 60.48C215.31 60.48 216.02 60.27 216.47 60.03L216.31 58.69ZM212.32 57.72C211.87 58.22 211.2 58.62 210.27 58.62C209.25 58.62 208.75 58.1 208.75 56.67C208.75 54.93 209.51 54.48 211.53 54.48H212.32V57.72ZM191.59 43.71V45.23L193.23 45.51V58.45L191.59 58.71V60.16H198.89C201.93 60.16 204.05 58.85 204.05 55.59C204.05 53 202.62 51.76 200.89 51.43C202.46 50.98 203.32 49.84 203.32 48.08C203.32 45.56 202.08 43.7 198.44 43.7H191.59V43.71ZM196.14 50.8V45.5H198.02C199.87 45.5 200.37 46.5 200.37 48.21C200.37 49.92 199.96 50.8 198.13 50.8H196.14ZM196.14 58.41V52.53H198.35C200.32 52.53 201.06 53.48 201.06 55.38C201.06 57.45 200.3 58.4 198.23 58.4H196.14V58.41ZM183.87 49.77V48.13H188.39V49.8L187.32 49.99L184.04 60.15C182.92 63.67 181.42 64.57 178.85 65.1L178.21 63.1C180.49 62.77 181.47 61.84 181.99 60.17H181.13L177.83 49.97L176.76 49.8V48.13H181.83V49.77L180.59 49.96L182.21 55.5C182.47 56.45 182.71 57.57 182.83 58.5H182.85C182.97 57.6 183.21 56.57 183.52 55.5L185.19 49.93L183.87 49.77ZM175.6 53.67C175.6 49.34 173.94 47.82 170.96 47.82C167.89 47.82 165.97 49.65 165.97 54.12C165.97 58.64 167.8 60.47 171.23 60.47C173.06 60.47 174.3 59.99 175.49 59.04L174.71 57.61C173.76 58.2 172.97 58.59 171.62 58.59C169.53 58.59 168.86 57.52 168.84 54.74H175.62V53.67H175.6ZM168.82 53.08C168.96 50.34 169.61 49.47 170.94 49.47C172.51 49.47 172.87 50.42 172.87 53.08H168.82ZM164.75 60.02C164.25 60.29 163.58 60.48 162.79 60.48C160.75 60.48 160.13 59.18 160.13 57.27V44.73L158.66 44.42V42.85H162.85V57.52C162.85 58.24 163.05 58.56 163.59 58.56C163.82 58.56 164.11 58.51 164.36 58.42L164.75 60.02ZM158.43 60.02C157.93 60.29 157.26 60.48 156.47 60.48C154.43 60.48 153.81 59.18 153.81 57.27V44.73L152.33 44.42V42.85H156.52V57.52C156.52 58.24 156.72 58.56 157.26 58.56C157.49 58.56 157.78 58.51 158.03 58.42L158.43 60.02ZM151.63 58.69C150.56 58.71 150.34 58.52 150.34 57.57V51.6C150.34 48.86 149.01 47.82 146.44 47.82C144.56 47.82 142.99 48.37 141.71 49.18L142.49 50.87C143.58 50.32 144.65 49.97 145.87 49.97C147.3 49.97 147.63 50.73 147.63 52.06V52.99H146.82C142.92 52.99 141.32 54.11 141.32 56.84C141.32 59.39 142.72 60.48 144.82 60.48C146.32 60.48 147.15 59.84 147.84 59.13C148.08 60.11 148.84 60.48 149.89 60.48C150.63 60.48 151.34 60.27 151.79 60.03L151.63 58.69ZM147.63 57.72C147.18 58.22 146.51 58.62 145.59 58.62C144.57 58.62 144.07 58.1 144.07 56.67C144.07 54.93 144.83 54.48 146.85 54.48H147.63V57.72ZM135.98 60.17H133.24L128.84 45.47L127.51 45.23V43.71H133.53V45.23L131.94 45.47L134.25 54.06C134.75 55.96 134.84 56.53 134.99 57.44H135.04C135.16 56.56 135.25 55.97 135.78 54.04L138.09 45.48L136.47 45.24V43.72H141.66V45.24L140.33 45.48L135.98 60.17ZM121.99 51.8C121.99 50.52 121.63 50.04 120.68 50.04C119.87 50.04 118.9 50.49 118.21 51.04V60.17H115.5V50.11L114.05 49.8V48.13H117.76L118.07 49.53C119.16 48.48 120.38 47.82 121.83 47.82C123.61 47.82 124.68 48.82 124.68 50.91V58.55L126.13 58.74V60.17H121.99V51.8ZM107.41 47.82C104.3 47.82 102.27 49.58 102.27 54.1C102.27 58.64 104.32 60.47 107.43 60.47C110.57 60.47 112.59 58.66 112.59 54.14C112.6 49.63 110.55 47.82 107.41 47.82ZM107.44 58.79C105.73 58.79 105.18 57.53 105.18 54.13C105.18 50.75 105.7 49.54 107.42 49.54C109.16 49.54 109.7 50.78 109.7 54.13C109.7 57.53 109.17 58.79 107.44 58.79ZM100.69 59.07C99.6904 59.93 98.4304 60.47 96.6204 60.47C93.5704 60.47 91.6004 58.54 91.6004 54.12C91.6004 49.51 93.7604 47.82 96.7104 47.82C98.2804 47.82 99.4704 48.23 100.32 48.96V51.7H98.4704L98.1104 49.85C97.8004 49.61 97.3004 49.52 96.7604 49.52C95.1904 49.52 94.5004 50.57 94.5004 54.02C94.5004 57.68 95.3504 58.61 97.1604 58.61C98.2304 58.61 99.1104 58.18 99.8704 57.68L100.69 59.07ZM89.0804 60.17H86.3704V50.11L84.9204 49.8V48.13H89.0804V60.17ZM84.1104 60.02C83.6104 60.29 82.9404 60.48 82.1504 60.48C80.1104 60.48 79.4904 59.18 79.4904 57.27V44.73L78.0204 44.42V42.85H82.2104V57.52C82.2104 58.24 82.4104 58.56 82.9504 58.56C83.1804 58.56 83.4704 58.51 83.7204 58.42L84.1104 60.02ZM76.5104 60.17H73.8004V50.11L72.3504 49.8V48.13H76.5104V60.17ZM66.4404 50.27C69.2504 51.22 70.9604 52.39 70.9604 55.67C70.9604 58.26 69.4604 60.47 65.5104 60.47C63.5604 60.47 62.0104 60.09 61.0404 59.45V55.93H62.8704L63.4604 58.28C64.0504 58.59 64.5504 58.66 65.3404 58.66C67.4804 58.66 68.2204 57.47 68.2204 55.97C68.2204 54.26 67.2404 53.64 65.3904 53C62.3004 51.93 61.1304 50.62 61.1304 47.89C61.1304 44.87 63.1504 43.4 66.2404 43.4C67.7404 43.4 69.1704 43.71 70.1904 44.26V47.73H68.3604L67.7904 45.56C67.3104 45.32 66.7704 45.23 66.1504 45.23C64.4904 45.23 63.6804 46.04 63.6804 47.46C63.6804 49.04 64.3904 49.56 66.4404 50.27ZM62.6704 26.69L68.3204 16.57H68.3004L62.7204 6.33004L65.3404 4.79004L74.7604 16.58L65.2804 28.25L62.6704 26.69ZM37.9504 12.13C36.5204 12.13 35.3104 12.9 34.5204 13.77V6.79004H30.0704V8.48004L31.6004 8.81004V25.41H33.8004L34.1604 24.11C34.9504 24.98 36.1804 25.75 37.6404 25.75C40.3804 25.75 42.2904 24.37 42.2904 18.77C42.2904 13.54 40.3504 12.13 37.9504 12.13ZM36.8704 23.71C35.9504 23.71 35.0804 23.2 34.5204 22.66V15.37C35.2104 14.73 36.0004 14.32 37.0004 14.32C38.6904 14.32 39.2004 15.6 39.2004 18.9C39.2004 22.36 38.6404 23.71 36.8704 23.71ZM25.2704 14.23V12.47H30.1804V14.26L29.0004 14.46L25.2704 25.4H22.5104L18.7804 14.43L17.6804 14.25V12.46H23.1304V14.22L21.8504 14.43L23.6104 20.16C23.9404 21.23 24.1004 22.13 24.2804 23.15H24.3104C24.4604 22.15 24.7204 21.1 25.0004 20.13L26.6904 14.4L25.2704 14.23ZM12.9304 17.48C15.1804 18.09 16.7704 18.94 16.7704 21.8C16.7704 24.43 14.8804 25.74 11.9604 25.74C10.2204 25.74 8.81036 25.33 7.87036 24.79V21.62H9.86036L10.2704 23.61C10.8104 23.87 11.1104 23.94 11.9304 23.94C13.4904 23.94 14.1004 23.33 14.1004 22.15C14.1004 20.9 13.4104 20.44 11.5904 19.95C9.42036 19.36 7.93036 18.42 7.93036 15.89C7.93036 13.77 9.44036 12.13 12.4304 12.13C14.0904 12.13 15.3204 12.41 16.2704 12.9V16.05H14.3504L13.8904 14.16C13.5104 13.98 13.0704 13.9 12.4604 13.9C11.1804 13.9 10.4604 14.46 10.4604 15.49C10.4804 16.53 11.0904 16.99 12.9304 17.48Z" fill="#44516F"/>
</g>
</g>
</svg>
