<svg width="153" height="153" viewBox="0 0 153 153" fill="none" xmlns="http://www.w3.org/2000/svg">
<g id="the-sun-newspaper 3">
<path id="Vector" fill-rule="evenodd" clip-rule="evenodd" d="M42.9779 55.8161L43.8677 55.9082C44.3424 55.7851 44.7868 56.0304 45.2313 56.0003C45.4385 56.0923 45.706 55.9383 45.8838 56.1225C46.21 56.0915 46.5363 56.1534 46.8617 56.2146C48.3738 56.3066 49.7383 56.798 51.221 57.0742C52.0512 57.3806 52.9704 57.6576 53.7705 58.0259C54.804 58.4873 55.7876 59.0533 56.7058 59.715C58.633 61.035 60.1157 63.0614 60.6499 65.5181C60.6198 65.6102 60.5015 65.6713 60.3832 65.7023C57.5964 66.3166 54.7492 66.8079 52.0219 67.4223C51.221 67.6985 50.332 67.7597 49.5017 67.9446C49.3835 68.0367 49.116 68.0057 48.9675 68.0367C48.1079 68.2518 47.2776 68.4359 46.3878 68.559C46.2696 68.5899 46.21 68.4359 46.1807 68.3438C45.9735 67.7604 45.706 67.208 45.2909 66.7167C44.9051 66.3785 44.5797 65.9801 44.105 65.765C43.5415 65.4268 42.9779 65.2427 42.385 65.0585C41.7031 64.8744 41.1102 64.8434 40.3982 64.6902L39.8354 64.6593L37.6407 64.6283C36.4255 64.7823 35.061 64.9664 33.9347 65.5189C33.164 65.9491 32.5115 66.7167 32.5417 67.6684C32.8679 69.1114 34.4983 69.1733 35.6841 69.6027C37.4042 69.971 39.2417 70.2163 40.9618 70.5235C41.5547 70.5854 42.2072 70.7386 42.8303 70.7695C42.9485 70.8926 43.1859 70.8315 43.3343 70.8926C44.2836 71.0148 45.1432 71.2609 46.0624 71.3839C46.2696 71.476 46.5069 71.445 46.7149 71.5681C47.2483 71.5681 47.6634 71.8141 48.1381 71.9364C49.1461 72.1205 50.1248 72.4586 51.0733 72.796C53.4459 73.5945 55.8176 75.0987 57.063 77.3712C57.5083 78.3221 57.8639 79.3365 57.8639 80.4723C57.9528 81.1478 57.8345 81.8535 57.7456 82.4988C57.5376 83.3283 57.39 84.249 56.9749 85.0166C55.4921 88.4559 52.4378 90.9427 49.1763 92.508C47.9015 93.3065 46.3886 93.7057 44.9654 94.2582C44.1152 94.5683 43.2431 94.8148 42.3564 94.9956C42.0008 95.2107 41.5849 95.1797 41.1999 95.3028C39.0165 95.7648 36.8087 96.1029 34.5872 96.3156C34.2022 96.2854 33.7871 96.4386 33.3711 96.4077C32.9568 96.4997 32.6004 96.4386 32.1559 96.4997C31.3852 96.4077 30.4065 96.5307 29.6651 96.4997C28.361 96.4386 27.1156 96.4386 25.7805 96.2846C24.5351 96.1616 23.2604 95.9155 21.9848 95.7012C21.4808 95.548 20.9172 95.579 20.4433 95.3631C18.0423 94.7495 15.7293 93.8899 13.683 92.477C13.2678 92.1389 12.8226 91.8634 12.4963 91.4634C11.4883 90.5736 10.5397 89.437 10.0055 88.1781C9.44363 87.0156 9.12107 85.7521 9.05701 84.4625C9.14591 84.2784 9.44198 84.4625 9.56104 84.3093C10.5442 84.2425 11.5237 84.1297 12.4963 83.9712C12.9115 83.818 13.475 83.9101 13.8894 83.787C14.3942 83.7569 14.9276 83.6648 15.461 83.6037L15.9356 83.5426C17.0921 83.4195 18.1891 83.2965 19.3456 83.1433C19.7599 83.0203 20.2941 83.0512 20.7093 82.9282C21.2133 82.8663 21.7768 82.7441 22.2809 82.7742C22.7555 82.6829 23.2588 82.652 23.7041 82.5591C24.089 82.5282 24.4454 82.467 24.801 82.498C24.9193 83.4807 25.3344 84.4324 25.9869 85.0769C26.4909 85.5682 27.0839 86.0905 27.7363 86.3366C28.0332 86.6128 28.5078 86.6437 28.8928 86.7969C29.3968 87.0422 30.0199 86.9803 30.5835 87.1652C30.8502 87.1041 31.1764 87.2573 31.4431 87.2264C31.7694 87.3494 32.1845 87.1652 32.4814 87.3494C33.3116 87.3796 34.2895 87.3494 35.061 87.3184C36.0389 87.2264 37.0772 87.1033 37.9963 86.8581C38.9449 86.5509 39.9529 86.0595 40.368 85.0467C40.455 84.8056 40.4869 84.548 40.4612 84.2929C40.4355 84.0378 40.3529 83.7917 40.2196 83.5727C39.6862 82.7441 38.6782 82.467 37.8177 82.1607C35.8923 81.7584 33.9539 81.4206 32.0059 81.1478C31.2352 81.0558 30.4351 80.8708 29.6929 80.7486C28.8626 80.6255 28.0324 80.4104 27.2021 80.1961C23.6739 79.3055 19.9377 78.3229 17.358 75.6821C16.2015 74.3922 15.4308 72.7349 15.5491 70.8616C15.638 67.9136 17.0905 65.4879 18.8701 63.4615C20.3529 61.8954 22.2206 60.3913 24.2367 59.3777C26.4901 58.1799 29.1293 57.3203 31.7686 56.7678C32.5393 56.6448 33.31 56.4606 34.1403 56.3686C34.9999 56.1844 35.9485 56.1534 36.8089 56.0614C37.0168 55.9082 37.2542 56.0304 37.432 55.9693C37.9955 55.9693 38.5591 55.8471 39.0925 55.9082C39.3298 55.9391 39.5672 55.724 39.8339 55.8772C40.8729 55.724 41.9103 55.9701 42.9779 55.8161ZM135.657 66.5333C137.575 66.8056 139.434 67.4104 140.819 68.5899C141.999 69.5273 142.56 71.1005 142.531 72.7341C142.648 72.9159 142.443 73.0063 142.501 73.1572C142.443 75.0328 141.95 76.7592 141.498 78.4816C140.842 80.9867 136.9 95.9711 136.9 95.9711L121.546 96.0013C121.546 96.0013 121.76 95.2091 121.848 94.9662C122.674 91.8809 123.501 88.7956 124.268 85.6801C125.065 82.8068 125.772 79.9326 126.51 76.9981C126.687 76.0607 126.657 74.9113 125.86 74.397C125.36 74.0644 124.74 74.0041 124.121 73.9739C123.855 73.9136 123.59 74.0342 123.266 74.0041C121.672 74.0644 120.139 74.7597 119.193 76.0607C118.329 77.3775 117.427 81.1907 117.427 81.1907L113.692 95.9862L98.1816 95.956C98.388 94.5947 105.916 66.8651 105.916 66.8651L120.256 66.8349L119.371 70.7981L119.459 70.8283C120.314 69.8909 121.318 69.0138 122.468 68.4089C124.444 67.2294 126.747 66.7151 129.106 66.3825C129.815 66.3214 130.463 66.2309 131.171 66.2309C131.85 66.1102 132.676 66.3523 133.442 66.2611C133.443 66.2611 135.066 66.4127 135.657 66.5333ZM102.866 66.8524L95.19 95.9441L80.6207 95.9139C80.6207 95.9139 81.3866 93.0739 81.751 91.2927H81.6319C80.1206 93.1779 78.0442 94.5162 75.8502 95.2758C73.9524 96.006 71.7878 96.31 69.713 96.522C69.3272 96.5831 66.511 96.522 66.511 96.522C64.3758 96.3402 62.2708 95.9441 60.492 94.8503C59.2466 94.0296 58.2385 92.6612 58.1195 91.111L58.0599 90.5331L58.1782 89.1647C58.6235 86.6112 59.453 84.1792 59.9872 81.686C60.2245 81.0169 60.3721 80.3176 60.5507 79.6191C61.677 75.3939 63.8813 66.8556 63.8813 66.8556C63.8813 66.8556 79.0832 66.7905 79.3189 66.8516C78.2815 71.503 76.8591 76.0623 75.7026 80.6835C75.5248 81.2915 75.4359 81.9297 75.2279 82.4774C74.9612 83.9371 74.2786 85.2737 74.3683 86.8247C74.4572 87.2502 74.6056 87.6153 74.9612 87.9193C75.3168 88.1931 75.8209 88.2543 76.2662 88.3448C77.2155 88.5583 78.1648 88.2844 79.0546 88.1011C80.8326 87.6153 82.2264 86.2167 82.7598 84.4228C83.1456 83.3283 83.3536 82.1432 83.7084 81.0177C84.3902 78.2213 85.1316 75.4543 85.8745 72.6579C86.3785 70.7124 86.8826 68.7971 87.3564 66.8516L102.866 66.8524ZM77.8672 63.2956L79.4205 57.656H77.1726L77.6624 55.8161H85.3054L84.7331 57.656H82.6495L80.9334 63.3258L77.8672 63.2956ZM84.2434 63.3369L86.3285 55.8161H89.598L88.8209 58.6363H91.3966L92.2134 55.8161H95.4019L93.3572 63.2956H90.1703L90.8648 60.4754H88.2891L87.4723 63.3369H84.2434ZM95.0336 63.2956L97.0767 55.8161H105.128L104.639 57.4917H99.8159L99.4889 58.6776H103.453L103.004 60.2714H99.0793L98.7118 61.5795H103.535L103.085 63.2543L95.0336 63.2956Z" fill="#44516F"/>
</g>
</svg>
