<svg width="45" height="45" viewBox="0 0 45 45" fill="none" xmlns="http://www.w3.org/2000/svg">
<g id="icons / logo / react">
<path id="Vector" d="M22.5 18.9563C24.4312 18.9563 26.0063 20.5313 26.0063 22.5C26.0063 24.375 24.4312 25.9688 22.5 25.9688C20.5688 25.9688 18.9937 24.375 18.9937 22.5C18.9937 20.5313 20.5688 18.9563 22.5 18.9563ZM13.8187 37.5C15 38.2125 17.5875 37.125 20.5688 34.3125C19.5938 33.2063 18.6375 32.0063 17.7375 30.75C16.2265 30.6054 14.7244 30.3801 13.2375 30.075C12.2812 34.0875 12.6375 36.8438 13.8187 37.5ZM15.15 26.7375L14.6062 25.7813C14.4 26.325 14.1938 26.8688 14.0625 27.3938C14.5688 27.5063 15.1313 27.6 15.7125 27.6938L15.15 26.7375ZM27.4125 25.3125L28.9313 22.5L27.4125 19.6875C26.85 18.6938 26.25 17.8125 25.7062 16.9313C24.6938 16.875 23.625 16.875 22.5 16.875C21.375 16.875 20.3062 16.875 19.2938 16.9313C18.75 17.8125 18.15 18.6938 17.5875 19.6875L16.0687 22.5L17.5875 25.3125C18.15 26.3063 18.75 27.1875 19.2938 28.0688C20.3062 28.125 21.375 28.125 22.5 28.125C23.625 28.125 24.6938 28.125 25.7062 28.0688C26.25 27.1875 26.85 26.3063 27.4125 25.3125ZM22.5 12.7125C22.1437 13.125 21.7687 13.5563 21.3937 14.0625H23.6063C23.2313 13.5563 22.8563 13.125 22.5 12.7125ZM22.5 32.2875C22.8563 31.875 23.2313 31.4438 23.6063 30.9375H21.3937C21.7687 31.4438 22.1437 31.875 22.5 32.2875ZM31.1625 7.50002C30 6.78752 27.4125 7.87502 24.4312 10.6875C25.4062 11.7938 26.3625 12.9938 27.2625 14.25C28.8 14.4 30.3188 14.625 31.7625 14.925C32.7188 10.9125 32.3625 8.15627 31.1625 7.50002ZM29.85 18.2625L30.3937 19.2188C30.6 18.675 30.8062 18.1313 30.9375 17.6063C30.4312 17.4938 29.8687 17.4 29.2875 17.3063L29.85 18.2625ZM32.5688 5.04377C35.325 6.61877 35.625 10.7625 34.4625 15.6C39.225 17.0063 42.6562 19.3313 42.6562 22.5C42.6562 25.6688 39.225 27.9938 34.4625 29.4C35.625 34.2375 35.325 38.3813 32.5688 39.9563C29.8313 41.5313 26.1 39.7313 22.5 36.3C18.9 39.7313 15.1687 41.5313 12.4125 39.9563C9.675 38.3813 9.375 34.2375 10.5375 29.4C5.775 27.9938 2.34375 25.6688 2.34375 22.5C2.34375 19.3313 5.775 17.0063 10.5375 15.6C9.375 10.7625 9.675 6.61877 12.4125 5.04377C15.1687 3.46877 18.9 5.26877 22.5 8.70002C26.1 5.26877 29.8313 3.46877 32.5688 5.04377ZM32.025 22.5C32.6625 23.9063 33.225 25.3125 33.6937 26.7375C37.6312 25.5563 39.8438 23.8688 39.8438 22.5C39.8438 21.1313 37.6312 19.4438 33.6937 18.2625C33.225 19.6875 32.6625 21.0938 32.025 22.5ZM12.975 22.5C12.3375 21.0938 11.775 19.6875 11.3063 18.2625C7.36875 19.4438 5.15625 21.1313 5.15625 22.5C5.15625 23.8688 7.36875 25.5563 11.3063 26.7375C11.775 25.3125 12.3375 23.9063 12.975 22.5ZM29.85 26.7375L29.2875 27.6938C29.8687 27.6 30.4312 27.5063 30.9375 27.3938C30.8062 26.8688 30.6 26.325 30.3937 25.7813L29.85 26.7375ZM24.4312 34.3125C27.4125 37.125 30 38.2125 31.1625 37.5C32.3625 36.8438 32.7188 34.0875 31.7625 30.075C30.3188 30.375 28.8 30.6 27.2625 30.75C26.3625 32.0063 25.4062 33.2063 24.4312 34.3125ZM15.15 18.2625L15.7125 17.3063C15.1313 17.4 14.5688 17.4938 14.0625 17.6063C14.1938 18.1313 14.4 18.675 14.6062 19.2188L15.15 18.2625ZM20.5688 10.6875C17.5875 7.87502 15 6.78752 13.8187 7.50002C12.6375 8.15627 12.2812 10.9125 13.2375 14.925C14.7244 14.6199 16.2265 14.3946 17.7375 14.25C18.6375 12.9938 19.5938 11.7938 20.5688 10.6875Z" fill="#2A354F"/>
</g>
</svg>
