<svg width="37" height="32" viewBox="0 0 37 32" fill="none" xmlns="http://www.w3.org/2000/svg">
<g id="pictures / laurels / 1">
<path id="pictures / laurels" fill-rule="evenodd" clip-rule="evenodd" d="M10.7511 0.222103C9.79635 0.849939 8.83274 1.75283 8.22099 2.59285C7.98687 2.91427 7.64296 3.57144 7.52911 3.9149C7.41151 4.26961 7.32819 4.69137 7.32741 4.93581C7.327 5.06109 7.33964 5.16362 7.35552 5.16362C7.40657 5.16362 7.98156 4.79427 8.29786 4.5583C9.05411 3.99418 9.7648 3.26057 10.2038 2.59102C10.5939 1.99599 10.9593 1.10842 11.0899 0.438739C11.1206 0.280962 11.1532 0.117717 11.1622 0.0759356C11.1882 -0.0438064 11.1171 -0.0185285 10.7511 0.222103ZM25.8452 0.173336C25.9438 0.909742 26.3757 1.99545 26.839 2.67138C27.3427 3.40644 28.2185 4.25877 29.0213 4.79528C29.33 5.00156 29.6061 5.16362 29.6489 5.16362C29.7436 5.16362 29.6332 4.43835 29.4606 3.92692C29.2491 3.3005 28.9039 2.70898 28.4195 2.14307C28.0882 1.7561 27.337 1.03637 26.9312 0.717338C26.5512 0.418523 25.9279 0 25.8628 0C25.8333 0 25.8284 0.0482613 25.8452 0.173336ZM6.59195 0.61032C6.43751 0.851964 6.07942 1.57669 5.93466 1.94058C5.64745 2.66247 5.43553 3.39868 5.33166 4.03539C5.22619 4.68185 5.27247 5.59008 5.44074 6.1761C5.50879 6.41318 5.69022 6.85108 5.72035 6.85108C5.7882 6.85108 6.30627 5.88882 6.50167 5.39987C6.77736 4.71 6.98476 3.92786 7.05652 3.30742C7.13773 2.60543 7.04412 1.58297 6.83274 0.863371C6.7072 0.436005 6.70488 0.433575 6.59195 0.61032ZM30.2676 0.527432C30.2488 0.562194 30.1943 0.734888 30.1465 0.911227C29.7154 2.49956 29.8626 3.9933 30.6185 5.70361C30.7482 5.99702 31.0993 6.63397 31.2125 6.78115L31.2755 6.86309L31.3435 6.73053C31.5606 6.30681 31.7261 5.50739 31.7261 4.88259C31.7261 3.99226 31.45 2.84796 30.9586 1.70221C30.8049 1.34382 30.5015 0.757972 30.3676 0.561181C30.3064 0.471138 30.2993 0.468742 30.2676 0.527432ZM4.02659 3.75041C3.80298 4.26707 3.56232 5.18164 3.43279 6.00691C3.32623 6.68598 3.32698 7.87459 3.43429 8.35926C3.56818 8.96415 3.86415 9.67328 4.10726 9.97173L4.18877 10.0718L4.27185 9.88574C4.71769 8.8874 4.99044 7.30642 4.90314 6.22672C4.83481 5.38127 4.54215 4.38057 4.17722 3.74427L4.09291 3.59725L4.02659 3.75041ZM32.8248 3.71669C32.6504 3.99732 32.3805 4.69596 32.253 5.19676C31.9567 6.35996 32.0352 7.84722 32.4642 9.19664C32.5554 9.48361 32.7864 10.0572 32.8107 10.0569C32.8512 10.0564 33.0814 9.67825 33.2215 9.3821C33.6773 8.41866 33.7707 7.24969 33.5127 5.73763C33.3906 5.02214 33.105 4.00184 32.9375 3.68294L32.8955 3.60286L32.8248 3.71669ZM9.4565 4.48361C8.69848 4.84591 7.96827 5.31988 7.2509 5.91515C6.55201 6.49516 6.10321 7.04446 5.75555 7.74543C5.55916 8.14144 5.33827 8.84177 5.39276 8.89574C5.45556 8.95794 6.40827 8.48677 6.99205 8.10479C8.3576 7.21132 9.19455 6.22709 9.72268 4.89363C9.88448 4.48513 9.94077 4.28547 9.89368 4.28716C9.87814 4.2877 9.68141 4.37612 9.4565 4.48361ZM27.1134 4.46333C27.2842 5.04334 27.6593 5.78552 28.0659 6.34768C28.6769 7.19245 29.7706 8.06362 30.9253 8.62524C31.2064 8.76199 31.4771 8.88322 31.5268 8.89462L31.617 8.91538L31.5725 8.68477C31.4426 8.01272 31.0168 7.20889 30.4753 6.61335C29.8676 5.94515 28.9481 5.24185 27.9946 4.71611C27.6965 4.55175 27.1312 4.28614 27.0794 4.28614C27.0694 4.28614 27.0847 4.36589 27.1134 4.46333ZM1.05654 6.89208C1.05691 7.19809 1.13795 8.0025 1.21217 8.43702C1.49678 10.1036 2.03766 11.3044 2.87747 12.134C3.16607 12.4191 3.55278 12.7234 3.62649 12.7234C3.69666 12.7234 3.61013 11.5843 3.49175 10.9488C3.26939 9.75556 2.87576 8.8088 2.25808 7.98168C2.0272 7.6725 1.27245 6.89397 1.13308 6.82124C1.0609 6.78355 1.0564 6.78773 1.05654 6.89208ZM35.628 7.01129C35.1815 7.39447 34.7132 7.95549 34.3671 8.52166C33.7878 9.46941 33.4166 10.8202 33.3717 12.1447L33.3518 12.7303L33.4564 12.6767C33.6504 12.5774 34.0845 12.2066 34.308 11.9495C34.9052 11.2623 35.3129 10.4185 35.6075 9.25972C35.802 8.49486 35.932 7.54618 35.9114 7.042L35.9006 6.7773L35.628 7.01129ZM6.30709 9.1683C5.76294 9.76896 5.24848 10.5383 4.80898 11.4087C4.3228 12.3717 4.12337 13.1121 4.12337 13.9542C4.12337 14.3482 4.19834 14.9374 4.2557 14.9942C4.29213 15.0303 4.7383 14.5616 5.00963 14.2023C5.48562 13.572 5.96765 12.7092 6.21304 12.0484C6.36397 11.6421 6.49445 11.0612 6.54625 10.5651C6.59021 10.144 6.57136 9.12294 6.51786 9.02827C6.49033 8.97954 6.45962 8.99992 6.30709 9.1683ZM30.4533 9.15446C30.3768 9.84061 30.4056 10.5454 30.5365 11.1878C30.7336 12.1552 31.2653 13.2611 31.9922 14.2156C32.2707 14.5812 32.6973 15.0443 32.7284 15.0148C32.7695 14.9758 32.8486 14.5273 32.8706 14.2084C32.9126 13.5996 32.7647 12.7343 32.5103 12.1C32.2276 11.3954 31.6996 10.4598 31.2395 9.84854C30.976 9.49857 30.5305 8.97728 30.4948 8.97728C30.4829 8.97728 30.4642 9.05702 30.4533 9.15446ZM0.886321 11.3144C0.887071 11.5126 1.11024 12.4473 1.27368 12.9368C1.82788 14.5967 2.48956 15.6329 3.44193 16.3324C3.70058 16.5224 4.18328 16.7928 4.21235 16.764C4.24336 16.7332 4.11618 16.0064 4.00431 15.5752C3.82145 14.8704 3.53206 14.1412 3.19831 13.5446C2.85671 12.9339 2.24632 12.2198 1.67835 11.7666C1.41295 11.5548 0.955157 11.2385 0.914026 11.2385C0.898623 11.2385 0.886151 11.2726 0.886321 11.3144ZM35.8113 11.4011C35.0877 11.8692 34.3475 12.6256 33.9083 13.3458C33.3724 14.2245 32.8793 15.6354 32.7955 16.5297L32.7725 16.7754L32.866 16.7403C33.3408 16.5615 34.0812 15.9515 34.5258 15.3727C35.1293 14.5874 35.7405 13.1559 35.9962 11.929C36.107 11.3974 36.1293 11.2385 36.0928 11.2385C36.0763 11.2385 35.9496 11.3117 35.8113 11.4011ZM5.55984 13.908C5.50188 14.0589 5.35647 14.7507 5.3016 15.1365C5.08364 16.6685 5.15654 18.0933 5.50597 19.1317C5.71234 19.745 6.11837 20.466 6.41808 20.7513L6.53756 20.8651L6.60643 20.6332C6.8022 19.9745 6.91364 19.216 6.94053 18.3595C6.97269 17.3355 6.87724 16.5973 6.6066 15.7777C6.41229 15.1892 5.94509 14.2652 5.65972 13.9051L5.5932 13.8211L5.55984 13.908ZM31.1702 14.1421C30.6122 14.9999 30.2117 16.0891 30.0912 17.0762C30.0389 17.505 30.0483 18.7136 30.1079 19.2182C30.1954 19.9588 30.4014 20.8432 30.4854 20.8383C30.5371 20.8353 30.862 20.4164 31.0327 20.1325C31.3881 19.5412 31.6379 18.7906 31.7446 17.9932C31.8074 17.5237 31.8165 16.2597 31.7611 15.7102C31.6802 14.9081 31.4687 13.8368 31.3915 13.8373C31.3787 13.8374 31.2792 13.9745 31.1702 14.1421ZM0 15.5311C0 15.6382 0.554066 16.4759 0.958429 16.9801C1.28806 17.3911 1.995 18.1166 2.33431 18.3921C2.84281 18.805 3.36794 19.1041 3.92692 19.2995C4.3429 19.4448 5.04347 19.5725 5.04347 19.503C5.04347 19.3743 4.57456 18.6266 4.15711 18.0895C3.81187 17.6455 2.98352 16.8388 2.58989 16.5634C1.98 16.1367 1.20038 15.7821 0.449209 15.5896C0.0116204 15.4776 0 15.476 0 15.5311ZM36.5822 15.5747C35.0277 15.9724 33.7963 16.8228 32.7042 18.2527C32.3933 18.6598 31.8964 19.4844 31.9374 19.525C31.9658 19.5531 32.5231 19.4635 32.7996 19.3865C34.0083 19.0496 35.1351 18.1711 36.2584 16.6898C36.5224 16.3417 36.9393 15.6951 36.9934 15.5499C37.0222 15.4725 36.9688 15.4757 36.5822 15.5747ZM7.37862 19.4142C7.41666 19.6914 7.61856 20.4774 7.77086 20.9409C8.05016 21.7912 8.55931 22.8816 8.95297 23.4725C9.52404 24.3298 10.2571 25.0067 11.0317 25.3919C11.3588 25.5546 11.3882 25.5527 11.362 25.3709C11.3009 24.9486 11.1517 24.3267 11.0002 23.8632C10.3376 21.8366 9.34537 20.4857 7.77147 19.4674C7.57566 19.3407 7.4017 19.237 7.3849 19.237C7.36765 19.237 7.36493 19.3143 7.37862 19.4142ZM29.46 19.315C28.5471 19.8323 27.5358 20.8015 26.9793 21.6924C26.3759 22.6585 25.8642 23.9922 25.6749 25.0918C25.592 25.5734 25.5895 25.5699 25.9159 25.4167C26.6785 25.0585 27.4334 24.3742 28.0075 23.5206C28.6342 22.5889 29.2768 21.0316 29.5245 19.8445C29.6703 19.1456 29.676 19.1927 29.46 19.315ZM2.07873 19.6671C2.07873 19.7131 2.46499 20.227 2.75717 20.5699C3.26926 21.1707 4.05181 21.8998 4.72085 22.3994C5.72928 23.1524 6.74782 23.5675 7.80374 23.656C8.01928 23.674 8.24617 23.6781 8.30795 23.665L8.42027 23.6413L8.2398 23.382C7.90134 22.8958 7.61666 22.5616 7.12219 22.0704C5.79307 20.7498 4.58645 20.0824 2.9477 19.7616C2.46002 19.6661 2.07873 19.6246 2.07873 19.6671ZM34.3909 19.695C32.6768 19.9423 31.2568 20.6878 29.8556 22.0756C29.2986 22.6274 28.5398 23.5852 28.6072 23.6515C28.6533 23.6969 29.3418 23.6573 29.7012 23.5886C30.9529 23.3494 32.1221 22.6669 33.4223 21.4168C33.9239 20.9345 34.333 20.4804 34.6531 20.0507C34.9537 19.647 34.9561 19.6412 34.8199 19.6456C34.7583 19.6476 34.5653 19.6699 34.3909 19.695ZM11.5523 23.2415C11.5523 23.3079 11.8905 23.9446 12.0801 24.2352C12.7788 25.3059 13.5404 26.0079 14.7215 26.67C15.2189 26.9489 16.2933 27.4793 16.7913 27.6917C17.0019 27.7816 17.1692 27.8601 17.1631 27.8662C17.1569 27.8722 17 27.8623 16.8142 27.8441C15.7941 27.7443 14.0727 27.7096 13.4793 27.777C12.4991 27.8882 11.2675 28.413 10.1667 29.1886L10.0053 29.3023L10.0962 29.3494C10.2336 29.4207 10.7757 29.5543 11.1774 29.6159C11.9464 29.7337 13.4834 29.7164 14.4323 29.5794C15.7727 29.3858 16.8022 28.877 17.2763 28.174C17.4391 27.9325 17.4534 27.7717 17.3482 27.3644C17.2186 26.8626 16.9679 26.426 16.5137 25.9116C15.5199 24.7858 13.1117 23.4282 11.7482 23.2251C11.5919 23.2018 11.5523 23.2051 11.5523 23.2415ZM25.1413 23.2389C24.2065 23.4063 22.5794 24.2018 21.4347 25.051C21.2567 25.183 20.9474 25.4489 20.7474 25.6417C20.0434 26.3204 19.6717 26.974 19.5772 27.6994C19.5437 27.9568 19.6385 28.1294 20.0175 28.5012C20.4752 28.9501 20.9932 29.2173 21.8142 29.428C22.9936 29.7307 24.8867 29.791 26.1036 29.5645C26.4949 29.4917 26.9277 29.3592 26.9454 29.3069C26.9652 29.2478 26.1037 28.7107 25.5409 28.4314C24.9577 28.142 24.3392 27.9199 23.8372 27.8198C23.3147 27.7157 21.1518 27.7396 19.9524 27.8628C19.7872 27.8798 19.7929 27.8756 20.1398 27.7251C21.0935 27.3113 22.2795 26.6967 22.8977 26.2958C23.6947 25.7791 24.4451 24.9954 24.9873 24.1136C25.2827 23.6333 25.5002 23.1814 25.4326 23.1887C25.4173 23.1904 25.2862 23.213 25.1413 23.2389ZM4.58342 23.6809C3.80427 23.7769 2.89659 23.9808 2.89659 24.06C2.89659 24.1048 3.5903 24.4959 4.09335 24.7347C4.88259 25.1093 5.55384 25.3521 6.38987 25.5652C7.70257 25.8998 9.04167 25.8546 10.0432 25.4417C10.3422 25.3183 10.3437 25.3224 9.90298 25.0519C8.81812 24.3862 7.36349 23.8601 6.19184 23.7098C5.82899 23.6632 4.86712 23.6459 4.58342 23.6809ZM30.772 23.7074C29.7817 23.8497 28.6511 24.22 27.6853 24.7184C27.1675 24.9856 26.71 25.2748 26.7265 25.3245C26.7423 25.3721 27.1151 25.5227 27.4423 25.6137C28.0608 25.7855 29.0605 25.8361 29.7794 25.7318C31.0325 25.5501 32.8253 24.8848 33.888 24.207C34.0619 24.0961 34.1116 24.049 34.0755 24.0291C33.9806 23.9769 33.3747 23.8274 32.97 23.7564C32.4413 23.6637 31.2594 23.6373 30.772 23.7074ZM9.93358 26.2425C9.87736 26.2504 9.68724 26.2734 9.51112 26.2936C8.65633 26.3919 7.48079 26.7948 6.73187 27.246L6.52901 27.3683L6.65853 27.4219C6.84024 27.4971 7.58551 27.6968 7.98936 27.7785C8.55999 27.8939 9.24157 27.9771 9.89003 28.0104C11.2243 28.0789 12.2186 27.9106 13.1709 27.455C13.5404 27.2782 14.0399 26.959 14.0399 26.8996C14.0399 26.8597 13.7424 26.7504 13.2523 26.6104C12.4489 26.3808 11.6199 26.2627 10.6662 26.2419C10.3195 26.2343 9.98981 26.2346 9.93358 26.2425ZM25.8989 26.2462C25.553 26.2657 24.8289 26.3631 24.4245 26.4445C23.8217 26.5658 22.9321 26.8345 22.9352 26.8943C22.9397 26.9821 23.698 27.4278 24.1376 27.601C24.9119 27.9062 25.5818 28.0206 26.5804 28.0181C27.8218 28.015 29.0525 27.8327 30.0989 27.4967C30.2817 27.438 30.4312 27.3791 30.4312 27.3659C30.4312 27.3218 29.8327 27.002 29.4287 26.8304C28.3038 26.3523 27.2136 26.1719 25.8989 26.2462ZM17.5533 28.8724C17.462 29.0954 17.1657 29.3425 16.2379 29.9692C15.0816 30.7503 14.6928 31.0844 14.5298 31.4371C14.4293 31.6545 14.4329 31.8745 14.5383 31.9508C14.8577 32.1821 15.9656 31.5663 16.6854 30.7573C17.1892 30.1911 17.4573 29.7052 17.57 29.1542C17.6307 28.8576 17.6216 28.7053 17.5533 28.8724ZM19.3922 28.9092C19.3833 29.4834 19.8806 30.363 20.5985 31.0428C21.3407 31.7455 22.143 32.1395 22.4396 31.947C22.5122 31.8998 22.5252 31.8657 22.5252 31.7221C22.5252 31.2894 22.1261 30.8949 20.7532 29.9701C19.7889 29.3205 19.5269 29.1 19.428 28.8545C19.3975 28.7788 19.3942 28.7838 19.3922 28.9092Z" fill="#FFC700"/>
</g>
</svg>
