<svg width="78" height="32" viewBox="0 0 78 32" fill="none" xmlns="http://www.w3.org/2000/svg">
<path id="kisspng-c-java-logo-python-emerge-trainings-5b90ffaff26997 1 (Traced)" fill-rule="evenodd" clip-rule="evenodd" d="M13.1215 0.0360503C13.0861 0.0706082 12.5416 0.235096 11.9114 0.401396C10.4891 0.776855 10.6087 0.736412 9.68367 1.15533C9.25861 1.34789 8.8654 1.49638 8.80976 1.48552C8.75412 1.4745 8.62397 1.56535 8.52026 1.68713C8.4167 1.80891 8.24931 1.90866 8.14822 1.90866C8.04714 1.90866 7.82967 2.02803 7.6649 2.17396C7.49998 2.31989 7.15654 2.56753 6.90151 2.72432C5.51043 3.57966 3.89817 5.48095 2.88144 7.46509C1.28634 10.5779 0.729134 13.682 0.982311 18.0455C1.14476 20.8449 1.75745 23.129 2.92797 25.2994C3.57204 26.4936 5.15369 28.6177 5.40115 28.6207C5.46128 28.6213 5.75387 28.8448 6.0514 29.1172C6.82778 29.8281 8.93975 31.0317 9.41318 31.0332C9.51952 31.0335 9.60638 31.1058 9.60638 31.1937C9.60638 31.2815 9.67455 31.3124 9.7577 31.2622C9.84101 31.2119 10.067 31.2536 10.26 31.3548C11.1768 31.8353 12.4842 31.9835 15.9435 31.9991C19.4793 32.015 21.4109 31.8291 22.3178 31.3858C22.5505 31.2718 22.7774 31.1825 22.8218 31.1873C23.0246 31.2089 24.2483 30.8027 24.5605 30.6101C24.7518 30.4921 24.9093 30.4542 24.9106 30.526C24.912 30.5979 24.9804 30.5547 25.0628 30.4302C25.2293 30.1787 25.2791 23.5989 25.1157 23.4394C25.0597 23.3848 24.9381 23.3958 24.8452 23.4637C24.7523 23.5318 24.3286 23.7062 23.9036 23.8514C23.4785 23.9967 22.9917 24.173 22.8216 24.2432C22.6516 24.3135 22.0952 24.4816 21.5851 24.617C21.0751 24.7525 20.4412 24.9284 20.1764 25.0081C19.4056 25.2404 16.4157 25.3437 15.3777 25.1743C13.5169 24.8702 11.9808 23.8354 10.9944 22.2213C10.6141 21.5991 10.1076 19.8564 9.93159 18.5654C9.78707 17.5045 9.86852 13.4119 10.0436 12.9353C10.1222 12.7221 10.2735 12.1742 10.3801 11.7177C10.4868 11.2612 10.6494 10.7519 10.7417 10.5859C10.8338 10.4199 10.9163 10.2501 10.9248 10.2086C10.9757 9.96321 11.616 9.01626 12.0785 8.50227C13.2941 7.15165 14.809 6.64943 17.263 6.78328C18.8889 6.87217 20.0183 7.0771 20.8356 7.43173C21.1035 7.54808 21.4001 7.64316 21.4947 7.64316C21.5893 7.64316 21.7874 7.70518 21.9351 7.78109C22.3964 8.01831 23.8549 8.57199 23.885 8.52144C23.9974 8.33311 24.4382 7.27117 24.9075 6.05863C24.9718 5.89263 25.1149 5.55308 25.2257 5.30409C25.3366 5.05509 25.4349 4.81741 25.4443 4.77591C25.4992 4.53446 26.1714 2.84716 26.3003 2.62759C26.3848 2.48347 26.4524 2.27975 26.4505 2.17487C26.4465 1.94564 24.9086 1.23909 24.0968 1.09346C23.7781 1.03627 23.5172 0.926857 23.5172 0.850196C23.5172 0.773535 23.4119 0.750297 23.2833 0.798436C23.1547 0.846727 22.9635 0.818053 22.8583 0.734903C22.7532 0.651602 22.1106 0.462665 21.4306 0.314927C20.4832 0.109088 19.3745 0.0377109 16.6899 0.00979298C14.7627 -0.0102777 13.1569 0.00149245 13.1215 0.0360503ZM37.9948 5.6311C37.938 5.68634 37.8917 7.48591 37.8917 9.63016V13.5286H33.8024H29.7129L29.6678 16.3333C29.6429 17.8759 29.6514 19.1662 29.6869 19.2006C29.7223 19.235 31.5828 19.263 33.8215 19.263H37.8917V23.1112V26.9593H40.8284H43.7651V23.1112V19.263H47.9354H52.1057L52.1913 18.9235C52.2385 18.7367 52.2573 17.4635 52.2331 16.094L52.1889 13.604L47.977 13.5639L43.7651 13.5237V9.52709V5.53045H40.9315C39.3728 5.53045 38.0513 5.57572 37.9948 5.6311ZM63.7663 5.74006C63.7211 5.8552 63.7059 7.65493 63.7327 9.73926L63.7812 13.5289L59.6466 13.5287L55.512 13.5286V16.3934V19.2581L59.6158 19.2984L63.7197 19.3385L63.7504 23.1112L63.7812 26.8839L66.6754 26.9249L69.5698 26.966L69.6573 26.6231C69.7053 26.4345 69.7243 24.7013 69.6996 22.7715L69.6546 19.2627L73.7892 19.2629L77.9238 19.263V16.3958V13.5286H73.8279H69.7319V9.76824C69.7319 7.70005 69.6897 5.90047 69.6381 5.76918C69.5573 5.5635 69.1508 5.53045 66.6966 5.53045C64.4092 5.53045 63.8325 5.57165 63.7663 5.74006Z" fill="#2A354F"/>
</svg>
