<svg width="60" height="67" viewBox="0 0 60 67" fill="none" xmlns="http://www.w3.org/2000/svg">
<path id="pngwing 3 (Traced)" fill-rule="evenodd" clip-rule="evenodd" d="M28.6143 0.138855C27.7986 0.379902 27.9517 0.296981 21.1316 4.19568C17.8926 6.04731 13.3095 8.66585 10.9469 10.0148C0.823234 15.795 1.21926 15.5242 0.428869 17.2053L0 18.1173V33.4809V48.8445L0.436628 49.7776C0.676767 50.2909 1.11727 50.9579 1.41547 51.2598C2.31506 52.1707 9.44965 56.207 11.2656 56.8324C15.5552 58.3097 19.735 57.0423 21.3062 53.7877C22.213 51.9092 22.1709 52.7613 22.1709 36.3109C22.1709 21.7048 22.1652 21.3879 21.9019 21.1928C21.7018 21.0447 21.1659 20.9936 19.8103 20.9936C18.2205 20.9936 17.9583 21.0264 17.7582 21.2502C17.548 21.4854 17.5286 22.7098 17.5258 35.9473C17.5224 52.2138 17.6054 50.974 16.4498 52.0289C15.7448 52.6724 14.9687 52.8945 13.7335 52.806C12.6134 52.7257 11.8847 52.3778 7.41339 49.7882L4.57275 48.1429L4.53741 33.5336C4.50956 21.9526 4.53825 18.8948 4.67598 18.7812C4.83561 18.6498 7.91113 16.8815 15.1039 12.7855C16.6282 11.9176 20.5433 9.68419 23.8043 7.82246C27.0653 5.96074 29.8559 4.43743 30.0055 4.43743C30.2472 4.43743 32.9708 5.96424 45.6582 13.2125C47.5254 14.2792 50.4561 15.9504 52.1709 16.9263C54.2534 18.1113 55.3455 18.8132 55.4598 19.0403C55.5923 19.3032 55.6315 22.5889 55.633 33.5705C55.635 46.882 55.6201 47.7792 55.3926 48.0541C55.2593 48.2152 53.1236 49.5046 50.6467 50.9193C48.1697 52.3342 42.5828 55.524 38.2312 58.008C33.8763 60.4938 30.1696 62.5235 29.9864 62.5225C29.8034 62.5215 28.157 61.6379 26.3279 60.5588C24.4988 59.4798 22.9549 58.5967 22.897 58.5963C22.8392 58.596 22.278 58.8737 21.6499 59.2134C21.0219 59.5529 20.0881 59.9716 19.5748 60.1436C18.5126 60.4994 18.2363 60.7307 18.4954 61.0469C18.7014 61.2983 26.8469 66.0751 27.9093 66.5676C28.9085 67.0308 30.3538 67.1338 31.4254 66.8184C31.8646 66.6892 34.2819 65.4036 36.9572 63.8766C39.5708 62.3849 43.6732 60.0422 46.0739 58.6707C48.4746 57.2992 52.1224 55.2218 54.1801 54.0542C58.2691 51.7339 58.9118 51.2294 59.6079 49.7936L60 48.9848V33.551V18.1173L59.5585 17.1736C59.3052 16.6323 58.8622 15.9868 58.5193 15.6593C58.1584 15.3148 55.8067 13.8782 52.5866 12.0352C49.6524 10.3557 44.2275 7.25015 40.5312 5.13391C31.5617 -0.00131024 31.7227 0.0796461 30.3459 0.0103346C29.6746 -0.0234793 28.9921 0.0273118 28.6143 0.138855ZM33.5453 20.4386C30.0152 20.9977 27.2501 22.6492 26.156 24.852C25.5538 26.0644 25.3789 27.0334 25.454 28.7429C25.5097 30.0115 25.5764 30.3331 25.9521 31.1462C26.9216 33.244 28.9779 34.4858 32.7021 35.2224C33.3118 35.3429 35.1625 35.5983 36.8148 35.7898C43.9433 36.6158 45.5317 37.4444 44.9909 40.0555C44.7254 41.3375 43.8928 42.1294 42.2633 42.6503C40.1306 43.3322 34.9444 43.3303 32.8406 42.6468C30.6885 41.9475 29.7425 40.9289 29.2986 38.8327C29.0604 37.7082 29.0207 37.6901 26.8063 37.6901C24.9094 37.6901 24.8759 37.6956 24.6549 38.0371C24.4165 38.4054 24.4462 39.1155 24.7605 40.5664C25.3799 43.4254 27.4387 45.488 30.7621 46.5789C32.7485 47.2309 34.2279 47.4178 37.4827 47.4279C40.7792 47.4382 42.3545 47.2335 44.2725 46.5455C48.2694 45.112 50.3425 42.1879 50.0467 38.4013C49.9165 36.7364 49.505 35.7098 48.5552 34.6819C46.898 32.8881 44.9376 32.2388 38.1698 31.2424C34.3484 30.6798 32.0733 30.1953 31.2653 29.7723C30.6144 29.4315 30.3504 28.9226 30.3553 28.0186C30.3633 26.5194 31.1382 25.6136 32.8982 25.0457C34.1767 24.633 38.1395 24.5079 39.8042 24.8276C42.3917 25.3246 43.7067 26.4266 44.271 28.571C44.5589 29.6652 44.6185 29.6926 46.7189 29.6926C49.2917 29.6926 49.3826 29.5717 48.7614 26.9725C48.4115 25.508 47.7794 24.3775 46.7102 23.3045C45.3744 21.9637 43.8661 21.2063 41.3802 20.6282C40.2807 20.3725 34.8 20.2399 33.5453 20.4386Z" fill="#2A354F"/>
</svg>
