<svg width="87" height="43" viewBox="0 0 87 43" fill="none" xmlns="http://www.w3.org/2000/svg">
<path id="php-logo-text-only-php-logo-1442959 (Traced)" fill-rule="evenodd" clip-rule="evenodd" d="M36.6798 3.2418C36.3145 5.02482 34.7551 12.6665 33.2144 20.2234L30.4131 33.9633L33.7078 33.9808C35.52 33.9903 37.0175 33.9834 37.0357 33.9654C37.0539 33.9474 37.9356 29.6464 38.9948 24.4074C40.0541 19.1685 40.9383 14.8104 40.9596 14.7229L40.9985 14.5636L44.241 14.599C46.9178 14.6282 47.5724 14.6539 47.9933 14.746C49.0016 14.967 49.5541 15.3278 49.8742 15.9745C50.04 16.3094 50.0644 16.4455 50.0889 17.1734C50.1043 17.6328 50.0815 18.1969 50.037 18.4539C49.9933 18.7065 49.2709 22.2708 48.4316 26.3746C47.5924 30.4783 46.9057 33.8721 46.9057 33.9164C46.9057 33.9779 47.7016 33.9969 50.2705 33.9969C52.1211 33.9969 53.6352 33.9736 53.6352 33.9452C53.6352 33.9168 54.3537 30.381 55.232 26.0879C56.1102 21.7948 56.8813 17.9858 56.9458 17.6236C57.0333 17.1316 57.0626 16.5906 57.0616 15.4867C57.0605 14.1721 57.0438 13.9495 56.9107 13.475C56.2443 11.0994 54.3012 9.8298 50.4071 9.22565C49.8781 9.14361 48.8787 9.11083 45.9167 9.07844L42.1067 9.03672L43.0008 4.73672C43.4925 2.37172 43.9171 0.338491 43.9442 0.218359L43.9935 0H40.6687H37.3439L36.6798 3.2418ZM6.8679 9.1207C6.8677 9.17022 0.105362 42.5532 0.0356192 42.8488L0 43L3.34908 42.9997L6.69817 42.9995L7.60313 38.5521C8.10084 36.1061 8.52324 34.0805 8.5418 34.0508C8.56036 34.0211 10.1946 33.9969 12.1736 33.9969C16.2296 33.9969 17.047 33.9441 19.0143 33.5552C20.8651 33.1894 21.9713 32.7361 23.314 31.7935C24.0684 31.2638 25.3614 30.054 26.0901 29.1958C27.9307 27.0283 29.2326 24.0682 29.7111 20.9625C29.892 19.7889 29.9592 17.7794 29.8473 16.8883C29.4238 13.5141 27.6842 11.1152 24.8102 9.94207C23.8257 9.54022 22.6036 9.26509 21.2449 9.13952C20.3804 9.05963 6.86824 9.04196 6.8679 9.1207ZM63.9036 9.41687C63.8015 9.88772 57.102 42.9421 57.102 42.9753C57.102 42.9896 58.607 42.9934 60.4465 42.9838L63.791 42.9664L64.6917 38.532C65.187 36.0931 65.5938 34.0773 65.5956 34.0524C65.5974 34.0274 67.4267 33.9942 69.6605 33.9784C74.0111 33.9478 74.2187 33.9342 76.1351 33.5553C78.5597 33.0759 80.0803 32.2781 81.9381 30.5106C82.6566 29.827 83.6456 28.6631 84.171 27.8828C84.7013 27.0953 85.512 25.4986 85.8804 24.5163C86.856 21.9146 87.2465 18.5749 86.8419 16.293C86.2123 12.7424 84.0141 10.3815 80.5227 9.50616C78.9162 9.10337 79.1216 9.11257 71.2301 9.08758L63.98 9.06467L63.9036 9.41687ZM17.7782 14.5849C19.1315 14.716 20.7927 15.0598 21.3901 15.3324C22.0897 15.6517 22.584 16.3618 22.812 17.3747C22.968 18.0672 22.9184 19.8573 22.7124 20.9809C21.994 24.897 20.6171 27.1487 18.5243 27.8299C17.4719 28.1724 15.7484 28.4757 14.0395 28.6192C13.0705 28.7006 9.6551 28.7126 9.6551 28.6347C9.6551 28.5696 12.4133 14.9517 12.4785 14.695L12.5239 14.5162L13.4516 14.4907C14.714 14.4561 16.9505 14.5048 17.7782 14.5849ZM74.8776 14.5865C76.5592 14.7458 78.2176 15.1398 78.7932 15.5166C79.5975 16.0432 80.0097 17.1228 80.0097 18.7026C80.0097 19.6165 79.9299 20.2893 79.6698 21.5672C79.0165 24.7763 77.755 26.9189 76.0846 27.6562C75.3946 27.9608 73.624 28.3443 71.9206 28.5582C71.6029 28.5981 70.3105 28.6475 69.0487 28.6681C66.8381 28.7041 66.7546 28.701 66.7563 28.5797C66.7574 28.5105 67.3942 25.3246 68.1714 21.5L69.5846 14.5461L70.5317 14.5048C71.723 14.4527 73.898 14.4936 74.8776 14.5865Z" fill="#2A354F"/>
</svg>
