<svg width="50" height="50" viewBox="0 0 50 50" fill="none" xmlns="http://www.w3.org/2000/svg">
<g id="icons / logo / apple">
<path id="Vector" d="M35.5206 42.25C33.4789 44.2292 31.2498 43.9167 29.1039 42.9792C26.8331 42.0208 24.7498 41.9792 22.3539 42.9792C19.3539 44.2708 17.7706 43.8958 15.9789 42.25C5.81227 31.7708 7.31227 15.8125 18.8539 15.2292C21.6664 15.375 23.6248 16.7708 25.2706 16.8958C27.7289 16.3958 30.0831 14.9583 32.7081 15.1458C35.8539 15.3958 38.2289 16.6458 39.7914 18.8958C33.2914 22.7917 34.8331 31.3542 40.7914 33.75C39.6039 36.875 38.0623 39.9792 35.4998 42.2708L35.5206 42.25ZM25.0623 15.1042C24.7498 10.4583 28.5206 6.625 32.8539 6.25C33.4581 11.625 27.9789 15.625 25.0623 15.1042Z" fill="#2A354F"/>
</g>
</svg>
