<svg width="120" height="60" viewBox="0 0 120 60" fill="none" xmlns="http://www.w3.org/2000/svg">
<g id="angel-ar21 1">
<path id="Vector" d="M46.4649 24.596L50.8119 36.224H48.1659L47.2859 33.624H42.9399L42.0349 36.224H39.4549L43.8519 24.596H46.4649ZM46.6119 31.73L45.1519 27.462H45.1199L43.6049 31.728L46.6119 31.73ZM53.7659 27.805V28.975H53.8159C54.0779 28.515 54.4719 28.142 54.9459 27.907C55.3926 27.6887 55.8828 27.5742 56.3799 27.572C56.899 27.5549 57.4163 27.6409 57.9019 27.825C58.27 27.9725 58.5928 28.2142 58.8379 28.526C59.0787 28.8518 59.2428 29.2278 59.3179 29.626C59.4139 30.096 59.4599 30.572 59.4559 31.051V36.231H57.1529V31.471C57.1529 30.7756 57.0442 30.257 56.8269 29.915C56.6096 29.573 56.2242 29.402 55.6709 29.402C55.0409 29.402 54.5886 29.5886 54.3139 29.962C54.0392 30.3353 53.8982 30.9513 53.8909 31.81V36.223H51.5659V27.823L53.7659 27.805ZM68.9639 36.845C68.8659 37.291 68.6619 37.707 68.3689 38.057C68.0089 38.472 67.5689 38.797 67.0489 39.009C66.3139 39.309 65.5269 39.432 64.7369 39.409C64.3116 39.4079 63.888 39.3562 63.4749 39.255C63.0625 39.1543 62.6675 38.9925 62.3029 38.775C61.9532 38.5611 61.6532 38.2751 61.4229 37.936C61.1816 37.5694 61.0441 37.1444 61.0249 36.706H63.3209C63.3551 36.8938 63.4297 37.072 63.5395 37.2283C63.6493 37.3845 63.7917 37.5151 63.9569 37.611C64.2936 37.7845 64.6682 37.8715 65.0469 37.864C65.6982 37.864 66.1732 37.6686 66.4719 37.278C66.7823 36.8485 66.9349 36.325 66.9039 35.796V34.68H66.8719C66.6324 35.1159 66.2575 35.462 65.8039 35.666C65.3469 35.866 64.8499 35.984 64.3469 35.983C63.7852 35.9969 63.2276 35.8823 62.7169 35.648C62.2739 35.44 61.8866 35.1299 61.5869 34.743C61.2848 34.3378 61.0665 33.8765 60.9449 33.386C60.8069 32.851 60.7379 32.301 60.7409 31.748C60.7361 31.2155 60.8123 30.6855 60.9669 30.176C61.1139 29.692 61.3469 29.24 61.6589 28.841C61.9635 28.4551 62.3493 28.141 62.7889 27.921C63.2729 27.685 63.8069 27.568 64.3449 27.579C64.8468 27.5699 65.3444 27.6723 65.8019 27.879C66.2479 28.114 66.6139 28.477 66.8519 28.922H66.8839V27.8H69.0839V35.683C69.0829 36.083 69.0419 36.463 68.9619 36.843L68.9639 36.845ZM65.7969 34.045C66.0402 33.9206 66.2521 33.7429 66.4169 33.525C66.5867 33.3042 66.7111 33.052 66.7829 32.783C66.8648 32.5003 66.9059 32.2073 66.9049 31.913C66.9069 31.583 66.8749 31.251 66.8079 30.927C66.7499 30.635 66.6399 30.357 66.4819 30.104C66.3317 29.8669 66.1248 29.671 65.8799 29.534C65.5886 29.3825 65.263 29.3091 64.9349 29.321C64.6429 29.311 64.3549 29.379 64.0949 29.516C63.862 29.6456 63.6617 29.8265 63.5089 30.045C63.3476 30.2761 63.2315 30.5356 63.1669 30.81C63.0951 31.1062 63.0595 31.4101 63.0609 31.715C63.0609 32.0189 63.091 32.322 63.1509 32.62C63.2056 32.9046 63.3106 33.1772 63.4609 33.425C63.6063 33.6622 63.8044 33.8627 64.0399 34.011C64.3129 34.173 64.6279 34.251 64.9449 34.237C65.2395 34.2419 65.531 34.1761 65.7949 34.045H65.7969ZM73.2339 34.205C73.5806 34.541 74.0796 34.709 74.7309 34.709C75.1609 34.719 75.5809 34.609 75.9369 34.359C76.2219 34.189 76.4409 33.929 76.5569 33.617H78.5929C78.2596 34.627 77.7606 35.3493 77.0959 35.784C76.3626 36.2347 75.5133 36.461 74.6529 36.435C74.0412 36.4442 73.4333 36.3366 72.8619 36.118C72.3483 35.9201 71.8849 35.611 71.5049 35.213C71.1278 34.8092 70.8369 34.3328 70.6499 33.813C70.4437 33.239 70.3421 32.6328 70.3499 32.023C70.3479 31.4227 70.4561 30.8272 70.6689 30.266C70.8614 29.7423 71.1595 29.2639 71.5447 28.8603C71.9298 28.4568 72.3938 28.1367 72.9079 27.92C73.4618 27.6865 74.0579 27.57 74.6589 27.578C75.3089 27.563 75.9509 27.706 76.5319 27.994C77.0493 28.2588 77.4978 28.6406 77.8419 29.109C78.19 29.5884 78.442 30.1307 78.5839 30.706C78.7369 31.318 78.7919 31.95 78.7469 32.579H72.6669C72.7002 33.327 72.8902 33.869 73.2369 34.205H73.2339ZM75.8489 29.775C75.5716 29.4736 75.1509 29.323 74.5869 29.323C74.2699 29.313 73.9539 29.376 73.6669 29.511C73.4409 29.611 73.2409 29.781 73.0809 29.975C72.9403 30.1475 72.835 30.3459 72.7709 30.559C72.7161 30.7394 72.6806 30.9251 72.6649 31.113H76.4249C76.3599 30.613 76.1599 30.16 75.8479 29.776L75.8489 29.775ZM82.2839 24.595V36.223H79.9699V24.596L82.2839 24.595ZM86.6839 24.595V34.072H92.3499V36.222H84.1279V24.596L86.6839 24.595ZM93.3079 26.502V24.6H95.6199V26.504L93.3079 26.502ZM95.6199 27.805V36.225H93.3079V27.805H95.6199ZM99.2279 34.131C99.3279 34.305 99.4629 34.455 99.6259 34.571C99.7961 34.6885 99.9861 34.7742 100.187 34.824C100.403 34.879 100.624 34.9059 100.847 34.904C101.019 34.9031 101.191 34.884 101.36 34.847C101.531 34.8122 101.696 34.7518 101.849 34.668C101.994 34.5879 102.119 34.4765 102.215 34.342C102.318 34.1912 102.369 34.0113 102.362 33.829C102.362 33.4823 102.131 33.2213 101.67 33.046C101.04 32.8265 100.396 32.6527 99.7409 32.526C99.4049 32.4506 99.0762 32.3606 98.7549 32.256C98.4523 32.161 98.1645 32.024 97.8999 31.849C97.6541 31.6848 97.4483 31.4674 97.2979 31.213C97.137 30.928 97.0588 30.6039 97.0719 30.277C97.0526 29.8113 97.1623 29.3493 97.3889 28.942C97.594 28.6007 97.8828 28.3175 98.2279 28.119C98.5915 27.912 98.9879 27.7689 99.3999 27.696C99.8402 27.6141 100.287 27.5733 100.735 27.574C101.181 27.5727 101.626 27.6163 102.063 27.704C102.469 27.782 102.858 27.93 103.213 28.144C103.551 28.3522 103.838 28.6334 104.053 28.967C104.291 29.3586 104.428 29.8033 104.451 30.261H102.251C102.256 30.0787 102.213 29.8983 102.124 29.7389C102.035 29.5796 101.905 29.4472 101.747 29.356C101.412 29.1954 101.044 29.1179 100.673 29.13C100.533 29.131 100.39 29.14 100.25 29.155C100.107 29.1699 99.9667 29.2056 99.8339 29.261C99.7127 29.3117 99.6044 29.3889 99.5169 29.487C99.4249 29.605 99.3769 29.753 99.3869 29.903C99.3809 30.097 99.4649 30.283 99.6129 30.407C99.789 30.55 99.991 30.6576 100.208 30.724C100.483 30.816 100.763 30.891 101.048 30.95C101.363 31.0146 101.683 31.0856 102.008 31.163C102.341 31.238 102.67 31.33 102.994 31.439C103.299 31.5397 103.587 31.6853 103.849 31.871C104.097 32.0505 104.302 32.2823 104.451 32.55C104.611 32.8532 104.689 33.1932 104.677 33.536C104.695 33.9888 104.592 34.4383 104.38 34.8385C104.167 35.2387 103.852 35.5753 103.467 35.814C103.09 36.049 102.673 36.212 102.237 36.294C101.776 36.3864 101.307 36.4326 100.837 36.432C100.355 36.4321 99.8746 36.3828 99.4029 36.285C98.9597 36.1986 98.5369 36.0289 98.1569 35.785C97.7889 35.558 97.4799 35.248 97.2519 34.88C97.0019 34.452 96.8719 33.966 96.8699 33.48H99.0699C99.0683 33.7071 99.1277 33.9306 99.2419 34.127L99.2279 34.131ZM110.528 27.805V29.352H108.834V33.522C108.834 33.9126 108.9 34.1736 109.031 34.305C109.162 34.4363 109.423 34.5013 109.814 34.5L110.189 34.484C110.304 34.4735 110.418 34.4568 110.531 34.434V36.234C110.315 36.2688 110.098 36.2909 109.88 36.3C109.64 36.3106 109.407 36.316 109.18 36.316C108.839 36.3169 108.499 36.2929 108.162 36.244C107.865 36.2027 107.578 36.106 107.316 35.959C107.07 35.817 106.869 35.609 106.736 35.357C106.581 35.0375 106.508 34.6846 106.523 34.33V29.354H105.123V27.807H106.523V25.28H108.835V27.804L110.528 27.805ZM31.0159 27.293C32.5492 27.581 33.6232 28.2236 34.2379 29.221C34.8599 30.2176 35.1726 31.791 35.1759 33.941C35.1759 38.2043 33.8942 41.6933 31.3309 44.408C28.7676 47.1213 25.4896 48.478 21.4969 48.478C19.932 48.479 18.3803 48.1912 16.9199 47.629C15.5031 47.1001 14.2064 46.2933 13.1059 45.256C11.9786 44.258 11.0488 43.0572 10.3649 41.716C9.77055 40.532 9.45807 39.2267 9.4519 37.902C9.4519 36.4473 9.76457 35.3226 10.3899 34.528C11.0152 33.7326 12.0036 33.1866 13.3549 32.89C13.1393 32.402 12.9527 31.9018 12.7959 31.392C12.6957 31.0885 12.6358 30.7731 12.6179 30.454C12.6179 29.6926 13.0196 28.9146 13.8229 28.12C14.6262 27.3246 15.3829 26.927 16.0929 26.927C16.4209 26.9309 16.7462 26.9866 17.0569 27.092C17.4635 27.2342 17.8545 27.4174 18.2239 27.639C16.9199 23.9523 15.9722 21.1056 15.3809 19.099C14.7896 17.0936 14.4946 15.712 14.4959 14.954C14.4959 13.9046 14.7626 13.0713 15.2959 12.454C15.5723 12.1459 15.9137 11.9031 16.2954 11.743C16.677 11.5828 17.0894 11.5094 17.5029 11.528C19.0929 11.528 21.1042 15.0803 23.5369 22.185C23.9589 23.4023 24.2802 24.3416 24.5009 25.003C24.6876 24.479 24.9496 23.7346 25.2869 22.77C27.7282 15.7313 29.8282 12.212 31.5869 12.212C31.9747 12.1959 32.3613 12.266 32.7187 12.4173C33.0761 12.5686 33.3955 12.7973 33.6539 13.087C34.1626 13.6703 34.4169 14.4526 34.4169 15.434C34.4169 16.178 34.1336 17.5393 33.5669 19.518C33.0002 21.4966 32.1459 24.0886 31.0039 27.294L31.0159 27.293ZM12.8459 37.645C13.0832 37.933 13.4166 38.3563 13.8459 38.915C14.9632 40.4483 15.9949 41.215 16.9409 41.215C17.255 41.2171 17.56 41.1092 17.8029 40.91C17.9105 40.8405 18.0008 40.7474 18.0668 40.6377C18.1329 40.5279 18.1729 40.4046 18.1839 40.277C18.1839 40.0236 18.0172 39.6003 17.6839 39.007C17.2691 38.3052 16.8025 37.6353 16.2879 37.003C15.7789 36.327 15.2139 35.6951 14.5989 35.114C14.1522 34.7173 13.7929 34.519 13.5209 34.519C12.9296 34.519 12.3836 34.8356 11.8829 35.469C11.3823 36.1088 11.1181 36.9018 11.1349 37.714C11.1543 38.5134 11.3271 39.3017 11.6439 40.036C12.0302 40.9583 12.5384 41.8247 13.1549 42.612C14.1259 43.9257 15.4019 44.9834 16.8729 45.694C18.4077 46.4221 20.0894 46.7875 21.7879 46.762C23.3548 46.7898 24.9088 46.4737 26.3403 45.8358C27.7718 45.1979 29.0459 44.2537 30.0729 43.07C32.2969 40.6086 33.4089 37.5253 33.4089 33.82C33.4315 32.9121 33.3462 32.0047 33.1549 31.117C33.0465 30.5506 32.7519 30.0367 32.3179 29.657C31.6246 29.0823 30.2752 28.5656 28.2699 28.107C26.2085 27.6443 24.1016 27.4149 21.9889 27.423C21.3802 27.423 20.9489 27.5246 20.6949 27.728C20.4416 27.9313 20.3149 28.278 20.3149 28.768C20.3149 29.9193 20.9576 30.7526 22.2429 31.268C23.5282 31.7833 25.6092 32.0376 28.4859 32.031H29.5259C29.6344 32.0259 29.7426 32.0463 29.8419 32.0904C29.9412 32.1345 30.0289 32.2011 30.0979 32.285C30.2637 32.5206 30.3645 32.7959 30.3899 33.083C30.1019 33.3543 29.5086 33.663 28.6099 34.009C27.8866 34.2643 27.1966 34.6057 26.5549 35.026C25.5725 35.7475 24.7449 36.6589 24.1209 37.706C23.552 38.572 23.2317 39.5775 23.1949 40.613C23.2193 41.3018 23.3523 41.9825 23.5889 42.63C23.7721 43.1011 23.9042 43.5906 23.9829 44.09V44.268L23.9329 44.498C23.1889 44.4473 22.6016 44.0116 22.1709 43.191C21.7402 42.371 21.5249 41.276 21.5249 39.906V39.676C21.4087 39.7821 21.2755 39.8679 21.1309 39.93C20.9971 39.982 20.8545 40.0078 20.7109 40.006C20.566 40.0067 20.4214 39.994 20.2789 39.968C20.1243 39.9381 19.9714 39.9001 19.8209 39.854C19.8702 40.0338 19.9083 40.2164 19.9349 40.401C19.957 40.54 19.9697 40.6803 19.9729 40.821C19.9747 41.1269 19.9099 41.4296 19.783 41.7079C19.6561 41.9863 19.4701 42.2337 19.2379 42.433C18.7626 42.8747 18.1347 43.1152 17.4859 43.104C16.4192 43.104 15.3369 42.584 14.2389 41.544C13.1402 40.504 12.5902 39.4866 12.5889 38.492C12.5865 38.3244 12.608 38.1574 12.6529 37.996C12.6917 37.8568 12.7653 37.7297 12.8669 37.627L12.8459 37.645ZM20.4599 38.253C20.6117 38.2483 20.7606 38.2107 20.8964 38.1426C21.0321 38.0746 21.1514 37.9778 21.2459 37.859C21.4686 37.6318 21.596 37.328 21.6019 37.01C21.6019 36.69 21.3696 35.9416 20.9049 34.765C20.4259 33.5628 19.844 32.4042 19.1659 31.302C18.7657 30.5919 18.2607 29.9463 17.6679 29.387C17.1766 28.9563 16.7112 28.741 16.2719 28.741C15.9159 28.741 15.5226 28.9643 15.0919 29.411C14.6612 29.8576 14.4459 30.2763 14.4459 30.667C14.4459 31.0723 14.6569 31.681 15.0789 32.493C15.5672 33.4052 16.1364 34.2717 16.7799 35.082C17.3929 35.9359 18.0993 36.7187 18.8859 37.416C19.5526 37.9693 20.0772 38.246 20.4599 38.246V38.253ZM22.9469 25.996L20.2069 18.072C19.4969 16.06 18.9469 14.7443 18.5569 14.125C18.1669 13.5063 17.7436 13.1976 17.2869 13.199C17.1227 13.1959 16.9601 13.2311 16.8119 13.3017C16.6637 13.3723 16.5339 13.4765 16.4329 13.606C16.1986 13.9198 16.0815 14.3058 16.1019 14.697C16.1019 15.475 16.3976 16.8316 16.9889 18.767C17.5802 20.7003 18.4686 23.2296 19.6539 26.355C19.7466 26.1765 19.8997 26.0369 20.0859 25.961C20.3308 25.8753 20.5897 25.8366 20.8489 25.847C20.9509 25.847 21.1536 25.8553 21.4569 25.872C21.7602 25.8886 22.2579 25.9286 22.9499 25.992L22.9469 25.996ZM25.8129 33.678C25.1196 33.6476 24.4291 33.5711 23.7459 33.449C23.1108 33.3345 22.487 33.1642 21.8819 32.94C22.1512 33.4826 22.3919 34.0243 22.6039 34.565C22.8051 35.0878 22.975 35.622 23.1129 36.165C23.5016 35.673 23.9265 35.2107 24.3839 34.782C24.8283 34.3744 25.3064 34.0051 25.8129 33.678ZM29.1869 26.853C30.3202 23.7743 31.2042 21.231 31.8389 19.223C32.4749 17.223 32.7916 15.9923 32.7889 15.531C32.8136 15.1254 32.7017 14.7233 32.4709 14.389C32.3682 14.2561 32.2352 14.1498 32.0829 14.079C31.9307 14.0082 31.7637 13.9749 31.5959 13.982C31.1292 13.982 30.6469 14.3753 30.1489 15.162C29.6576 15.9486 29.1159 17.2133 28.5239 18.956L25.9999 26.3L29.1869 26.853Z" fill="#44516F"/>
</g>
</svg>
