<svg width="74" height="56" viewBox="0 0 74 56" fill="none" xmlns="http://www.w3.org/2000/svg">
<g id="cnbc-1 3" clip-path="url(#clip0_29_272)">
<path id="Vector" d="M12.9635 47.6607C12.6907 46.338 11.6069 45.9858 10.392 45.8725C6.47122 45.5095 5.77677 48.4425 5.77677 49.6808C5.77677 51.7978 6.39585 53.5501 10.2431 53.5501C10.9537 53.5501 12.9132 52.8186 12.9132 51.6307H18.449C18.2247 55.155 12.3049 55.9996 9.72272 55.9996C4.37353 55.9996 -0.207648 55.0022 0.014861 49.7293C0.172771 45.9642 3.72574 43.3223 10.7976 43.4859C14.7381 43.5793 18.5262 44.8068 18.5405 47.6607H12.9635ZM68.4095 47.6607C68.1386 46.338 67.0529 45.9858 65.8399 45.8725C61.9191 45.5095 61.2246 48.4425 61.2246 49.6808C61.2246 51.7978 61.8419 53.5501 65.6927 53.5501C66.4033 53.5501 68.3611 52.8186 68.3611 51.6307H73.8969C73.6726 55.155 67.7545 55.9996 65.1706 55.9996C59.8214 55.9996 55.242 55.0022 55.4627 49.7293C55.6206 45.9642 59.1754 43.3223 66.2472 43.4859C70.1878 43.5793 73.974 44.8068 73.9902 47.6607H68.4095ZM19.5311 43.7393H26.7178L32.8493 52.3424H32.8978V43.7393H37.5041V55.6851H30.6188L24.1858 47.0802H24.1374V55.6851H19.5311V43.7393ZM38.9271 43.7393H47.6552C51.8505 43.7393 54.3179 44.9111 54.3179 46.6831C54.3179 47.729 53.2843 49.0212 50.982 49.4022V49.4363C53.7544 49.6017 54.7772 51.3557 54.7772 52.4071C54.7772 54.5134 52.3727 55.6851 47.6803 55.6851H38.9271V43.7393ZM43.9784 48.3796H45.4265C47.6552 48.3796 48.8377 48.2053 48.8377 47.2797C48.8377 46.2859 47.8525 45.957 45.8464 45.957H43.9766V48.3796H43.9784ZM43.9784 53.1799H45.4265C48.1127 53.1799 49.0979 52.8977 49.0979 51.9722C49.0979 50.9783 47.8543 50.6476 45.8482 50.6476H43.9784V53.1799Z" fill="#44516F"/>
<path id="Vector_2" d="M22.4811 15.7361L32.5065 38.6968L11.824 24.5135C6.63447 21.0737 7.68601 15.1754 10.5625 12.5766C14.6287 9.13684 20.378 10.3302 22.4811 15.7361Z" fill="#44516F"/>
<path id="Vector_3" d="M36.2216 10.3305L32.5772 36.0283L22.2018 11.5957C19.9587 5.48706 25.0047 1.48475 28.371 1.41466C32.2272 0.992325 37.0632 3.94149 36.2216 10.3305Z" fill="#44516F"/>
<path id="Vector_4" d="M51.9959 11.5248L41.6905 36.0293L38.3959 13.9114C38.1142 10.5417 40.2191 10.4716 40.9907 9.83901C40.8507 9.34658 39.7992 9.34658 39.7992 9.34658H37.8361C37.6261 3.58843 42.1122 1.0616 45.7585 1.34196C49.6829 1.48394 54.099 6.04697 51.9959 11.5248Z" fill="#44516F"/>
<path id="Vector_5" d="M62.5134 24.373L41.8326 38.6282L51.5764 15.9479C54.521 8.78614 61.3919 10.1897 63.8449 12.9286C66.5078 15.5956 67.2794 21.0033 62.5134 24.373Z" fill="#44516F"/>
<path id="Vector_6" d="M64.6844 41.1547H40.7791L60.1984 27.6022C64.9662 24.4427 70.0139 27.3218 71.3454 31.4643C72.7486 36.0992 69.5922 41.1547 64.6844 41.1547Z" fill="#44516F"/>
<path id="Vector_7" d="M2.77993 31.1842C4.60307 26.4091 9.6508 24.7234 14.1369 27.6025L33.558 41.155H10.0007C5.09295 41.155 1.23852 36.6602 2.77993 31.1842Z" fill="#44516F"/>
</g>
<defs>
<clipPath id="clip0_29_272">
<rect width="74" height="56" fill="white"/>
</clipPath>
</defs>
</svg>
