<svg width="20" height="20" viewBox="0 0 20 20" fill="none" xmlns="http://www.w3.org/2000/svg">
<g id="icons / social / github">
<path id="Vector" d="M17.4003 2.58283C16.7895 1.97199 16.0545 1.66699 15.1945 1.66699H4.78866C3.92866 1.66699 3.19366 1.97199 2.58283 2.58283C1.97199 3.19366 1.66699 3.92866 1.66699 4.78866V15.1945C1.66699 16.0545 1.97199 16.7895 2.58283 17.4003C3.19366 18.0112 3.92866 18.3162 4.78866 18.3162H7.21699C7.37533 18.3162 7.49449 18.3103 7.57449 18.2995C7.66757 18.2808 7.75158 18.2312 7.81283 18.1587C7.89199 18.0753 7.93199 17.9545 7.93199 17.7962L7.92616 17.0587C7.92283 16.5887 7.92116 16.217 7.92116 15.942L7.67116 15.9853C7.51283 16.0145 7.31283 16.027 7.07033 16.0237C6.81756 16.019 6.56561 15.9936 6.31699 15.9478C6.05233 15.899 5.80318 15.7875 5.59033 15.6228C5.3674 15.4542 5.20114 15.2216 5.11366 14.9562L5.00533 14.7062C4.91402 14.509 4.7993 14.3235 4.66366 14.1537C4.50866 13.9512 4.35116 13.8145 4.19199 13.742L4.11699 13.6878C4.06469 13.6504 4.01713 13.6067 3.97533 13.5578C3.9354 13.5124 3.90253 13.4613 3.87783 13.4062C3.85616 13.3553 3.87449 13.3137 3.93199 13.2812C3.99033 13.2478 4.09449 13.232 4.24699 13.232L4.46366 13.2653C4.60783 13.2937 4.78699 13.3803 4.99949 13.5245C5.21454 13.6711 5.39418 13.8638 5.52533 14.0887C5.69199 14.3845 5.89199 14.6103 6.12699 14.7662C6.36199 14.9212 6.59866 14.9995 6.83699 14.9995C7.07533 14.9995 7.28116 14.9812 7.45533 14.9453C7.62375 14.9105 7.78741 14.8557 7.94283 14.782C8.00783 14.2987 8.18449 13.9253 8.47366 13.6653C8.09897 13.6286 7.72762 13.5634 7.36283 13.4703C7.00682 13.3725 6.66444 13.2306 6.34366 13.0478C6.00803 12.8651 5.71158 12.6182 5.47116 12.3212C5.24033 12.032 5.05033 11.6528 4.90199 11.1837C4.75449 10.7137 4.68033 10.1712 4.68033 9.55699C4.68033 8.68283 4.96533 7.93866 5.53616 7.32366C5.26949 6.66699 5.29449 5.92949 5.61199 5.11366C5.82199 5.04783 6.13283 5.09699 6.54449 5.25949C6.95616 5.42199 7.25783 5.56116 7.44949 5.67616C7.64116 5.79283 7.79449 5.89033 7.91033 5.96949C8.58781 5.78095 9.28793 5.68618 9.99116 5.68783C10.707 5.68783 11.4003 5.78199 12.0728 5.96949L12.4845 5.70949C12.8011 5.51937 13.1351 5.35976 13.482 5.23283C13.8653 5.08783 14.157 5.04866 14.3603 5.11366C14.6853 5.93033 14.7137 6.66699 14.4462 7.32449C15.017 7.93866 15.3028 8.68283 15.3028 9.55783C15.3028 10.172 15.2287 10.7162 15.0803 11.1887C14.9328 11.662 14.7412 12.0412 14.5062 12.327C14.2615 12.6202 13.9638 12.8648 13.6287 13.0478C13.2787 13.2428 12.9387 13.3837 12.6095 13.4703C12.2447 13.5637 11.8734 13.6292 11.4987 13.6662C11.8737 13.9912 12.062 14.5037 12.062 15.2045V17.7962C12.062 17.9187 12.0795 18.0178 12.1162 18.0937C12.133 18.1302 12.157 18.163 12.1868 18.19C12.2166 18.2171 12.2515 18.2379 12.2895 18.2512C12.3695 18.2795 12.4395 18.2978 12.5012 18.3045C12.5628 18.3128 12.6512 18.3153 12.7662 18.3153H15.1945C16.0545 18.3153 16.7895 18.0103 17.4003 17.3995C18.0103 16.7895 18.3162 16.0537 18.3162 15.1937V4.78866C18.3162 3.92866 18.0112 3.19366 17.4003 2.58283Z" fill="#44516F"/>
</g>
</svg>
