<svg width="181" height="70" viewBox="0 0 181 70" fill="none" xmlns="http://www.w3.org/2000/svg">
<g id="forbes-2 3">
<path id="Vector" d="M105.947 24.6881C103.67 24.6881 101.883 25.1748 100.094 26.1464C100.094 20.9602 100.094 16.2608 100.257 14.6406L89.3619 16.5846V17.5571L90.5 17.719C91.962 18.0428 92.4522 18.8524 92.7742 20.7983C93.102 24.6881 92.9376 45.4336 92.7742 48.8377C95.7011 49.4863 98.7914 49.973 101.882 49.973C110.5 49.973 115.703 44.624 115.703 36.1957C115.703 29.5514 111.475 24.6881 105.947 24.6881ZM102.207 48.1891C101.556 48.1891 100.742 48.1891 100.255 48.0281C100.092 45.7593 99.9304 36.1957 100.092 27.7684C101.068 27.4436 101.717 27.2817 102.531 27.2817C106.111 27.2817 108.062 31.4953 108.062 36.6806C108.061 43.1658 105.622 48.1891 102.207 48.1891ZM48.3837 15.2883H19.7646V16.7465L21.391 16.9085C23.5038 17.2323 24.3179 18.5286 24.6418 21.6079C25.1311 27.4427 24.9677 37.9787 24.6418 43.0011C24.317 46.0813 23.5047 47.5405 21.391 47.7005L19.7646 48.0262V49.3225H38.1391V48.0262L36.1879 47.7005C34.0742 47.5395 33.261 46.0813 32.9361 43.0011C32.7727 40.8933 32.6103 37.4892 32.6103 33.2765L36.5128 33.4384C38.9523 33.4384 40.0894 35.3833 40.5777 38.1378H42.0416V26.634H40.5777C40.0885 29.3894 38.9523 31.3334 36.5128 31.3334L32.6112 31.4963C32.6112 25.9854 32.7736 20.7992 32.937 17.7199H38.6274C43.0191 17.7199 45.2953 20.4744 46.9207 25.3377L48.5471 24.851L48.3837 15.2883Z" fill="#44516F"/>
<path id="Vector_2" d="M57.6519 24.3654C65.7828 24.3654 69.8477 29.8763 69.8477 37.1693C69.8477 44.1385 65.2945 49.9751 57.1636 49.9751C49.0337 49.9751 44.9688 44.4632 44.9688 37.1693C44.9688 30.2002 49.5211 24.3654 57.6519 24.3654ZM57.1636 25.9865C53.586 25.9865 52.6104 30.8488 52.6104 37.1693C52.6104 43.3279 54.2367 48.3521 57.4895 48.3521C61.2267 48.3521 62.2042 43.4898 62.2042 37.1693C62.2042 31.0107 60.5797 25.9865 57.1636 25.9865ZM117.815 37.3322C117.815 30.6869 122.042 24.3654 130.336 24.3654C137.163 24.3654 140.417 29.3906 140.417 36.0349H125.294C125.131 42.0316 128.058 46.4081 133.912 46.4081C136.514 46.4081 137.815 45.7614 139.442 44.6261L140.091 45.4357C138.465 47.7044 134.888 49.9751 130.336 49.9751C123.018 49.9741 117.815 44.788 117.815 37.3322ZM125.294 34.2529L132.937 34.09C132.937 30.8488 132.448 25.9865 129.685 25.9865C126.921 25.9865 125.456 30.524 125.294 34.2529ZM159.77 25.6626C157.819 24.8512 155.217 24.3654 152.291 24.3654C146.275 24.3654 142.533 27.9305 142.533 32.1451C142.533 36.3597 145.295 38.1418 149.202 39.439C153.266 40.8963 154.405 42.0316 154.405 43.9765C154.405 45.9214 152.941 47.7035 150.339 47.7035C147.251 47.7035 144.973 45.9214 143.185 41.0582L142.046 41.3839L142.209 48.515C144.161 49.3246 147.737 49.9741 150.828 49.9741C157.17 49.9741 161.236 46.7311 161.236 41.7078C161.236 38.3037 159.446 36.3597 155.218 34.7377C150.664 32.9556 149.04 31.8212 149.04 29.7135C149.04 27.6066 150.506 26.1475 152.457 26.1475C155.382 26.1475 157.333 27.9305 158.799 32.307L159.936 31.9832L159.77 25.6626ZM90.9857 25.014C88.2222 23.3948 83.3431 24.2035 80.7421 30.0392L80.9036 24.3663L70.0102 26.4732V27.4456L71.1482 27.6076C72.6131 27.7704 73.2619 28.58 73.4253 30.6878C73.7502 34.5776 73.5878 41.3858 73.4253 44.7889C73.2619 46.732 72.6131 47.7044 71.1482 47.8673L70.0102 48.0302V49.3265H85.1319V48.0302L83.1807 47.8673C81.5553 47.7044 81.067 46.732 80.9036 44.7889C80.5787 41.7087 80.5787 35.5501 80.7421 31.6603C81.5543 30.5249 85.1319 29.5534 88.3837 31.6603L90.9857 25.014Z" fill="#44516F"/>
</g>
</svg>
