<svg width="45" height="45" viewBox="0 0 45 45" fill="none" xmlns="http://www.w3.org/2000/svg">
<g id="icons / logo / android">
<path id="Vector" d="M28.0784 5.66062L29.8784 2.41312C29.9014 2.3715 29.916 2.32576 29.9213 2.27851C29.9267 2.23125 29.9227 2.18341 29.9095 2.1377C29.8964 2.092 29.8743 2.04933 29.8447 2.01214C29.8151 1.97494 29.7784 1.94395 29.7368 1.92093C29.6952 1.89791 29.6494 1.88331 29.6022 1.87796C29.5549 1.87262 29.5071 1.87663 29.4614 1.88978C29.4157 1.90292 29.373 1.92494 29.3358 1.95457C29.2986 1.98421 29.2676 2.02088 29.2446 2.06249L27.4259 5.34374C25.8733 4.66302 24.1964 4.31157 22.5012 4.31157C20.8059 4.31157 19.1291 4.66302 17.5765 5.34374L15.7577 2.06249C15.7112 1.97795 15.6331 1.91535 15.5404 1.88845C15.4478 1.86155 15.3482 1.87256 15.2637 1.91905C15.1791 1.96555 15.1165 2.04372 15.0896 2.13638C15.0627 2.22903 15.0737 2.32858 15.1202 2.41312L16.9202 5.66062C15.2076 6.50529 13.7606 7.80524 12.7379 9.41794C11.7153 11.0306 11.1565 12.8938 11.1227 14.8031H33.8796C33.8455 12.8934 33.2861 11.03 32.2628 9.41724C31.2395 7.8045 29.7917 6.50477 28.0784 5.66062ZM17.2502 10.6387C17.0621 10.6387 16.8783 10.5829 16.7219 10.4784C16.5655 10.3739 16.4437 10.2253 16.3718 10.0515C16.2999 9.87766 16.2812 9.68642 16.318 9.50197C16.3548 9.31751 16.4456 9.14813 16.5787 9.01526C16.7118 8.88239 16.8814 8.792 17.0659 8.75553C17.2505 8.71906 17.4417 8.73815 17.6153 8.81039C17.789 8.88263 17.9373 9.00477 18.0416 9.16134C18.1458 9.31792 18.2012 9.5019 18.2009 9.68999C18.2004 9.94179 18.1 10.1831 17.9218 10.361C17.7435 10.5388 17.502 10.6387 17.2502 10.6387ZM27.754 10.6387C27.5659 10.6387 27.382 10.5829 27.2257 10.4784C27.0693 10.3739 26.9474 10.2253 26.8755 10.0515C26.8036 9.87766 26.7849 9.68642 26.8218 9.50197C26.8586 9.31751 26.9493 9.14813 27.0825 9.01526C27.2156 8.88239 27.3852 8.792 27.5697 8.75553C27.7542 8.71906 27.9454 8.73815 28.1191 8.81039C28.2927 8.88263 28.4411 9.00477 28.5453 9.16134C28.6495 9.31792 28.705 9.5019 28.7046 9.68999C28.7041 9.94179 28.6037 10.1831 28.4255 10.361C28.2473 10.5388 28.0058 10.6387 27.754 10.6387ZM11.119 32.1956C11.1185 32.5576 11.1895 32.9162 11.3278 33.2507C11.4662 33.5852 11.6692 33.8891 11.9253 34.145C12.1813 34.4009 12.4854 34.6037 12.82 34.7419C13.1546 34.88 13.5132 34.9507 13.8752 34.95H15.6996V40.575C15.6996 41.2515 15.9684 41.9004 16.4468 42.3788C16.9252 42.8572 17.574 43.1259 18.2505 43.1259C18.9271 43.1259 19.5759 42.8572 20.0543 42.3788C20.5327 41.9004 20.8015 41.2515 20.8015 40.575V34.95H24.2027V40.575C24.2027 41.2513 24.4714 41.8999 24.9496 42.3781C25.4278 42.8563 26.0764 43.125 26.7527 43.125C27.429 43.125 28.0776 42.8563 28.5559 42.3781C29.0341 41.8999 29.3027 41.2513 29.3027 40.575V34.95H31.129C31.4905 34.9502 31.8486 34.8792 32.1826 34.741C32.5167 34.6027 32.8202 34.4 33.0758 34.1444C33.3315 33.8887 33.5342 33.5852 33.6725 33.2511C33.8107 32.9171 33.8817 32.559 33.8815 32.1975V15.7031H11.119V32.1956ZM7.61836 15.2644C6.94204 15.2654 6.29373 15.5346 5.81567 16.013C5.33761 16.4914 5.06886 17.1399 5.06836 17.8162V28.4456C5.06836 28.7805 5.13432 29.1121 5.26247 29.4215C5.39062 29.7308 5.57845 30.012 5.81524 30.2487C6.05203 30.4855 6.33314 30.6734 6.64252 30.8015C6.9519 30.9297 7.28349 30.9956 7.61836 30.9956C7.95323 30.9956 8.28482 30.9297 8.5942 30.8015C8.90358 30.6734 9.18469 30.4855 9.42148 30.2487C9.65827 30.012 9.8461 29.7308 9.97425 29.4215C10.1024 29.1121 10.1684 28.7805 10.1684 28.4456V17.8162C10.1674 17.1402 9.89839 16.4922 9.42039 16.0142C8.94238 15.5362 8.29436 15.2672 7.61836 15.2662V15.2644ZM37.3784 15.2644C36.702 15.2654 36.0537 15.5346 35.5757 16.013C35.0976 16.4914 34.8289 17.1399 34.8284 17.8162V28.4456C34.8284 28.7805 34.8943 29.1121 35.0225 29.4215C35.1506 29.7308 35.3384 30.012 35.5752 30.2487C35.812 30.4855 36.0931 30.6734 36.4025 30.8015C36.7119 30.9297 37.0435 30.9956 37.3784 30.9956C37.7132 30.9956 38.0448 30.9297 38.3542 30.8015C38.6636 30.6734 38.9447 30.4855 39.1815 30.2487C39.4183 30.012 39.6061 29.7308 39.7342 29.4215C39.8624 29.1121 39.9284 28.7805 39.9284 28.4456V17.8162C39.9274 17.1402 39.6584 16.4922 39.1804 16.0142C38.7024 15.5362 38.0544 15.2672 37.3784 15.2662V15.2644Z" fill="#2A354F"/>
</g>
</svg>
