<svg width="67" height="67" viewBox="0 0 67 67" fill="none" xmlns="http://www.w3.org/2000/svg">
<path id="pngwing 2 1 (Traced)" fill-rule="evenodd" clip-rule="evenodd" d="M12.4782 0.0296621C11.7497 0.119181 10.9692 0.546564 10.5212 1.10123C10.2995 1.37559 9.99254 1.98073 9.90438 2.31694C9.86986 2.44859 9.8202 2.59784 9.79399 2.64864C9.73041 2.77204 9.73309 3.67649 9.79766 3.88228C9.82583 3.97212 9.90973 4.24551 9.98403 4.48976C10.2375 5.32309 10.7159 6.10845 11.9005 7.63596C13.1155 9.20268 13.9702 10.4437 14.3057 11.1284C14.4181 11.3578 14.5751 11.7848 14.6547 12.0773C14.8989 12.9748 15.4002 14.5309 15.58 14.9496C15.6051 15.0081 15.6609 15.1637 15.7039 15.2953C16.5637 17.9264 17.9198 20.5935 18.8661 21.5143C19.1935 21.833 19.4101 22.1744 19.4128 22.3762C19.4134 22.4237 19.3564 22.5673 19.286 22.6954C19.1011 23.0317 19.0032 23.3596 18.804 24.3111C18.7196 24.714 18.6445 25.0156 18.3339 26.1993C17.7366 28.4761 17.6177 31.3775 18.0268 33.6991C18.0706 33.9478 18.1274 34.2709 18.1532 34.4172C18.209 34.7347 18.4241 35.568 18.5651 36.0129C19.1952 38.0008 20.3656 39.8423 21.4824 40.6031C21.9293 40.9075 22.2821 41.0128 22.8554 41.0128C23.1714 41.0128 23.4541 40.9841 23.5647 40.9408C24.3454 40.6353 24.7578 40.1829 25.0265 39.3373C25.0985 39.1105 25.2166 38.4575 25.2957 37.848C25.4212 36.8814 25.4663 36.5857 25.539 36.2523C25.5805 36.0621 25.6454 35.715 25.6834 35.4811C25.7297 35.1948 25.777 35.0509 25.8275 35.0414C25.8787 35.0319 26.1461 35.5264 26.6615 36.5839C27.0788 37.4401 27.5392 38.32 27.6847 38.5394C28.6845 40.0471 30.3261 41.7573 32.2865 43.3335C32.5611 43.5542 33.1067 44.0573 33.4991 44.4515C34.3445 45.3009 35.1763 45.904 35.1763 45.6676C35.1763 45.6387 34.9936 45.4652 34.7703 45.282C34.3062 44.9011 34.2115 44.8096 33.5992 44.1488C33.0191 43.523 32.4735 42.8327 31.856 41.9436C31.2326 41.0461 30.1705 39.4001 29.951 38.9916C29.9196 38.933 29.7257 38.5979 29.5201 38.2469C28.7873 36.9956 27.7061 34.9136 27.2688 33.9119C27.1602 33.6632 27.0296 33.364 26.9786 33.247C26.9275 33.13 26.822 32.8787 26.7443 32.6885C26.6665 32.4984 26.5242 32.1633 26.428 31.9439C26.3319 31.7245 26.213 31.3774 26.164 31.1726C26.0566 30.7245 25.8397 30.2938 25.7237 30.298C25.6454 30.3009 25.4629 30.5262 24.534 31.7657C23.6757 32.9112 23.3365 34.0306 23.0135 36.7842C22.9672 37.1791 22.9068 37.6767 22.8793 37.89C22.8517 38.1033 22.8291 38.3809 22.8291 38.5068C22.8291 38.6695 22.7982 38.7641 22.7222 38.8337C22.6262 38.9216 22.595 38.9244 22.42 38.8609C21.6258 38.5727 21.1262 37.8656 20.4081 36.0129C19.9547 34.8433 19.6892 33.5666 19.5452 31.8641C19.454 30.7868 19.4478 30.1121 19.5204 29.1941C19.658 27.4529 19.899 26.3314 20.4382 24.9228C21.1284 23.1195 21.3265 22.1034 21.1001 21.5279C20.9453 21.1346 20.8039 20.9388 20.2923 20.4092C19.6573 19.7519 19.1045 18.9212 18.5276 17.757C18.1409 16.9765 17.7638 15.9358 17.125 13.8858C16.5077 11.9051 16.0872 10.7613 15.7169 10.0559C15.2701 9.2048 14.2595 7.73558 13.1377 6.30621C12.2709 5.20182 11.9195 4.61487 11.6674 3.8501C11.4883 3.30697 11.4947 3.10086 11.7035 2.68422C11.8528 2.38641 11.9107 2.32471 12.1633 2.19392C12.434 2.05376 12.4821 2.0461 12.9251 2.07238C13.5386 2.10876 14.3735 2.38045 15.5522 2.9273C17.2845 3.731 18.2905 4.33142 19.1323 5.0639C19.3964 5.29373 19.7497 5.56527 19.9175 5.66734C20.209 5.84478 20.2514 5.85457 20.8821 5.88951C21.245 5.90962 21.6364 5.94026 21.752 5.95755C21.8676 5.97488 22.4824 6.0251 23.1181 6.06919C23.7539 6.11329 24.4041 6.18233 24.563 6.22259C26.4796 6.70827 29.1234 8.03036 31.4721 9.67772C35.5285 12.5227 38.8536 16.1203 41.4262 20.4477C42.3961 22.0792 42.9405 23.2147 43.2656 24.2845C43.3267 24.4854 43.6508 25.2633 43.8929 25.7902C44.0114 26.0479 44.1083 26.2688 44.1083 26.281C44.1083 26.2931 44.2994 26.7035 44.5331 27.1928C44.7667 27.682 45.0479 28.275 45.158 28.5105C45.2679 28.746 45.4814 29.2019 45.6321 29.5237C45.7829 29.8455 46.0012 30.3242 46.1173 30.5875C46.2333 30.8508 46.3811 31.1859 46.4458 31.3322C46.5104 31.4784 46.6405 31.7776 46.7347 31.997C46.9774 32.5617 47.7956 34.2453 48.0272 34.6566C48.4298 35.3712 48.9835 36.182 49.1822 36.3478C49.5504 36.6551 50.2369 36.9514 51.4903 37.344C51.9238 37.4798 52.4912 37.6704 52.7513 37.7675C53.4723 38.0367 54.2347 38.3226 54.6428 38.4769C55.3839 38.757 56.3818 39.3834 58.403 40.8374C58.9935 41.2621 59.8667 41.8624 60.3435 42.1714C61.2425 42.7539 61.7788 43.1958 61.9731 43.514C62.1518 43.8068 62.1177 43.8256 61.4374 43.8108C60.7828 43.7966 59.2077 43.879 58.3995 43.9699C57.2537 44.0986 56.1608 44.3467 55.2207 44.6915C54.5986 44.9197 54.0247 45.1157 53.751 45.1936C53.4568 45.2774 53.0403 45.636 53.0403 45.8055C53.0403 45.8626 53.0783 45.9641 53.1248 46.0313C53.1712 46.0984 53.2995 46.3671 53.4097 46.6283C53.6425 47.1797 53.9545 47.672 54.5193 48.3796C55.0624 49.0602 55.3449 49.3266 56.2716 50.0328C57.5897 51.0373 58.2935 51.4832 59.543 52.1055C60.1865 52.4259 60.7248 52.688 60.7393 52.688C60.7838 52.688 62.0873 53.3477 62.3663 53.5115C63.2057 54.0041 65.0807 55.3955 65.8113 56.068C66.2517 56.4734 66.4622 56.6176 66.5231 56.556C66.5406 56.5382 66.4838 56.3727 66.3968 56.1883C66.3097 56.0038 66.1895 55.7375 66.1296 55.5966C66.0542 55.4191 65.8278 55.1409 65.3937 54.6923C65.0488 54.336 64.5821 53.817 64.3564 53.5391C63.779 52.8278 63.1167 52.1457 62.346 51.4685C61.2946 50.5446 60.8171 50.1973 59.4503 49.3624C58.0816 48.5263 57.5228 48.1277 57.0338 47.6385C56.6866 47.2913 56.3504 46.799 56.3504 46.6379C56.3504 46.6141 56.5336 46.5652 56.7576 46.5293C56.9816 46.4934 57.4367 46.3916 57.769 46.3032C58.1013 46.2147 58.586 46.0856 58.8461 46.0162C59.3271 45.888 60.0027 45.7751 60.9477 45.6651C62.1515 45.525 62.6801 45.4128 64.0214 45.0128C64.6174 44.8351 64.6258 44.8303 64.6421 44.6645C64.6561 44.5211 64.5863 44.4044 64.1678 43.8716C63.8979 43.5279 63.6077 43.151 63.5228 43.034C63.1266 42.4877 62.5126 41.9288 60.6819 40.448C58.0619 38.3288 56.169 37.0756 54.4064 36.2935C53.5752 35.9247 53.2644 35.7832 52.8301 35.5758C52.5556 35.4447 52.0299 35.2186 51.6618 35.0734C51.0765 34.8423 50.9706 34.7813 50.8168 34.5866C50.5267 34.2193 50.3439 33.9146 50.0612 33.3268C49.9135 33.0196 49.5036 32.1699 49.1505 31.4386C48.1228 29.3103 47.4699 27.9462 47.3557 27.6886C47.2973 27.557 47.1786 27.2937 47.0919 27.1036C47.0052 26.9134 46.8401 26.5424 46.7251 26.2791C46.6099 26.0158 46.4736 25.7047 46.4222 25.5876C46.0783 24.806 45.9324 24.4615 45.7463 23.9919C44.4669 20.7633 44.4884 20.8059 42.9785 18.496C42.1192 17.1813 41.7244 16.6288 40.8053 15.4549C39.1837 13.3837 37.0377 11.2243 34.9589 9.57203C34.3405 9.0805 32.5526 7.76479 32.1179 7.48134C28.7463 5.28299 28.2533 5.02682 26.4761 4.54955C24.4791 4.01323 24.3095 3.98063 23.1706 3.91387C21.4273 3.81169 21.2304 3.79217 21.0953 3.70803C20.9763 3.63399 20.2299 3.03533 19.8145 2.68082C19.3162 2.25556 17.319 1.16804 16.2352 0.731719C14.8191 0.16168 13.4642 -0.091505 12.4782 0.0296621ZM21.9885 9.74596C21.7159 9.76559 21.1478 9.87399 21.1478 9.90638C21.1478 9.98111 21.5686 10.5567 21.9378 10.9869C22.3129 11.4241 22.4271 11.6091 22.7842 12.3575C23.0112 12.8333 23.1969 13.2433 23.1969 13.2685C23.1969 13.2937 23.2333 13.3449 23.2779 13.3823C23.346 13.4396 23.3883 13.4217 23.5451 13.2691C23.8979 12.9258 24.0942 12.4692 24.1686 11.8185C24.2023 11.5237 24.1919 11.4818 23.9812 11.0591C23.7389 10.573 23.5155 10.3242 22.9868 9.95197C22.6282 9.69952 22.6297 9.69984 21.9885 9.74596ZM1.72687 53.3809C1.27465 53.4633 0.663805 53.6806 0.475497 53.826C0.377403 53.9017 0.230288 54.1015 0.148586 54.27L0 54.5763V59.2304V63.8845L1.09023 63.8989L2.18046 63.9133V59.4868C2.18046 57.0522 2.20006 55.083 2.22401 55.1108C2.24803 55.1386 2.99637 56.8129 3.8871 58.8315C5.86018 63.303 5.8317 63.2441 6.17175 63.5536C6.56428 63.9109 6.84123 63.9913 7.67101 63.9891C8.25217 63.9875 8.39802 63.9694 8.64885 63.8683C8.97771 63.7357 9.3157 63.4303 9.50396 63.0955C9.57253 62.9737 10.4058 61.1147 11.3557 58.9645L13.0827 55.055L13.0962 59.4841L13.1096 63.9133L14.1996 63.8989L15.2895 63.8845V59.2304V54.5763L15.1513 54.278C14.9774 53.9025 14.7504 53.7252 14.2292 53.5576C13.0008 53.1627 12.0004 53.3181 11.3684 54.0021C11.08 54.3143 11.1279 54.2125 9.16496 58.6846C8.31437 60.6224 7.60665 62.2075 7.5922 62.207C7.57775 62.2066 6.82194 60.4551 5.91261 58.3148C4.79974 55.6953 4.19662 54.3388 4.06747 54.1648C3.67604 53.6375 3.16881 53.3832 2.44479 53.3514C2.19827 53.3406 1.87519 53.3538 1.72687 53.3809ZM32.0764 53.5752C30.9152 53.6961 29.9165 54.2509 29.5683 54.9685C29.4255 55.2627 29.4228 55.2868 29.4061 56.4068C29.3859 57.7618 29.4098 57.8614 29.8649 58.32C30.2001 58.6578 30.5356 58.8573 31.0905 59.0489C31.7865 59.2892 32.2355 59.3368 33.8053 59.3368C35.9161 59.3368 36.4985 59.4396 36.7823 59.8625C36.9043 60.0443 36.9102 60.091 36.9102 60.8898V61.7266L36.7394 61.9235C36.6455 62.0318 36.4622 62.1703 36.3322 62.2312C36.1024 62.3389 36.0009 62.3428 32.7331 62.3686L29.3705 62.3952L29.3559 63.1565L29.3413 63.9179L32.8762 63.896C36.7453 63.8721 36.6637 63.8784 37.5266 63.5407C38.2506 63.2575 38.7638 62.8324 39.0061 62.3154C39.1409 62.0277 39.1432 62.0038 39.1432 60.8527C39.1432 59.7987 39.133 59.6614 39.0403 59.4698C38.8816 59.1417 38.4449 58.7427 38.0086 58.5272C37.0767 58.0669 36.6717 58.0072 34.4732 58.0062C32.2473 58.0051 32.0159 57.9578 31.7207 57.4435C31.608 57.2473 31.6022 57.1875 31.6156 56.367L31.6298 55.4981L31.7977 55.3463C32.1142 55.0604 32.1 55.0614 35.7937 55.0417L39.222 55.0234V54.2812V53.5391L35.7411 53.5476C33.8267 53.5523 32.1775 53.5647 32.0764 53.5752ZM43.5829 53.576C42.1174 53.7349 41.1536 54.2582 40.7615 55.1082L40.6143 55.4273V58.7251V62.0229L40.7817 62.3806C41.0783 63.0145 41.6337 63.4252 42.6128 63.7348L43.0837 63.8837L45.1854 63.8841C46.3413 63.8843 47.4646 63.8674 47.6815 63.8464L48.076 63.8083L48.9688 64.6296L49.8616 65.451L51.1138 65.4523C51.807 65.4531 52.3582 65.4329 52.3485 65.4072C52.3389 65.3816 51.9172 64.9838 51.4115 64.5232C50.9058 64.0626 50.4369 63.6322 50.3694 63.5667L50.2467 63.4476L50.527 63.2867C50.9135 63.0647 51.191 62.7754 51.3531 62.4254L51.4903 62.1293V58.7517V55.3741L51.3725 55.1179C51.3076 54.9769 51.1227 54.7216 50.9614 54.5505C50.47 54.0289 49.7085 53.72 48.6078 53.5958C48.1481 53.5438 44.0286 53.5277 43.5829 53.576ZM52.9468 57.7012L52.9615 61.8633L53.0796 62.1559C53.4831 63.1553 54.5081 63.6957 56.3057 63.8568C56.6337 63.8862 58.2083 63.9104 59.805 63.9107L62.7079 63.9111V63.1399V62.3686H59.4599C56.6258 62.3686 56.1755 62.3577 55.9265 62.2829C55.5483 62.1693 55.3606 62.0265 55.242 61.7622C55.1495 61.5558 55.1442 61.33 55.1431 57.5416L55.1419 53.5391H54.037H52.9322L52.9468 57.7012ZM48.6993 55.1901C49.0635 55.3281 49.2337 55.4645 49.3639 55.7228C49.4631 55.9197 49.4675 56.0465 49.4675 58.7195C49.4675 60.5623 49.4485 61.5615 49.4116 61.6604C49.3512 61.8223 49.1294 62.0811 48.9815 62.1623C48.9063 62.2036 48.7446 62.0779 48.0883 61.468L47.287 60.7233L46.0392 60.7215C45.3529 60.7205 44.7915 60.7377 44.7917 60.7596C44.7919 60.7815 45.1835 61.1586 45.6619 61.5974L46.5318 62.3952L45.386 62.4096C44.7149 62.418 44.1279 62.4003 43.9691 62.367C43.6108 62.2917 43.2674 62.0546 43.1079 61.7726L42.9787 61.5442L42.9637 58.7589C42.9491 56.0353 42.9512 55.9687 43.0575 55.7463C43.1176 55.6206 43.2575 55.4549 43.3705 55.3757C43.7659 55.0983 43.857 55.089 46.2211 55.0851C48.3034 55.0817 48.427 55.087 48.6993 55.1901ZM17.1547 59.353V62.0286L17.2877 62.2989C17.5753 62.883 18.2926 63.3708 19.2527 63.635L19.7555 63.7733L22.5796 63.7924L25.4036 63.8114L25.4034 64.3267C25.4032 64.9766 25.3246 65.1314 24.89 65.3375L24.5893 65.4802L20.8982 65.4949L17.2072 65.5096V66.2548V67L21.1347 66.9831L25.0621 66.9661L25.5466 66.823C26.5735 66.5197 27.2538 66.0174 27.5099 65.3735L27.6366 65.0547L27.6516 60.866L27.6665 56.6773H26.5614H25.4562V59.5789V62.4804L22.7897 62.4644C20.2101 62.4489 20.1155 62.4448 19.8851 62.3368C19.7541 62.2754 19.5827 62.1479 19.5042 62.0535L19.3614 61.8818V59.2795V56.6773H18.2581H17.1547V59.353ZM64.8465 60.7964C64.0045 61.1005 63.5755 61.9908 63.8387 62.8879C63.9456 63.2524 64.3452 63.6954 64.7165 63.8611C65.1315 64.0462 65.683 64.0386 66.0792 63.8424C67.3806 63.1978 67.2802 61.2868 65.9194 60.8017C65.6387 60.7016 65.1161 60.699 64.8465 60.7964ZM65.9429 61.1876C66.8644 61.6673 66.8706 63.0456 65.9534 63.5083C65.2839 63.846 64.522 63.5722 64.2319 62.8896C64.1368 62.6656 64.1187 62.5447 64.1386 62.2638C64.1521 62.0724 64.2022 61.8392 64.25 61.7457C64.3779 61.4952 64.685 61.2149 64.9331 61.1222C65.2139 61.0173 65.6728 61.0471 65.9429 61.1876ZM64.757 62.3372V63.2729H64.8883C65.0167 63.2729 65.0197 63.264 65.0197 62.8739V62.475H65.1735C65.3081 62.475 65.3559 62.5229 65.5579 62.8606C65.7719 63.2187 65.8025 63.2475 65.9859 63.263L66.1834 63.2798L65.916 62.8786C65.6498 62.4793 65.6492 62.4773 65.7757 62.4451C66.1352 62.3538 66.2622 61.8471 65.9938 61.5752C65.8682 61.4479 65.8177 61.4365 65.3076 61.4197L64.757 61.4015V62.3372ZM65.7253 61.7607C65.8394 61.8763 65.8291 62.0874 65.7062 62.154C65.6503 62.1843 65.4729 62.2091 65.3121 62.2091H65.0197V61.9431V61.6772H65.3312C65.5443 61.6772 65.6687 61.7035 65.7253 61.7607Z" fill="#2A354F"/>
</svg>
