<svg width="165" height="83" viewBox="0 0 165 83" fill="none" xmlns="http://www.w3.org/2000/svg">
<g id="venturebeat-ar21 3">
<path id="Vector" d="M114.557 31.8435C115.327 31.9735 116.101 31.9735 116.743 32.2308C119.702 33.0055 121.246 36.6298 119.702 39.3495C119.317 39.9969 118.801 40.3842 118.158 40.7743C117.901 40.9043 117.643 41.033 117.257 41.2917C117.386 41.4217 117.514 41.4217 117.642 41.4217C119.7 42.0691 120.601 43.6212 120.729 45.5634C120.986 48.4103 119.185 50.4811 116.356 50.7398C115.456 50.8699 114.569 50.8699 113.785 50.8699H104.908V46.9868H106.58V35.5979H104.908V31.7148L114.557 31.8449V31.8435ZM111.727 43.2325V46.9855C111.727 47.1155 111.856 47.2441 111.984 47.2441H114.17C114.684 47.2441 115.199 46.9855 115.457 46.4695C116.101 45.3047 115.457 43.7512 114.17 43.4925C113.4 43.2339 112.626 43.2339 111.725 43.2339L111.727 43.2325ZM111.727 39.6081C112.497 39.6081 113.143 39.6081 113.913 39.4781C114.814 39.3481 115.329 38.572 115.329 37.6798C115.329 36.7875 114.815 35.9976 114.042 35.8814C113.27 35.7652 112.498 35.7514 111.727 35.7514V39.6081ZM158.811 40.9029H156.882C156.753 40.9029 156.625 41.033 156.625 41.1616V46.0642C156.625 47.0989 157.268 47.6176 158.412 47.359H158.669V50.4645C158.669 50.7232 158.669 50.8519 158.412 50.8519C156.996 51.1106 155.582 51.2392 154.04 50.9819C152.368 50.5946 151.595 49.6871 151.595 48.005V40.7563H151.081C150.311 40.7563 150.437 40.8863 150.437 40.1089V36.8719H151.981V34.2851C151.981 33.379 151.852 33.5104 152.751 33.379L156.611 32.4729V36.8719H158.926C158.797 38.2967 158.797 39.5902 158.797 40.8836L158.811 40.9029ZM143.631 42.3278V41.033C143.631 40.2583 143.117 39.7382 142.473 39.7382C141.83 39.7382 141.186 40.2555 141.186 40.9029V41.4203H136.555C136.426 39.622 137.325 38.0547 139 37.2786C141.445 36.2439 144.019 36.2439 146.462 37.4086C148.006 38.1833 148.778 39.3495 148.778 41.033V46.843H149.935V50.726H144.16C144.16 50.2086 144.031 49.8199 144.031 49.1725C143.902 49.3025 143.774 49.4312 143.774 49.5598C142.23 51.3582 139.401 51.3582 137.856 50.5946C136.698 49.9472 136.184 48.7962 136.068 47.489C135.939 44.6421 137.355 42.8299 140.314 42.3126L143.401 42.0539C143.272 42.3126 143.401 42.3126 143.658 42.3126L143.631 42.3278ZM143.631 44.7873H142.473C141.315 44.9174 140.801 45.8221 140.929 46.8582C141.058 47.7643 141.83 48.283 142.717 47.8929C143.231 47.7629 143.487 47.3756 143.617 46.8582L143.631 44.7873ZM135.397 44.9174H126.776C126.776 45.8235 126.776 46.5995 127.29 47.2469C127.675 47.7643 128.191 47.8943 128.835 47.8943C129.478 47.8943 129.863 47.507 130.122 46.9882L130.379 46.2136H135.139C135.01 47.767 134.369 49.0605 133.081 49.9665C131.536 51.1313 129.863 51.3914 128.062 51.2613C127.292 51.2613 126.646 51.1313 125.876 50.874C123.946 50.3566 122.789 49.0757 122.145 47.2497C121.502 45.0502 121.375 42.8507 122.274 40.6484C123.175 38.3189 124.976 37.0241 127.42 36.7654C128.577 36.6354 129.864 36.7654 131.022 37.0241C133.467 37.7987 134.753 39.6109 135.268 42.0732L135.397 44.9201V44.9174ZM130.379 42.3305C130.379 41.5559 130.249 40.7771 129.609 40.3897C128.968 40.0024 128.322 40.0024 127.68 40.5198C127.165 40.9071 127.036 41.5545 127.036 42.3181L130.379 42.3305Z" fill="#44516F"/>
<path id="Vector_2" d="M24.3288 31.707V35.59H23.5588C23.1738 35.46 23.0445 35.7201 23.0445 35.9774L19.3142 47.8851L18.4135 50.6034C18.4135 50.7334 18.1564 50.862 18.0285 50.862H12.1064L11.9772 50.4747L7.47405 35.9774C7.3448 35.59 7.21692 35.59 6.83055 35.59H6.06055V31.707H14.294V35.59H12.622L15.3239 46.333H15.4532L18.4122 35.59H16.7402V31.707H24.3288ZM37.3225 36.8835H42.8542L42.9834 38.8243C43.3684 38.4369 43.6269 38.0496 43.884 37.7895C45.4282 36.4947 47.2294 36.2361 49.1585 36.8835C50.5748 37.4008 51.2169 38.5656 51.2169 40.1205V46.9818H52.3747V50.8648H46.1995V42.1913C46.1995 41.4166 45.9424 41.0265 45.4295 40.8965C44.786 40.7665 44.2718 40.8965 43.8854 41.4139L43.6283 41.8012L43.499 42.1885V46.9776H44.3997V50.8607H37.3239V46.979H38.3524V40.7679H37.3239L37.3225 36.8835ZM71.0279 40.6364H70.1245V36.7534H76.1745V46.9763H77.3323V50.8593H71.6714V49.4344C71.4143 49.6931 71.2864 49.9518 71.0279 50.0818C69.6117 51.3766 67.1683 51.6353 65.4963 50.8565C64.2093 50.2091 63.5672 49.1744 63.5672 47.7509L63.4379 41.2797V40.7623H62.2802V36.8807H68.4539V45.1641C68.4539 45.5514 68.4539 45.9388 68.5832 46.1988C68.7124 46.7162 69.2267 46.9735 69.7409 46.9735C70.2552 46.9735 70.6415 46.7148 70.8987 46.1988C71.0279 46.0688 71.0279 45.8115 71.0279 45.5514V40.6364ZM36.4219 44.7781H27.8007C27.8007 45.5528 27.8007 46.3316 28.1857 46.9776C28.4428 47.495 29.0863 47.7523 29.6019 47.7523C30.1175 47.7523 30.7597 47.4936 31.0182 46.8462C31.1474 46.5875 31.1474 46.3289 31.2753 45.9401H36.0355C35.9063 47.4936 35.2655 48.787 33.9772 49.6931C33.0765 50.3405 32.048 50.7279 31.0182 50.8579C29.6019 51.1166 28.0592 50.9879 26.6457 50.5992C24.7165 49.9518 23.4282 48.6584 22.9153 46.8462C22.272 44.826 22.272 42.654 22.9153 40.6337C23.6853 38.1741 25.4865 36.7507 28.0605 36.3619C29.2183 36.2319 30.376 36.2319 31.5338 36.6206C34.105 37.3953 35.5213 39.0802 36.0369 41.7971C36.294 42.8318 36.294 43.7379 36.4219 44.774V44.7781ZM27.9313 42.0599H31.2767C31.2767 41.2852 31.2767 40.6351 30.5067 40.2616C29.8632 39.8742 29.2197 39.8742 28.7192 40.2616C27.9492 40.6489 27.9492 41.2963 27.9492 42.0599H27.9313ZM103.446 44.7781H94.825C94.825 45.5528 94.8251 46.3316 95.2101 46.9776C95.5951 47.6237 96.1107 47.7523 96.7542 47.7523C97.0507 47.75 97.3407 47.6638 97.5909 47.5035C97.841 47.3433 98.0414 47.1155 98.1691 46.8462L98.4262 46.0716H103.186C102.929 48.9185 100.871 50.8607 98.0412 51.1207C96.6249 51.2508 95.3393 51.2508 94.0537 50.7334C92.1245 50.086 90.8362 48.7926 90.194 46.8504C89.5505 44.8746 89.5505 42.7437 90.194 40.7679C90.9641 38.181 92.8959 36.8848 95.4686 36.4961C96.6263 36.3661 97.9133 36.3661 99.0711 36.7548C101.516 37.5295 102.801 39.2144 103.317 41.5439C103.446 42.7087 103.446 43.7434 103.446 44.7809V44.7781ZM95.0863 42.0599H98.4317C98.4317 40.6351 97.7882 39.8604 96.6442 39.989C95.6157 40.1191 94.9722 40.8951 95.1001 42.0599H95.0863ZM53.0182 36.7534H54.5623V34.0352C54.5623 33.5178 54.6915 33.3878 55.2058 33.2605L59.1933 32.3544V36.7534H61.3795V40.6364H59.1933V46.0729C59.3225 46.979 59.9633 47.3677 60.7374 47.2377C60.8667 47.2377 60.9945 47.2377 61.2517 47.1077V49.5672C61.2517 50.732 61.2517 50.732 60.0939 50.862C58.9362 50.9921 57.7784 51.1207 56.4914 50.862C54.8194 50.4747 54.0467 49.4372 54.0467 47.7565V40.6378H52.8889C53.0182 39.4731 53.0182 38.1783 53.0182 36.7548V36.7534ZM78.3608 50.8607V46.979H79.5185V40.7679H78.3608V36.8807H83.7645C83.7645 37.5281 83.8938 38.3055 83.8938 39.0802C84.023 38.9502 84.023 38.8215 84.023 38.6929C84.4081 37.5281 85.3101 36.8945 86.4678 36.752H88.2553C88.3845 36.752 88.5124 36.8821 88.5124 37.0107V41.2825C87.8689 41.2825 87.0962 41.1524 86.454 41.2825C85.0378 41.5411 84.3957 42.3172 84.2678 43.742V46.8476H85.8119V50.7306L78.3498 50.8607H78.3608Z" fill="#44516F"/>
</g>
</svg>
