<svg width="196" height="26" viewBox="0 0 196 26" fill="none" xmlns="http://www.w3.org/2000/svg">
<path d="M43.6815 20.821C39.1435 20.821 35.3281 17.1218 35.3281 12.5791C35.3272 8.03632 39.1427 4.33716 43.6815 4.33716C46.1917 4.33716 47.9793 5.32252 49.324 6.60853L47.7372 8.19696C46.7735 7.29236 45.4682 6.58878 43.6806 6.58878C40.3672 6.58878 37.7764 9.2622 37.7764 12.5791C37.7764 15.8959 40.3672 18.5693 43.6806 18.5693C45.8295 18.5693 47.0541 17.7051 47.8376 16.9208C48.4804 16.2773 48.9017 15.353 49.0622 14.0867H43.6815V11.836H51.2523C51.333 12.238 51.3724 12.7209 51.3724 13.2431C51.3724 14.9321 50.9108 17.0222 49.4244 18.5101C47.9784 20.0169 46.1316 20.821 43.6815 20.821Z" fill="#44516F"/>
<path d="M62.7358 15.4777C62.7358 18.5335 60.3467 20.7842 57.4143 20.7842C54.4828 20.7842 52.0928 18.5326 52.0928 15.4777C52.0928 12.4023 54.4828 10.1704 57.4143 10.1704C60.3467 10.1704 62.7358 12.4023 62.7358 15.4777ZM60.4067 15.4777C60.4067 13.568 59.0208 12.2614 57.4143 12.2614C55.8078 12.2614 54.4218 13.568 54.4218 15.4777C54.4218 17.3668 55.8078 18.6941 57.4143 18.6941C59.0208 18.6941 60.4067 17.3668 60.4067 15.4777Z" fill="#44516F"/>
<path d="M74.3002 15.4777C74.3002 18.5335 71.9111 20.7842 68.9787 20.7842C66.0472 20.7842 63.6572 18.5326 63.6572 15.4777C63.6572 12.4023 66.0472 10.1704 68.9787 10.1704C71.9111 10.1704 74.3002 12.4023 74.3002 15.4777ZM71.9712 15.4777C71.9712 13.568 70.5852 12.2614 68.9787 12.2614C67.3722 12.2614 65.9863 13.568 65.9863 15.4777C65.9863 17.3668 67.3722 18.6941 68.9787 18.6941C70.5852 18.6941 71.9712 17.3668 71.9712 15.4777Z" fill="#44516F"/>
<path d="M85.3833 10.5016V20.0205C85.3833 23.9404 83.074 25.5486 80.3433 25.5486C77.7731 25.5486 76.2266 23.8202 75.6439 22.413L77.6718 21.5685C78.033 22.4328 78.917 23.4576 80.3424 23.4576C82.0896 23.4576 83.1735 22.3717 83.1735 20.3418V19.5781H83.0937C82.5719 20.2215 81.567 20.7842 80.302 20.7842C77.6511 20.7842 75.2217 18.4724 75.2217 15.4975C75.2217 12.5019 77.6511 10.1704 80.302 10.1704C81.567 10.1704 82.571 10.7331 83.0937 11.3568H83.1735V10.5016H85.3833ZM83.3348 15.4975C83.3348 13.6282 82.0896 12.2614 80.5037 12.2614C78.8973 12.2614 77.5516 13.6282 77.5516 15.4975C77.5516 17.3471 78.8973 18.6941 80.5037 18.6941C82.0896 18.6941 83.3348 17.3471 83.3348 15.4975Z" fill="#44516F"/>
<path d="M86.9658 4.87573H89.2949V20.4747H86.9658V4.87573Z" fill="#44516F"/>
<path d="M98.0924 17.2259L99.8997 18.4321C99.317 19.2963 97.9113 20.7842 95.4818 20.7842C92.4696 20.7842 90.2822 18.4527 90.2822 15.4777C90.2822 12.3215 92.4894 10.1704 95.2209 10.1704C97.9722 10.1704 99.3179 12.3619 99.7589 13.5474L100 14.1505L92.9116 17.085C93.454 18.1503 94.2976 18.6932 95.4818 18.6932C96.667 18.6932 97.4899 18.1099 98.0924 17.2259ZM92.5297 15.3162L97.2685 13.3464C97.0076 12.6832 96.2241 12.221 95.3007 12.221C94.1165 12.2201 92.4696 13.2656 92.5297 15.3162Z" fill="#44516F"/>
<path d="M110.358 21H108.511L113.852 6.45455H115.67L121.011 21H119.165L114.818 8.75568H114.705L110.358 21ZM111.04 15.3182H118.483V16.8807H111.04V15.3182ZM130.777 12.5341L129.271 12.9602C129.177 12.7093 129.037 12.4654 128.852 12.2287C128.672 11.9872 128.426 11.7884 128.114 11.6321C127.801 11.4759 127.401 11.3977 126.913 11.3977C126.246 11.3977 125.689 11.5516 125.244 11.8594C124.804 12.1624 124.584 12.5483 124.584 13.017C124.584 13.4337 124.735 13.7628 125.038 14.0043C125.341 14.2457 125.815 14.447 126.459 14.608L128.078 15.0057C129.054 15.2424 129.78 15.6046 130.259 16.0923C130.737 16.5753 130.976 17.1979 130.976 17.9602C130.976 18.5852 130.796 19.1439 130.436 19.6364C130.081 20.1288 129.584 20.517 128.945 20.8011C128.305 21.0852 127.562 21.2273 126.714 21.2273C125.602 21.2273 124.681 20.9858 123.952 20.5028C123.223 20.0199 122.761 19.3144 122.567 18.3864L124.158 17.9886C124.309 18.5758 124.596 19.0161 125.017 19.3097C125.443 19.6032 126 19.75 126.686 19.75C127.467 19.75 128.088 19.5843 128.547 19.2528C129.011 18.9167 129.243 18.5142 129.243 18.0455C129.243 17.6667 129.11 17.3494 128.845 17.0938C128.58 16.8333 128.173 16.6392 127.624 16.5114L125.805 16.0852C124.806 15.8485 124.072 15.4815 123.604 14.9844C123.14 14.4825 122.908 13.8551 122.908 13.1023C122.908 12.4867 123.08 11.9422 123.426 11.4688C123.777 10.9953 124.252 10.6236 124.854 10.3537C125.46 10.0838 126.146 9.94886 126.913 9.94886C127.993 9.94886 128.84 10.1856 129.456 10.6591C130.076 11.1326 130.517 11.7576 130.777 12.5341ZM141.226 12.5341L139.721 12.9602C139.626 12.7093 139.486 12.4654 139.301 12.2287C139.122 11.9872 138.875 11.7884 138.563 11.6321C138.25 11.4759 137.85 11.3977 137.363 11.3977C136.695 11.3977 136.139 11.5516 135.694 11.8594C135.253 12.1624 135.033 12.5483 135.033 13.017C135.033 13.4337 135.185 13.7628 135.488 14.0043C135.791 14.2457 136.264 14.447 136.908 14.608L138.527 15.0057C139.503 15.2424 140.23 15.6046 140.708 16.0923C141.186 16.5753 141.425 17.1979 141.425 17.9602C141.425 18.5852 141.245 19.1439 140.885 19.6364C140.53 20.1288 140.033 20.517 139.394 20.8011C138.755 21.0852 138.011 21.2273 137.164 21.2273C136.051 21.2273 135.13 20.9858 134.401 20.5028C133.672 20.0199 133.21 19.3144 133.016 18.3864L134.607 17.9886C134.758 18.5758 135.045 19.0161 135.466 19.3097C135.892 19.6032 136.449 19.75 137.135 19.75C137.917 19.75 138.537 19.5843 138.996 19.2528C139.46 18.9167 139.692 18.5142 139.692 18.0455C139.692 17.6667 139.56 17.3494 139.294 17.0938C139.029 16.8333 138.622 16.6392 138.073 16.5114L136.255 16.0852C135.256 15.8485 134.522 15.4815 134.053 14.9844C133.589 14.4825 133.357 13.8551 133.357 13.1023C133.357 12.4867 133.53 11.9422 133.875 11.4688C134.226 10.9953 134.702 10.6236 135.303 10.3537C135.909 10.0838 136.596 9.94886 137.363 9.94886C138.442 9.94886 139.29 10.1856 139.905 10.6591C140.525 11.1326 140.966 11.7576 141.226 12.5341ZM143.948 21V10.0909H145.624V21H143.948ZM144.8 8.27273C144.474 8.27273 144.192 8.16146 143.955 7.93892C143.723 7.71638 143.607 7.44886 143.607 7.13636C143.607 6.82386 143.723 6.55634 143.955 6.33381C144.192 6.11127 144.474 6 144.8 6C145.127 6 145.406 6.11127 145.638 6.33381C145.875 6.55634 145.994 6.82386 145.994 7.13636C145.994 7.44886 145.875 7.71638 145.638 7.93892C145.406 8.16146 145.127 8.27273 144.8 8.27273ZM156.422 12.5341L154.916 12.9602C154.821 12.7093 154.681 12.4654 154.497 12.2287C154.317 11.9872 154.071 11.7884 153.758 11.6321C153.446 11.4759 153.046 11.3977 152.558 11.3977C151.89 11.3977 151.334 11.5516 150.889 11.8594C150.449 12.1624 150.228 12.5483 150.228 13.017C150.228 13.4337 150.38 13.7628 150.683 14.0043C150.986 14.2457 151.459 14.447 152.103 14.608L153.723 15.0057C154.698 15.2424 155.425 15.6046 155.903 16.0923C156.381 16.5753 156.62 17.1979 156.62 17.9602C156.62 18.5852 156.44 19.1439 156.081 19.6364C155.725 20.1288 155.228 20.517 154.589 20.8011C153.95 21.0852 153.207 21.2273 152.359 21.2273C151.246 21.2273 150.325 20.9858 149.596 20.5028C148.867 20.0199 148.405 19.3144 148.211 18.3864L149.802 17.9886C149.954 18.5758 150.24 19.0161 150.662 19.3097C151.088 19.6032 151.644 19.75 152.331 19.75C153.112 19.75 153.732 19.5843 154.191 19.2528C154.655 18.9167 154.887 18.5142 154.887 18.0455C154.887 17.6667 154.755 17.3494 154.49 17.0938C154.225 16.8333 153.817 16.6392 153.268 16.5114L151.45 16.0852C150.451 15.8485 149.717 15.4815 149.248 14.9844C148.784 14.4825 148.552 13.8551 148.552 13.1023C148.552 12.4867 148.725 11.9422 149.071 11.4688C149.421 10.9953 149.897 10.6236 150.498 10.3537C151.104 10.0838 151.791 9.94886 152.558 9.94886C153.637 9.94886 154.485 10.1856 155.1 10.6591C155.721 11.1326 156.161 11.7576 156.422 12.5341ZM163.888 10.0909V11.5114H158.234V10.0909H163.888ZM159.882 7.47727H161.558V17.875C161.558 18.3485 161.627 18.7036 161.764 18.9403C161.906 19.1723 162.086 19.3286 162.304 19.4091C162.527 19.4848 162.761 19.5227 163.007 19.5227C163.192 19.5227 163.343 19.5133 163.462 19.4943C163.58 19.4706 163.675 19.4517 163.746 19.4375L164.087 20.9432C163.973 20.9858 163.814 21.0284 163.611 21.071C163.407 21.1184 163.149 21.142 162.837 21.142C162.363 21.142 161.899 21.0402 161.445 20.8366C160.995 20.633 160.621 20.3229 160.322 19.9062C160.029 19.4896 159.882 18.964 159.882 18.3295V7.47727ZM169.619 21.2557C168.928 21.2557 168.301 21.1255 167.737 20.8651C167.174 20.5999 166.726 20.2188 166.395 19.7216C166.063 19.2197 165.898 18.6136 165.898 17.9034C165.898 17.2784 166.021 16.7718 166.267 16.3835C166.513 15.9905 166.842 15.6828 167.254 15.4602C167.666 15.2377 168.121 15.072 168.618 14.9631C169.12 14.8494 169.624 14.7595 170.131 14.6932C170.794 14.608 171.331 14.544 171.743 14.5014C172.16 14.4541 172.463 14.3759 172.652 14.267C172.846 14.1581 172.943 13.9687 172.943 13.6989V13.642C172.943 12.9413 172.751 12.3968 172.368 12.0085C171.989 11.6203 171.414 11.4261 170.642 11.4261C169.842 11.4261 169.214 11.6013 168.76 11.9517C168.305 12.3021 167.986 12.6761 167.801 13.0739L166.21 12.5057C166.494 11.8428 166.873 11.3267 167.347 10.9574C167.825 10.5833 168.346 10.3229 168.909 10.1761C169.477 10.0246 170.036 9.94886 170.585 9.94886C170.936 9.94886 171.338 9.99148 171.793 10.0767C172.252 10.1572 172.695 10.3253 173.121 10.581C173.552 10.8366 173.909 11.2225 174.193 11.7386C174.477 12.2547 174.619 12.946 174.619 13.8125V21H172.943V19.5227H172.858C172.744 19.7595 172.555 20.0128 172.29 20.2827C172.025 20.5526 171.672 20.7822 171.232 20.9716C170.791 21.161 170.254 21.2557 169.619 21.2557ZM169.875 19.75C170.538 19.75 171.097 19.6198 171.551 19.3594C172.01 19.099 172.356 18.7628 172.588 18.3509C172.825 17.9389 172.943 17.5057 172.943 17.0511V15.517C172.872 15.6023 172.716 15.6804 172.474 15.7514C172.238 15.8177 171.963 15.8769 171.651 15.929C171.343 15.9763 171.042 16.0189 170.749 16.0568C170.46 16.09 170.225 16.1184 170.045 16.142C169.61 16.1989 169.203 16.2912 168.824 16.419C168.45 16.5421 168.147 16.7292 167.915 16.9801C167.688 17.2263 167.574 17.5625 167.574 17.9886C167.574 18.571 167.789 19.0114 168.22 19.3097C168.656 19.6032 169.207 19.75 169.875 19.75ZM179.355 14.4375V21H177.679V10.0909H179.298V11.7955H179.44C179.696 11.2415 180.084 10.7964 180.605 10.4602C181.126 10.1193 181.798 9.94886 182.622 9.94886C183.36 9.94886 184.007 10.1004 184.561 10.4034C185.115 10.7017 185.546 11.1562 185.853 11.767C186.161 12.3731 186.315 13.1402 186.315 14.0682V21H184.639V14.1818C184.639 13.3248 184.416 12.6572 183.971 12.179C183.526 11.696 182.915 11.4545 182.139 11.4545C181.604 11.4545 181.126 11.5705 180.704 11.8026C180.288 12.0346 179.958 12.3731 179.717 12.8182C179.475 13.2633 179.355 13.803 179.355 14.4375ZM194.122 10.0909V11.5114H188.469V10.0909H194.122ZM190.116 7.47727H191.793V17.875C191.793 18.3485 191.861 18.7036 191.999 18.9403C192.141 19.1723 192.321 19.3286 192.538 19.4091C192.761 19.4848 192.995 19.5227 193.241 19.5227C193.426 19.5227 193.578 19.5133 193.696 19.4943C193.814 19.4706 193.909 19.4517 193.98 19.4375L194.321 20.9432C194.207 20.9858 194.049 21.0284 193.845 21.071C193.642 21.1184 193.384 21.142 193.071 21.142C192.598 21.142 192.134 21.0402 191.679 20.8366C191.229 20.633 190.855 20.3229 190.557 19.9062C190.263 19.4896 190.116 18.964 190.116 18.3295V7.47727Z" fill="#44516F"/>
<path fill-rule="evenodd" clip-rule="evenodd" d="M25.6829 8.8197C26.7202 8.8197 27.5621 7.973 27.5621 6.92974C27.5621 5.88649 26.7202 5.03979 25.6829 5.03979C24.6456 5.03979 23.8037 5.88649 23.8037 6.92974C23.8037 7.973 24.6456 8.81969 25.6829 8.81969" fill="#44516F"/>
<path fill-rule="evenodd" clip-rule="evenodd" d="M20.0446 15.1196C22.1205 15.1196 23.803 13.4275 23.803 11.3397C23.803 9.25195 22.1205 7.55981 20.0446 7.55981C17.9687 7.55981 16.2861 9.25195 16.2861 11.3397C16.2861 13.4275 17.9687 15.1196 20.0446 15.1196" fill="#44516F"/>
<path fill-rule="evenodd" clip-rule="evenodd" d="M20.0447 25.1994C22.4664 25.1994 24.4296 23.225 24.4296 20.7895C24.4296 18.354 22.4664 16.3796 20.0447 16.3796C17.6231 16.3796 15.6599 18.354 15.6599 20.7895C15.6599 23.225 17.6231 25.1994 20.0447 25.1994Z" fill="#44516F"/>
<path fill-rule="evenodd" clip-rule="evenodd" d="M15.0337 7.5598C15.0337 3.38553 11.6687 0 7.51685 0C3.36504 0 0 3.38553 0 7.5598C0 11.7341 3.36504 15.1196 7.51685 15.1196C11.6687 15.1196 15.0337 11.7341 15.0337 7.5598Z" fill="#44516F"/>
</svg>
