<svg width="31" height="31" viewBox="0 0 31 31" fill="none" xmlns="http://www.w3.org/2000/svg">
<g id="icons / social / linkedin">
<path id="Vector" d="M24.0688 4.46045C24.7188 4.46045 25.3422 4.71868 25.8019 5.17832C26.2615 5.63797 26.5198 6.26139 26.5198 6.91143V24.0683C26.5198 24.7183 26.2615 25.3417 25.8019 25.8014C25.3422 26.261 24.7188 26.5193 24.0688 26.5193H6.91192C6.26188 26.5193 5.63846 26.261 5.17881 25.8014C4.71916 25.3417 4.46094 24.7183 4.46094 24.0683V6.91143C4.46094 6.26139 4.71916 5.63797 5.17881 5.17832C5.63846 4.71868 6.26188 4.46045 6.91192 4.46045H24.0688ZM23.456 23.4555V16.9604C23.456 15.9009 23.0351 14.8847 22.2859 14.1355C21.5367 13.3863 20.5205 12.9654 19.4609 12.9654C18.4193 12.9654 17.206 13.6026 16.6178 14.5585V13.1982H13.1987V23.4555H16.6178V17.4139C16.6178 16.4703 17.3776 15.6982 18.3212 15.6982C18.7763 15.6982 19.2127 15.879 19.5344 16.2007C19.8562 16.5225 20.0369 16.9589 20.0369 17.4139V23.4555H23.456ZM9.21584 11.2742C9.76187 11.2742 10.2855 11.0573 10.6716 10.6712C11.0578 10.2851 11.2747 9.76139 11.2747 9.21535C11.2747 8.07565 10.3555 7.14427 9.21584 7.14427C8.66656 7.14427 8.13977 7.36247 7.75137 7.75088C7.36296 8.13928 7.14476 8.66607 7.14476 9.21535C7.14476 10.3551 8.07613 11.2742 9.21584 11.2742ZM10.9193 23.4555V13.1982H7.52466V23.4555H10.9193Z" fill="#2B6ED2"/>
</g>
</svg>
