<svg width="31" height="31" viewBox="0 0 31 31" fill="none" xmlns="http://www.w3.org/2000/svg">
<g id="icons / social / twitter">
<path id="Vector" d="M28.3089 8.13702C27.3653 8.56594 26.3481 8.8478 25.2942 8.9826C26.3726 8.33309 27.2059 7.30368 27.5981 6.06594C26.5809 6.67868 25.4535 7.1076 24.2648 7.3527C23.2966 6.29878 21.9363 5.68604 20.3922 5.68604C17.5123 5.68604 15.1594 8.03898 15.1594 10.9434C15.1594 11.3601 15.2084 11.7645 15.2942 12.1444C10.9314 11.9238 7.04663 9.82819 4.46085 6.65417C4.00742 7.42623 3.75006 8.33309 3.75006 9.28898C3.75006 11.115 4.66918 12.7326 6.09075 13.6517C5.22065 13.6517 4.41183 13.4066 3.70104 13.039V13.0757C3.70104 15.6248 5.51477 17.7571 7.91673 18.2351C7.14556 18.4461 6.33596 18.4755 5.55153 18.3208C5.88438 19.3655 6.53626 20.2797 7.41552 20.9347C8.29479 21.5898 9.35723 21.9528 10.4535 21.9728C8.5952 23.4439 6.29172 24.2391 3.92163 24.2277C3.50496 24.2277 3.0883 24.2032 2.67163 24.1542C5.00006 25.6493 7.76967 26.5194 10.7354 26.5194C20.3922 26.5194 25.6986 18.5047 25.6986 11.5561C25.6986 11.3233 25.6986 11.1027 25.6863 10.8699C26.7157 10.1346 27.5981 9.20319 28.3089 8.13702Z" fill="#12C6EE"/>
</g>
</svg>
