<svg width="31" height="31" viewBox="0 0 31 31" fill="none" xmlns="http://www.w3.org/2000/svg">
<g id="icons / social / instagram">
<path id="Vector" d="M10.3432 3.23535H20.6373C24.5589 3.23535 27.7452 6.42163 27.7452 10.3432V20.6373C27.7452 22.5224 26.9963 24.3303 25.6633 25.6633C24.3303 26.9963 22.5224 27.7452 20.6373 27.7452H10.3432C6.42163 27.7452 3.23535 24.5589 3.23535 20.6373V10.3432C3.23535 8.45808 3.98421 6.65017 5.31719 5.31719C6.65017 3.98421 8.45808 3.23535 10.3432 3.23535ZM10.0981 5.68633C8.92802 5.68633 7.80587 6.15114 6.97851 6.97851C6.15114 7.80587 5.68633 8.92802 5.68633 10.0981V20.8824C5.68633 23.3211 7.65937 25.2942 10.0981 25.2942H20.8824C22.0525 25.2942 23.1746 24.8294 24.002 24.002C24.8294 23.1746 25.2942 22.0525 25.2942 20.8824V10.0981C25.2942 7.65937 23.3211 5.68633 20.8824 5.68633H10.0981ZM21.9241 7.52457C22.3304 7.52457 22.72 7.68596 23.0073 7.97324C23.2945 8.26052 23.4559 8.65015 23.4559 9.05643C23.4559 9.4627 23.2945 9.85234 23.0073 10.1396C22.72 10.4269 22.3304 10.5883 21.9241 10.5883C21.5178 10.5883 21.1282 10.4269 20.8409 10.1396C20.5536 9.85234 20.3922 9.4627 20.3922 9.05643C20.3922 8.65015 20.5536 8.26052 20.8409 7.97324C21.1282 7.68596 21.5178 7.52457 21.9241 7.52457ZM15.4903 9.3628C17.1154 9.3628 18.6739 10.0084 19.823 11.1575C20.9721 12.3066 21.6177 13.8652 21.6177 15.4903C21.6177 17.1154 20.9721 18.6739 19.823 19.823C18.6739 20.9721 17.1154 21.6177 15.4903 21.6177C13.8652 21.6177 12.3066 20.9721 11.1575 19.823C10.0084 18.6739 9.3628 17.1154 9.3628 15.4903C9.3628 13.8652 10.0084 12.3066 11.1575 11.1575C12.3066 10.0084 13.8652 9.3628 15.4903 9.3628ZM15.4903 11.8138C14.5152 11.8138 13.5801 12.2011 12.8906 12.8906C12.2011 13.5801 11.8138 14.5152 11.8138 15.4903C11.8138 16.4653 12.2011 17.4004 12.8906 18.0899C13.5801 18.7794 14.5152 19.1667 15.4903 19.1667C16.4653 19.1667 17.4004 18.7794 18.0899 18.0899C18.7794 17.4004 19.1667 16.4653 19.1667 15.4903C19.1667 14.5152 18.7794 13.5801 18.0899 12.8906C17.4004 12.2011 16.4653 11.8138 15.4903 11.8138Z" fill="#FF44D6"/>
</g>
</svg>
