<svg width="200" height="26" viewBox="0 0 200 26" fill="none" xmlns="http://www.w3.org/2000/svg">
<path d="M174.604 0V25.3959L182.449 4.85337L190.293 25.3959V0H174.604Z" fill="#2A354F"/>
<path d="M190.293 25.3959H200V0L190.293 25.3959Z" fill="#2A354F"/>
<path d="M170.894 0H145.499V25.3959H170.894V15.6891L153.974 22.1554L151.965 16.9355L170.894 9.70673H149.208L148.739 8.4604L170.894 0Z" fill="#2A354F"/>
<path d="M136.95 7.84457L121.642 13.695L116.408 0V25.3959H141.803V15.6891L124.868 22.1554L122.405 15.6891H141.803V9.70673V0H116.408L136.95 7.84457Z" fill="#2A354F"/>
<path d="M112.698 9.70673V0H87.3021L112.698 9.70673Z" fill="#2A354F"/>
<path d="M87.3021 0V25.3959H97.0089L94.3256 18.3724L112.698 25.3959V15.6891H97.0089L112.698 9.70673H91.0118L87.3021 0Z" fill="#2A354F"/>
<path d="M83.5924 0H58.1965V25.3959H83.5924V0ZM66.6716 22.1554L61.437 8.4604L75.132 3.2258L80.3666 16.9208L66.6716 22.1554Z" fill="#2A354F"/>
<path d="M48.0352 8.4604L34.3255 13.695L29.1056 0V25.3959H38.7977L35.1027 15.6891H50.7918L54.5015 25.3959V0H44.7947L48.0352 8.4604Z" fill="#2A354F"/>
<path d="M0 25.3962H25.3959L4.85337 17.5516L25.3959 9.70703H0V25.3962Z" fill="#2A354F"/>
<path d="M25.3959 9.70673V0H0L25.3959 9.70673Z" fill="#2A354F"/>
</svg>
